<?xml version="1.0" encoding="UTF-8"?>
<svg width="70px" height="72px" viewBox="0 0 70 72" version="1.1" xmlns="http://www.w3.org/2000/svg" xmlns:xlink="http://www.w3.org/1999/xlink">
    <!-- Generator: Sketch 49 (51002) - http://www.bohemiancoding.com/sketch -->
    <title>scroll button</title>
    <desc>Created with Sketch.</desc>
    <defs>
        <polygon id="path-1" points="71 70 0 70 0 0 71 0"></polygon>
    </defs>
    <g id="GEICO-Weather-Package" stroke="none" stroke-width="1" fill="none" fill-rule="evenodd">
        <g id="Desktop-HD" transform="translate(-690.000000, -613.000000)">
            <g id="Hero-Headline" transform="translate(366.000000, 337.000000)">
                <g id="scroll-button" transform="translate(359.500000, 312.000000) rotate(90.000000) translate(-359.500000, -312.000000) translate(324.000000, 277.000000)">
                    <mask id="mask-2" fill="white">
                        <use xlink:href="#path-1"></use>
                    </mask>
                    <g id="Clip-2"></g>
                    <path d="M5.89502244,33.9147156 C4.72588772,33.9147156 3.86288899,32.9781729 3.9877329,31.8314799 C3.9877329,31.8314799 3.89613452,32.5080236 3.9899839,31.8150912 C6.06488635,16.4831724 19.3816286,4.65671642 35.5,4.65671642 C53.0577992,4.65671642 67.2912179,18.6894937 67.2912179,36 C67.2912179,53.3103356 53.0577992,67.3432836 35.5,67.3432836 C19.3863038,67.3432836 6.07250512,55.5234855 3.99171544,40.1980538 C3.89717345,39.5008536 3.98721344,40.1649351 3.98721344,40.1649351 C3.87189299,39.016535 4.7180958,38.0854551 5.89502244,38.0854551 L44.2077334,38.0854551 C44.7916081,38.0854551 44.9303044,38.414423 44.5202761,38.8174812 L34.046893,49.1191103 C32.0480051,51.0847234 35.0451249,54.0343381 37.0438396,52.0678714 L51.6789752,37.7947273 C52.7185909,36.7827285 52.7144352,35.1423276 51.6642571,34.1255487 L37.0438396,19.9322993 C35.0451249,17.9658326 32.0480051,20.914423 34.046893,22.8810604 L44.5202761,33.1826895 C44.9315164,33.5869427 44.7954175,33.9147156 44.2077334,33.9147156 L5.89502244,33.9147156 Z M0,36 C0,55.3298946 15.893964,71 35.5,71 C55.1062092,71 71,55.3298946 71,36 C71,16.6699346 55.1062092,1 35.5,1 C15.893964,1 0,16.6699346 0,36 Z" id="Fill-1" fill="#FFFEFD" mask="url(#mask-2)"></path>
                </g>
            </g>
        </g>
    </g>
</svg>