<?xml version="1.0" encoding="UTF-8"?>
<svg width="68px" height="64px" viewBox="0 0 68 64" version="1.1" xmlns="http://www.w3.org/2000/svg" xmlns:xlink="http://www.w3.org/1999/xlink">
    <!-- Generator: Sketch 49 (51002) - http://www.bohemiancoding.com/sketch -->
    <title>Group 16</title>
    <desc>Created with Sketch.</desc>
    <defs></defs>
    <g id="GEICO-Weather-Package" stroke="none" stroke-width="1" fill="none" fill-rule="evenodd">
        <g id="Desktop-HD" transform="translate(-94.000000, -2026.000000)">
            <g id="Car-Kit-CTA" transform="translate(35.000000, 2028.000000)">
                <g id="Group-16" transform="translate(61.000000, 0.000000)">
                    <g id="Group-14">
                        <g id="Page-1">
                            <path d="M63.7894073,58.626375 C63.7894073,59.3604375 63.1965898,59.9552812 62.4650277,59.9552812 L1.55804964,59.9552812 C0.826487591,59.9552812 0.233670073,59.3604375 0.233670073,58.626375 L0.233670073,15.2210625 C0.233670073,14.487 0.826487591,13.8916875 1.55804964,13.8916875 L62.4650277,13.8916875 C63.1965898,13.8916875 63.7894073,14.487 63.7894073,15.2210625 L63.7894073,58.626375 Z" id="Stroke-1" stroke="#FEFEFE" stroke-width="2.8" stroke-linecap="round"></path>
                            <path d="M17.1374248,8.60207812 L17.1374248,4.42973438 C17.1374248,2.11270313 19.009308,0.234421875 21.3184467,0.234421875 L42.3076438,0.234421875 C44.6167825,0.234421875 46.4891328,2.11270313 46.4891328,4.42973438 L46.4891328,8.60207812" id="Stroke-3" stroke="#FEFEFE" stroke-width="2.8" stroke-linecap="round"></path>
                            <path d="M22.0599591,11.2469062 C22.0599591,9.78628125 20.8799299,8.60221875 19.4242803,8.60221875 L14.8508496,8.60221875 C13.3952,8.60221875 12.2151708,9.78628125 12.2151708,11.2469062 C12.2151708,12.7075312 11.0346745,13.8915937 9.57902482,13.8915937 L7.10077664,13.8915937 L27.9671124,13.8915937 L24.695638,13.8915937 C23.2399883,13.8915937 22.0599591,12.7075312 22.0599591,11.2469062 Z" id="Stroke-5" stroke="#FEFEFE" stroke-width="2.8" stroke-linecap="round"></path>
                            <path d="M51.0149139,11.2469062 C51.0149139,9.78628125 49.8348847,8.60221875 48.379235,8.60221875 L43.8058044,8.60221875 C42.3501547,8.60221875 41.1701255,9.78628125 41.1701255,11.2469062 C41.1701255,12.7075312 39.9896292,13.8915937 38.5339796,13.8915937 L36.0557314,13.8915937 L56.9220672,13.8915937 L53.6505927,13.8915937 C52.1949431,13.8915937 51.0149139,12.7075312 51.0149139,11.2469062 Z" id="Stroke-7" stroke="#FEFEFE" stroke-width="2.8" stroke-linecap="round"></path>
                            <path d="M32.0744175,22.2645469 C24.0062131,22.2645469 17.4651328,28.8275156 17.4651328,36.9237656 C17.4651328,45.0195469 24.0062131,51.5825156 32.0744175,51.5825156 C40.1426219,51.5825156 46.6837022,45.0195469 46.6837022,36.9237656 C46.6837022,28.8275156 40.1426219,22.2645469 32.0744175,22.2645469 M32.0744175,25.5457969 C38.3267971,25.5457969 43.4136292,30.6500156 43.4136292,36.9237656 C43.4136292,43.1975156 38.3267971,48.3012656 32.0744175,48.3012656 C25.822038,48.3012656 20.7352058,43.1975156 20.7352058,36.9237656 C20.7352058,30.6500156 25.822038,25.5457969 32.0744175,25.5457969" id="Fill-13" fill="#FEFEFE"></path>
                        </g>
                    </g>
                    <path d="M26.5555556,37.5 L36,37.5" id="Line-2" stroke="#FFFFFF" stroke-width="4" stroke-linecap="square"></path>
                    <path d="M26.5555556,37.5 L36,37.5" id="Line-2" stroke="#FFFFFF" stroke-width="4" stroke-linecap="square" transform="translate(31.000000, 37.500000) rotate(-90.000000) translate(-31.000000, -37.500000) "></path>
                </g>
            </g>
        </g>
    </g>
</svg>