<?xml version="1.0" encoding="UTF-8"?>
<svg width="66px" height="52px" viewBox="0 0 66 52" version="1.1" xmlns="http://www.w3.org/2000/svg" xmlns:xlink="http://www.w3.org/1999/xlink">
    <!-- Generator: Sketch 49 (51002) - http://www.bohemiancoding.com/sketch -->
    <title>Page 1</title>
    <desc>Created with Sketch.</desc>
    <defs></defs>
    <g id="GEICO-Weather-Package" stroke="none" stroke-width="1" fill="none" fill-rule="evenodd">
        <g id="Mobile-" transform="translate(-143.000000, -1585.000000)" fill="#FFFFFF">
            <g id="COVERAGE-CTA" transform="translate(78.000000, 1585.000000)">
                <path d="M118.5,35 C116.016,35 114,32.984 114,30.5 C114,28.016 116.016,26 118.5,26 C120.984,26 123,28.016 123,30.5 C123,32.984 120.984,35 118.5,35 Z M81,21 L81,14 C81,10.1406667 83.944375,7 87.5625,7 L109.4375,7 C113.055625,7 116,10.1406667 116,14 L116,21 L81,21 Z M87,33 L109,33 L109,31 L87,31 L87,33 Z M87,37 L109,37 L109,35 L87,35 L87,37 Z M87,42 L109,42 L109,40 L87,40 L87,42 Z M78.5,35 C76.016,35 74,32.984 74,30.5 C74,28.016 76.016,26 78.5,26 C80.984,26 83,28.016 83,30.5 C83,32.984 80.984,35 78.5,35 Z M127.7,19.5 L122.2,19.5 L122.2,13 C122.2,5.82183333 116.2886,0 109,0 L87,0 C79.7114,0 73.8,5.82183333 73.8,13 L73.8,19.5 L68.3,19.5 C66.4784,19.5 65,20.9538333 65,22.75 L65,26 L69.4,26 L69.4,52 L82.6,52 L82.6,49.8333333 C82.5978,47.4413333 84.5712,45.5 87,45.5 L109,45.5 C111.4288,45.5 113.4022,47.4413333 113.4,49.8333333 L113.4,52 L126.6,52 L126.6,26 L131,26 L131,22.75 C131,20.9538333 129.5216,19.5 127.7,19.5 Z" id="Page-1"></path>
            </g>
        </g>
    </g>
</svg>