<?xml version="1.0" encoding="UTF-8"?>
<svg width="48px" height="43px" viewBox="0 0 48 43" version="1.1" xmlns="http://www.w3.org/2000/svg" xmlns:xlink="http://www.w3.org/1999/xlink">
    <!-- Generator: Sketch 49 (51002) - http://www.bohemiancoding.com/sketch -->
    <title>Page 1</title>
    <desc>Created with Sketch.</desc>
    <defs></defs>
    <g id="GEICO-Weather-Package" stroke="none" stroke-width="1" fill="none" fill-rule="evenodd">
        <g id="Mobile-" transform="translate(-147.000000, -3103.000000)" fill="#000000">
            <g id="Page-1" transform="translate(147.000000, 3103.000000)">
                <path d="M5.09689664,37.909738 L42.9031034,37.909738 L42.9031034,12.5920918 L5.09689664,12.5920918 L5.09689664,37.909738 Z M19.5402154,7.50172938 L28.4597846,7.50172938 L28.4597846,5.09026196 L19.5402154,5.09026196 L19.5402154,7.50172938 Z M45.4515517,7.50182981 L33.5566812,7.50182981 L33.5566812,2.54513098 C33.5566812,1.13950447 32.4156915,0 31.0082329,0 L16.9917671,0 C15.5843085,0 14.4433188,1.13950447 14.4433188,2.54513098 L14.4433188,7.50182981 L2.54844832,7.50182981 C1.14098971,7.50182981 0,8.64123385 0,10.0469608 L0,40.454869 C0,41.8604955 1.14098971,43 2.54844832,43 L45.4515517,43 C46.8590103,43 48,41.8604955 48,40.454869 L48,10.0469608 C48,8.64123385 46.8590103,7.50182981 45.4515517,7.50182981 Z" id="Fill-1"></path>
                <polygon id="Fill-3" points="27.1645887 17 21.8354113 17 21.8354113 22.4921179 16 22.4921179 16 27.5077832 21.8354113 27.5077832 21.8354113 33 27.1645887 33 27.1645887 27.5077832 33 27.5077832 33 22.4921179 27.1645887 22.4921179"></polygon>
            </g>
        </g>
    </g>
</svg>