<?xml version="1.0" encoding="UTF-8"?>
<svg width="66px" height="52px" viewBox="0 0 66 52" version="1.1" xmlns="http://www.w3.org/2000/svg" xmlns:xlink="http://www.w3.org/1999/xlink">
    <!-- Generator: Sketch 49 (51002) - http://www.bohemiancoding.com/sketch -->
    <title>Page 1</title>
    <desc>Created with Sketch.</desc>
    <defs></defs>
    <g id="GEICO-Weather-Package" stroke="none" stroke-width="1" fill="none" fill-rule="evenodd">
        <g id="Desktop-HD" transform="translate(-91.000000, -1531.000000)" fill="#86D8F4">
            <g id="Coverage-CTA" transform="translate(56.000000, 1531.000000)">
                <path d="M88.5,35 C86.016,35 84,32.984 84,30.5 C84,28.016 86.016,26 88.5,26 C90.984,26 93,28.016 93,30.5 C93,32.984 90.984,35 88.5,35 Z M51,21 L51,14 C51,10.1406667 53.944375,7 57.5625,7 L79.4375,7 C83.055625,7 86,10.1406667 86,14 L86,21 L51,21 Z M57,33 L79,33 L79,31 L57,31 L57,33 Z M57,37 L79,37 L79,35 L57,35 L57,37 Z M57,42 L79,42 L79,40 L57,40 L57,42 Z M48.5,35 C46.016,35 44,32.984 44,30.5 C44,28.016 46.016,26 48.5,26 C50.984,26 53,28.016 53,30.5 C53,32.984 50.984,35 48.5,35 Z M97.7,19.5 L92.2,19.5 L92.2,13 C92.2,5.82183333 86.2886,0 79,0 L57,0 C49.7114,0 43.8,5.82183333 43.8,13 L43.8,19.5 L38.3,19.5 C36.4784,19.5 35,20.9538333 35,22.75 L35,26 L39.4,26 L39.4,52 L52.6,52 L52.6,49.8333333 C52.5978,47.4413333 54.5712,45.5 57,45.5 L79,45.5 C81.4288,45.5 83.4022,47.4413333 83.4,49.8333333 L83.4,52 L96.6,52 L96.6,26 L101,26 L101,22.75 C101,20.9538333 99.5216,19.5 97.7,19.5 Z" id="Page-1"></path>
            </g>
        </g>
    </g>
</svg>