<?xml version="1.0" encoding="UTF-8"?>
<svg width="51px" height="69px" viewBox="0 0 51 69" version="1.1" xmlns="http://www.w3.org/2000/svg" xmlns:xlink="http://www.w3.org/1999/xlink">
    <!-- Generator: Sketch 49 (51002) - http://www.bohemiancoding.com/sketch -->
    <title>Page 1</title>
    <desc>Created with Sketch.</desc>
    <defs></defs>
    <g id="GEICO-Weather-Package" stroke="none" stroke-width="1" fill="none" fill-rule="evenodd">
        <g id="Mobile-" transform="translate(-144.000000, -1024.000000)" fill="#FFFFFF">
            <g id="WINTER-PREP-CHECK-LIST-" transform="translate(82.000000, 1024.000000)">
                <path d="M89,49.5 C88.1715199,49.5 87.5,50.1715199 87.5,51 C87.5,51.8284801 88.1715199,52.5 89,52.5 L105.5,52.5 C106.32848,52.5 107,51.8284801 107,51 C107,50.1715199 106.32848,49.5 105.5,49.5 L89,49.5 Z M69.5,42.75 C68.6883286,42.7754498 67.9978693,43.5596591 68,44.25 L68,57.75 C68.0001184,58.535393 68.714607,59.2498816 69.5,59.25 L83,59.25 C83.785393,59.2498816 84.4998816,58.535393 84.5,57.75 L84.5,56.25 C84.5112453,55.4575047 83.7924953,54.7265625 83,54.7265625 C82.2075047,54.7265625 81.4888731,55.4576231 81.5,56.25 L71,56.25 L71,45.75 L78.5,45.75 C79.2924953,45.7612453 80.0234375,45.0424953 80.0234375,44.25 C80.0234375,43.4575047 79.2924953,42.7388731 78.5,42.75 L69.5,42.75 Z M85.859375,41.2265625 C85.4197443,41.2685843 85.004143,41.5163352 84.7578125,41.8828125 L78.8515625,50.4140625 L75.59375,48.234375 C74.9371449,47.7926136 73.9262547,47.9997633 73.484375,48.65625 C73.0426136,49.3128551 73.2496449,50.3004261 73.90625,50.7421875 L78.40625,53.7421875 C79.0564631,54.1847775 80.051018,53.9947917 80.4921875,53.34375 L87.2421875,43.59375 C87.5787169,43.125947 87.6031013,42.4506392 87.3126184,41.953125 C87.022017,41.4556108 86.4322917,41.1631155 85.8594934,41.2265625 L85.859375,41.2265625 Z M89,27 C88.1715199,27 87.5,27.6715199 87.5,28.5 C87.5,29.3284801 88.1715199,30 89,30 L105.5,30 C106.32848,30 107,29.3284801 107,28.5 C107,27.6715199 106.32848,27 105.5,27 L89,27 Z M71,32.25 L81.5,32.25 L81.5,24.75 L71,24.75 L71,32.25 Z M69.5,21.75 C68.6864347,21.7496449 68.0018939,22.5577652 68,23.25 L68,33.75 C68.0001184,34.535393 68.714607,35.25 69.5,35.25 L83,35.25 C83.785393,35.25 84.4998816,34.535393 84.5,33.75 L84.5,23.25 C84.4998816,22.464607 83.785393,21.7501184 83,21.75 L69.5,21.75 Z M65,10.5 L74,10.5 L74,13.5 C74.0001184,14.285393 74.714607,14.9998816 75.5,15 L99.5,15 C100.285393,14.9998816 100.999882,14.285393 101,13.5 L101,10.5 L110,10.5 L110,66 L65,66 L65,10.5 Z M87.5,3 C89.6242898,3 91.3622159,4.41027462 91.859375,6.3515625 C92.0153883,6.99846117 92.6471354,7.49775095 93.3125,7.5 L98,7.5 L98,12 L77,12 L77,7.5 L81.6875,7.5 C82.3528646,7.49775095 82.9846117,6.99846117 83.140625,6.3515625 C83.6377841,4.41027462 85.3757102,3 87.5,3 Z M87.5,0 C84.4506392,0 81.8951231,1.87109375 80.7265625,4.5 L75.5,4.5 C74.714607,4.50011837 74.0001184,5.21460701 74,6 L74,7.5 L63.5,7.5 C62.6600379,7.50224905 62.0004735,8.28491951 62,9 L62,67.5 C62.0001184,68.285393 62.714607,68.9998816 63.5,69 L111.5,69 C112.285393,68.9998816 112.999882,68.285393 113,67.5 L113,9 C112.999882,8.21460701 112.285393,7.5 111.5,7.5 L101,7.5 L101,6 C100.999882,5.21460701 100.285393,4.5 99.5,4.5 L94.2734375,4.5 C93.1047585,1.87097538 90.5493608,0 87.5,0 Z" id="Page-1"></path>
            </g>
        </g>
    </g>
</svg>