<?xml version="1.0" encoding="UTF-8"?>
<svg width="71px" height="79px" viewBox="0 0 71 79" version="1.1" xmlns="http://www.w3.org/2000/svg" xmlns:xlink="http://www.w3.org/1999/xlink">
    <!-- Generator: Sketch 49 (51002) - http://www.bohemiancoding.com/sketch -->
    <title>Page 1</title>
    <desc>Created with Sketch.</desc>
    <defs></defs>
    <g id="GEICO-Weather-Package" stroke="none" stroke-width="1" fill="none" fill-rule="evenodd" stroke-linecap="round">
        <g id="Desktop-HD" transform="translate(-90.000000, -1129.000000)" stroke="#FEFEFE" stroke-width="3.584">
            <g id="Winter-Prep-CTA" transform="translate(31.000000, 1131.000000)">
                <g id="Page-1" transform="translate(61.000000, 0.000000)">
                    <path d="M57.2824427,58.2433591 L57.2824427,73.4762294 C57.2824427,74.3176345 56.5969915,75 55.7511155,75 L1.53132727,75 C0.685451252,75 0,74.3176345 0,73.4762294 L0,7.60485167 C0,6.76344661 0.685451252,6.08108108 1.53132727,6.08108108 L55.7511155,6.08108108 C56.5969915,6.08108108 57.2824427,6.76344661 57.2824427,7.60485167 L57.2824427,27.2139954" id="Stroke-1"></path>
                    <path d="M19.1727578,0 L38.109685,0 C40.7894797,0 42.9618321,2.11598978 42.9618321,4.72625618 L42.9618321,15.2027027 L14.3206107,15.2027027 L14.3206107,4.72625618 C14.3206107,2.11598978 16.492963,0 19.1727578,0 Z" id="Stroke-3"></path>
                    <polyline id="Stroke-5" points="49.610687 26.3513514 49.610687 12.6689189 42.4503817 12.6689189"></polyline>
                    <polyline id="Stroke-7" points="13.927177 12.6689189 6.64885496 12.6689189 6.64885496 67.3986486 49.610687 67.3986486 49.610687 59.7770556"></polyline>
                    <path d="M33.2442748,43.0743243 C33.2442748,33.8388027 40.8006567,26.3513514 50.1224073,26.3513514 C59.4436181,26.3513514 67,33.8388027 67,43.0743243 C67,52.3098459 59.4436181,59.7972973 50.1224073,59.7972973 C40.8006567,59.7972973 33.2442748,52.3098459 33.2442748,43.0743243 Z" id="Stroke-9"></path>
                    <polyline id="Stroke-11" points="44.4961832 42.8283417 47.8925906 46.1148649 55.7480916 38.5135135"></polyline>
                    <path d="M14.3206107,24.8310811 L34.2671756,24.8310811" id="Stroke-13"></path>
                    <path d="M14.3206107,34.9662162 L34.778626,34.9662162" id="Stroke-15"></path>
                    <path d="M14.3206107,45.1013514 L32.221374,45.1013514" id="Stroke-17"></path>
                    <path d="M14.3206107,55.2364865 L27.1068702,55.2364865" id="Stroke-19"></path>
                </g>
            </g>
        </g>
    </g>
</svg>