<?xml version="1.0" encoding="UTF-8"?>
<svg width="74px" height="49px" viewBox="0 0 74 49" version="1.1" xmlns="http://www.w3.org/2000/svg" xmlns:xlink="http://www.w3.org/1999/xlink">
    <!-- Generator: Sketch 49 (51002) - http://www.bohemiancoding.com/sketch -->
    <title>Page 1</title>
    <desc>Created with Sketch.</desc>
    <defs></defs>
    <g id="GEICO-Weather-Package" stroke="none" stroke-width="1" fill="none" fill-rule="evenodd">
        <g id="Desktop-HD" transform="translate(-90.000000, -2519.000000)" fill="#86D8F4">
            <g id="Roadside-CTA" transform="translate(60.000000, 2519.000000)">
                <path d="M88.8038512,44.0998257 C86.0988741,44.0998257 83.9035303,41.904482 83.9035303,39.1995048 C83.9035303,36.4945276 86.0988741,34.2991839 88.8038512,34.2991839 C91.5088284,34.2991839 93.7041722,36.4945276 93.7041722,39.1995048 C93.7041722,41.904482 91.5088284,44.0998257 88.8038512,44.0998257 Z M74.1028884,31.8490234 L74.1028884,30.834657 L86.3536908,18.5838546 L86.3536908,29.7492359 C84.861543,30.1363612 83.5188551,30.8640589 82.3893311,31.8490234 C82.3893311,31.8490234 74.1028884,31.8490234 74.1028884,31.8490234 Z M64.3022466,26.9487025 L69.2025675,26.9487025 L69.2025675,24.498542 L64.3022466,24.498542 L64.3022466,26.9487025 Z M54.5016047,19.598221 C54.5016047,16.8932439 56.6993986,14.6979001 59.4019256,14.6979001 L69.2025675,14.6979001 L69.2025675,22.0483815 L54.5016047,22.0483815 L54.5016047,19.598221 Z M44.7009628,44.0998257 C41.9959857,44.0998257 39.8006419,41.904482 39.8006419,39.1995048 C39.8006419,36.4945276 41.9959857,34.2991839 44.7009628,34.2991839 C47.40594,34.2991839 49.6012837,36.4945276 49.6012837,39.1995048 C49.6012837,41.904482 47.40594,44.0998257 44.7009628,44.0998257 Z M99.8295733,31.8490234 L95.2183713,31.8490234 C94.0912975,30.8640589 92.7461594,30.1363612 91.2540117,29.7492359 L91.2540117,13.6835337 L96.1543326,8.78321274 L96.1543326,16.0797906 C94.0422943,16.6237262 92.4790919,18.5471022 92.4790919,20.8257514 C92.4790919,23.5307286 94.6768859,25.7260724 97.3794129,25.7260724 C100.08194,25.7260724 102.279734,23.5307286 102.279734,20.8257514 L99.8295733,20.8257514 C99.8295733,22.1757899 98.7294513,23.2759119 97.3794129,23.2759119 C96.0293745,23.2759119 94.9292524,22.1757899 94.9292524,20.8257514 C94.9292524,19.475713 96.0293745,18.375591 97.3794129,18.375591 L98.6044931,18.375591 L98.6044931,6.33550243 L103.504814,1.43518149 C101.593689,-0.478393831 98.4893356,-0.478393831 96.5733101,1.43518149 L74.1028884,23.9056031 L74.1028884,9.79757917 L59.4019256,9.79757917 C53.9895211,9.79757917 49.6012837,14.1858166 49.6012837,19.598221 L49.6012837,22.0483815 L39.8006419,22.0483815 C37.9924234,22.0483815 36.4292211,23.0406965 35.5790154,24.498542 L39.8006419,24.498542 L39.8006419,26.9487025 L34.9003209,26.9487025 L34.9003209,29.3988629 L39.8006419,29.3988629 L39.8006419,31.8490234 L33.6752407,31.8490234 C31.6440577,31.8490234 30,33.4955312 30,35.5242641 L30,39.1995048 L34.9003209,39.1995048 C34.9003209,44.6021086 39.2959088,49.0001467 44.7009628,49.0001467 C50.1060168,49.0001467 54.5016047,44.6021086 54.5016047,39.1995048 L79.0032094,39.1995048 C79.0032094,44.6021086 83.3987972,49.0001467 88.8038512,49.0001467 C94.2089052,49.0001467 98.6044931,44.6021086 98.6044931,39.1995048 L103.504814,39.1995048 L103.504814,35.5242641 C103.504814,33.4955312 101.860756,31.8490234 99.8295733,31.8490234 Z" id="Page-1"></path>
            </g>
        </g>
    </g>
</svg>