<?xml version="1.0" encoding="UTF-8"?>
<svg width="74px" height="49px" viewBox="0 0 74 49" version="1.1" xmlns="http://www.w3.org/2000/svg" xmlns:xlink="http://www.w3.org/1999/xlink">
    <!-- Generator: Sketch 49 (51002) - http://www.bohemiancoding.com/sketch -->
    <title>Page 1</title>
    <desc>Created with Sketch.</desc>
    <defs></defs>
    <g id="GEICO-Weather-Package" stroke="none" stroke-width="1" fill="none" fill-rule="evenodd">
        <g id="Mobile-" transform="translate(-146.000000, -2427.000000)" fill="#FFFFFF">
            <g id="Roadside-CTA" transform="translate(72.000000, 2427.000000)">
                <path d="M132.803851,44.0998257 C130.098874,44.0998257 127.90353,41.904482 127.90353,39.1995048 C127.90353,36.4945276 130.098874,34.2991839 132.803851,34.2991839 C135.508828,34.2991839 137.704172,36.4945276 137.704172,39.1995048 C137.704172,41.904482 135.508828,44.0998257 132.803851,44.0998257 Z M118.102888,31.8490234 L118.102888,30.834657 L130.353691,18.5838546 L130.353691,29.7492359 C128.861543,30.1363612 127.518855,30.8640589 126.389331,31.8490234 C126.389331,31.8490234 118.102888,31.8490234 118.102888,31.8490234 Z M108.302247,26.9487025 L113.202567,26.9487025 L113.202567,24.498542 L108.302247,24.498542 L108.302247,26.9487025 Z M98.5016047,19.598221 C98.5016047,16.8932439 100.699399,14.6979001 103.401926,14.6979001 L113.202567,14.6979001 L113.202567,22.0483815 L98.5016047,22.0483815 L98.5016047,19.598221 Z M88.7009628,44.0998257 C85.9959857,44.0998257 83.8006419,41.904482 83.8006419,39.1995048 C83.8006419,36.4945276 85.9959857,34.2991839 88.7009628,34.2991839 C91.40594,34.2991839 93.6012837,36.4945276 93.6012837,39.1995048 C93.6012837,41.904482 91.40594,44.0998257 88.7009628,44.0998257 Z M143.829573,31.8490234 L139.218371,31.8490234 C138.091298,30.8640589 136.746159,30.1363612 135.254012,29.7492359 L135.254012,13.6835337 L140.154333,8.78321274 L140.154333,16.0797906 C138.042294,16.6237262 136.479092,18.5471022 136.479092,20.8257514 C136.479092,23.5307286 138.676886,25.7260724 141.379413,25.7260724 C144.08194,25.7260724 146.279734,23.5307286 146.279734,20.8257514 L143.829573,20.8257514 C143.829573,22.1757899 142.729451,23.2759119 141.379413,23.2759119 C140.029374,23.2759119 138.929252,22.1757899 138.929252,20.8257514 C138.929252,19.475713 140.029374,18.375591 141.379413,18.375591 L142.604493,18.375591 L142.604493,6.33550243 L147.504814,1.43518149 C145.593689,-0.478393831 142.489336,-0.478393831 140.57331,1.43518149 L118.102888,23.9056031 L118.102888,9.79757917 L103.401926,9.79757917 C97.9895211,9.79757917 93.6012837,14.1858166 93.6012837,19.598221 L93.6012837,22.0483815 L83.8006419,22.0483815 C81.9924234,22.0483815 80.4292211,23.0406965 79.5790154,24.498542 L83.8006419,24.498542 L83.8006419,26.9487025 L78.9003209,26.9487025 L78.9003209,29.3988629 L83.8006419,29.3988629 L83.8006419,31.8490234 L77.6752407,31.8490234 C75.6440577,31.8490234 74,33.4955312 74,35.5242641 L74,39.1995048 L78.9003209,39.1995048 C78.9003209,44.6021086 83.2959088,49.0001467 88.7009628,49.0001467 C94.1060168,49.0001467 98.5016047,44.6021086 98.5016047,39.1995048 L123.003209,39.1995048 C123.003209,44.6021086 127.398797,49.0001467 132.803851,49.0001467 C138.208905,49.0001467 142.604493,44.6021086 142.604493,39.1995048 L147.504814,39.1995048 L147.504814,35.5242641 C147.504814,33.4955312 145.860756,31.8490234 143.829573,31.8490234 Z" id="Page-1"></path>
            </g>
        </g>
    </g>
</svg>