<?xml version="1.0" encoding="UTF-8"?>
<svg width="35px" height="39px" viewBox="0 0 35 39" version="1.1" xmlns="http://www.w3.org/2000/svg" xmlns:xlink="http://www.w3.org/1999/xlink">
    <!-- Generator: Sketch 49 (51002) - http://www.bohemiancoding.com/sketch -->
    <title>Page 1</title>
    <desc>Created with Sketch.</desc>
    <defs>
        <polygon id="path-1" points="0 0 35 0 35 39 0 39"></polygon>
    </defs>
    <g id="GEICO-Weather-Package" stroke="none" stroke-width="1" fill="none" fill-rule="evenodd">
        <g id="Mobile-" transform="translate(-73.000000, -2736.000000)">
            <g id="Group-11" transform="translate(39.000000, 2736.000000)">
                <g id="Page-1" transform="translate(34.000000, 0.000000)">
                    <mask id="mask-2" fill="white">
                        <use xlink:href="#path-1"></use>
                    </mask>
                    <g id="Clip-2"></g>
                    <path d="M34.949425,22.3089875 C35.1071482,22.8977164 34.7585152,23.5030989 34.1706189,23.6610642 L29.1986162,24.9947453 L33.9575848,27.7411947 C34.4901006,28.0363605 34.6828888,28.708009 34.3882449,29.2413421 C34.0935315,29.7747449 33.4229122,29.967829 32.8903964,29.6726632 C32.8786385,29.666183 32.8670197,29.659424 32.8555401,29.6525256 L28.1057552,26.9060762 L29.4373926,31.8875912 C29.5951158,32.4763202 29.2464132,33.0817027 28.6585865,33.239668 C28.5657058,33.2646832 28.4700422,33.2776437 28.3738916,33.2782709 C27.8753277,33.2777831 27.4392408,32.9420634 27.3103906,32.4596666 L25.4093635,25.3479548 L18.6024286,21.4112961 L18.6024286,29.2809205 L23.8004061,34.4868758 C24.2345449,34.9140858 24.240737,35.6129096 23.8141121,36.0477148 C23.3875568,36.4825199 22.6898038,36.4887215 22.255665,36.0615115 C22.2513515,36.057261 22.2471075,36.0529408 22.2428635,36.0486903 L18.6024286,32.4026681 L18.6024286,37.8955669 C18.6027764,38.5051303 18.1097088,38.9995817 17.5010796,38.9999998 C16.8923808,39.0003482 16.398687,38.5064542 16.3983392,37.8968908 L16.3983392,37.8955669 L16.3983392,32.4026681 L12.7579042,36.0560067 C12.3308619,36.4903241 11.633109,36.4956895 11.1994572,36.0679221 C10.7658054,35.6402243 10.7604482,34.9414005 11.1875601,34.5070831 C11.1918041,34.502763 11.1960481,34.4984428 11.2003616,34.494262 L16.3983392,29.2883067 L16.3983392,21.4112961 L9.59140419,25.3479548 L7.69037708,32.4578549 C7.5615269,32.9402517 7.12544002,33.2759017 6.62687611,33.2764592 C6.53072549,33.2758321 6.43506189,33.2628715 6.34218123,33.2377866 C5.75435448,33.0798213 5.40565195,32.4745085 5.56337514,31.8857099 C5.56337514,31.8857099 5.56337514,31.8857099 5.56337514,31.8857099 L6.89501249,26.9041949 L2.14522765,29.6543373 C1.62377404,29.9688046 0.946614883,29.8003176 0.632629545,29.2780637 C0.318713781,28.7558794 0.486942575,28.0776113 1.0083266,27.7632137 C1.01980624,27.7562457 1.03142502,27.7495564 1.04318294,27.7430761 L5.79296779,24.996557 L0.820965089,23.6628759 C0.231051134,23.5053984 -0.119669027,22.8988313 0.037567149,22.3080816 C0.194803325,21.7172623 0.800440898,21.3660039 1.39035485,21.5234814 L8.50035211,23.4348122 L15.2962945,19.4999652 L8.50035211,15.5651878 L1.39035485,17.476449 C1.29747419,17.5015339 1.20181059,17.5144944 1.10565997,17.5151215 C0.496961163,17.5165151 0.00243251666,17.0234573 0.00104104608,16.4138939 C-7.21303926e-05,15.9121957 0.336733325,15.4728613 0.820965089,15.3444405 L5.79296779,14.0107594 L1.04318294,11.2587356 C0.521729339,10.944338 0.353570119,10.2660699 0.667485883,9.74388564 C0.973331118,9.23508002 1.62634826,9.05990373 2.14522765,9.34747436 L6.89501249,12.0939238 L5.56156623,7.11240875 C5.38025761,6.53050849 5.70426154,5.91153829 6.28527008,5.72995141 C6.86627863,5.54836452 7.48430029,5.87286572 7.6656089,6.45476599 C7.67437517,6.48298651 7.68202826,6.51148576 7.68849859,6.54026373 L9.59140419,13.6520452 L16.3983392,17.5887039 L16.3983392,9.71900977 L11.2003616,4.51305448 C10.7677534,4.08229081 10.7656662,3.38186433 11.1957698,2.94852249 C11.6258733,2.51525032 12.325296,2.51315991 12.7579042,2.94392359 L16.3983392,6.5973319 L16.3983392,1.10436341 C16.3979913,0.494800063 16.8910589,0.000348585787 17.4997577,1.84239057e-07 C18.1083869,-0.000348217309 18.6020807,0.493476137 18.6024286,1.10303949 L18.6024286,1.10436341 L18.6024286,6.5973319 L22.2428635,2.94392359 C22.6770023,2.51671361 23.3747552,2.5227758 23.8013105,2.95758093 C24.2229957,3.38736908 24.2225783,4.07643766 23.8004061,4.50573805 L18.6024286,9.71900977 L18.6024286,17.5887039 L25.4093635,13.6520452 L27.3103906,6.54026373 C27.444598,5.94568165 28.0346511,5.57261327 28.628322,5.70702659 C29.2219929,5.8414399 29.5944896,6.43232893 29.4602823,7.02691101 C29.4538119,7.05568898 29.4461588,7.08418823 29.4373926,7.11240875 L28.1057552,12.0939238 L32.8555401,9.34559299 C33.3880559,9.0504272 34.0586751,9.24351134 34.3533886,9.77684443 C34.6405185,10.2965202 34.4656107,10.9506092 33.9575848,11.2569239 L29.2077999,14.005185 L34.1798026,15.3388661 C34.768186,15.49495 35.1188366,16.099148 34.9629919,16.6884343 C34.8347678,17.1734093 34.3960372,17.5107317 33.8951078,17.5095471 C33.7989571,17.5089897 33.7032935,17.4959595 33.6104129,17.4709442 L26.5004156,15.5651878 L19.7044733,19.4999652 L26.5004156,23.4348122 L33.6104129,21.5234814 C34.1963611,21.3729022 34.7939977,21.7234638 34.949425,22.3089875" id="Fill-1" fill="#FFFFFF" mask="url(#mask-2)"></path>
                </g>
            </g>
        </g>
    </g>
</svg>