<?xml version="1.0" encoding="UTF-8"?>
<svg width="45px" height="55px" viewBox="0 0 45 55" version="1.1" xmlns="http://www.w3.org/2000/svg" xmlns:xlink="http://www.w3.org/1999/xlink">
    <!-- Generator: Sketch 49 (51002) - http://www.bohemiancoding.com/sketch -->
    <title>Ice Icon</title>
    <desc>Created with Sketch.</desc>
    <defs></defs>
    <g id="GEICO-Weather-Package" stroke="none" stroke-width="1" fill="none" fill-rule="evenodd">
        <g id="Desktop-HD" transform="translate(-322.000000, -2665.000000)" stroke="#FFFFFF" stroke-width="2.45">
            <g id="Weather-Icons" transform="translate(323.000000, 1610.000000)">
                <g id="Ice-Icon" transform="translate(0.000000, 1055.000000)">
                    <g id="Group" stroke-linecap="round">
                        <g transform="translate(10.982759, 1.266274)" id="Shape">
                            <polyline points="0 28.9976801 3.84396552 24.6923476 7.68793103 28.9976801"></polyline>
                            <polyline points="7.68793103 0.126627424 3.84396552 4.43195983 0 0.126627424"></polyline>
                        </g>
                        <polyline id="Shape" points="0.337931034 19.6272507 6.04051724 20.8513158 4.18189655 26.3385042"></polyline>
                        <polyline id="Shape" points="4.35086207 5.14951524 6.125 10.6789127 0.422413793 11.7763504"></polyline>
                        <polyline id="Shape" points="1.4362069 7.89310942 14.8267241 15.828428 24.4577586 21.526662"></polyline>
                        <polyline id="Shape" points="24.4577586 10.3412396 14.8267241 15.828428 1.30948276 23.5527008"></polyline>
                    </g>
                    <ellipse id="Oval" fill="#FFFFFF" fill-rule="nonzero" stroke-linecap="round" cx="30.45" cy="41.4934211" rx="5.95" ry="5.92763158"></ellipse>
                    <path d="M36.3331461,31.8470919 L36.3331461,9.28683304 C36.3331461,6.08830863 33.694382,3.48684211 30.45,3.48684211 C27.205618,3.48684211 24.5668539,6.08830863 24.5668539,9.28683304 L24.5668539,31.8470919 C21.1926966,33.8088535 18.9,37.4764949 18.9,41.6132531 C18.9,47.8823609 24.0477528,53 30.45,53 C36.8089888,53 42,47.9250079 42,41.6132531 C42,37.4764949 39.7073034,33.8088535 36.3331461,31.8470919 Z" id="Shape" stroke-linecap="round"></path>
                    <path d="M30.1,28.5921053 L30.1,35.5657895" id="Shape"></path>
                    <ellipse id="Oval" fill="#FFFFFF" fill-rule="nonzero" stroke-linecap="round" cx="14.7" cy="16.0394737" rx="4.2" ry="4.18421053"></ellipse>
                </g>
            </g>
        </g>
    </g>
</svg>