<?xml version="1.0" encoding="UTF-8"?>
<svg width="46px" height="47px" viewBox="0 0 46 47" version="1.1" xmlns="http://www.w3.org/2000/svg" xmlns:xlink="http://www.w3.org/1999/xlink">
    <!-- Generator: Sketch 49 (51002) - http://www.bohemiancoding.com/sketch -->
    <title>CLOUD</title>
    <desc>Created with Sketch.</desc>
    <defs>
        <polygon id="path-1" points="0.2133 0.0684565217 45.146 0.0684565217 45.146 30.4876739 0.2133 30.4876739"></polygon>
    </defs>
    <g id="GEICO-Weather-Package" stroke="none" stroke-width="1" fill="none" fill-rule="evenodd">
        <g id="Mobile-" transform="translate(-68.000000, -1919.000000)">
            <g id="CLOUD" transform="translate(38.000000, 1919.000000)">
                <g transform="translate(30.000000, 0.000000)">
                    <g id="Group-3">
                        <mask id="mask-2" fill="white">
                            <use xlink:href="#path-1"></use>
                        </mask>
                        <g id="Clip-2"></g>
                        <path d="M40.0163,13.0006087 C40.0603,12.638913 40.0783,12.286413 40.0783,11.9431087 C40.0783,6.63823913 35.8503,2.31832609 30.6583,2.31832609 C29.8263,2.31832609 29.0043,2.43582609 28.1903,2.66163043 C26.8013,1.00743478 24.8203,0.0684565217 22.6793,0.0684565217 C19.4513,0.0684565217 16.6743,2.20082609 15.7453,5.27319565 C14.7543,4.76743478 13.6573,4.50586957 12.5343,4.50586957 C8.5273,4.51404348 5.2633,7.83980435 5.2633,11.9431087 C5.2633,12.2956087 5.2903,12.6481087 5.3433,13.0098043 C2.3363,13.9498043 0.2133,16.8147609 0.2133,20.0945435 C0.2133,23.8821304 3.0263,27.044413 6.6703,27.4510652 C8.0413,29.3586522 10.2083,30.4876739 12.5343,30.4876739 C14.8433,30.4876739 16.9923,29.3760217 18.3633,27.4970435 L37.9023,27.4970435 C41.9003,27.4970435 45.1463,24.1712826 45.1463,20.0945435 C45.1463,16.8147609 43.0233,13.9406087 40.0163,13.0006087 M37.9023,26.0145 L17.5943,26.0145 C17.5943,26.0145 15.9753,29.0061522 12.5343,29.0061522 C9.0933,29.0061522 7.4753,26.0236957 7.4753,26.0236957 L7.1123,26.0053043 C4.0523,25.8152609 1.6633,23.222087 1.6633,20.1037391 C1.6633,14.753913 7.0773,14.1480217 7.0773,14.1480217 C7.0773,14.1480217 6.7143,13.1630652 6.7143,11.9615 C6.7143,8.68069565 9.3233,6.01497826 12.5343,6.01497826 C15.0203,6.01497826 16.7623,7.71413043 16.7623,7.71413043 L16.9483,6.56569565 C17.4083,3.67417391 19.8223,1.57756522 22.6883,1.57756522 C25.9963,1.57756522 27.6683,4.40573913 27.6683,4.40573913 C27.6683,4.40573913 28.8713,3.82743478 30.6673,3.82743478 C35.0633,3.82743478 38.6363,7.47913043 38.6363,11.9706957 C38.6363,13.4706087 38.3713,14.166413 38.3713,14.166413 C38.3713,14.166413 43.7133,14.9531522 43.7133,20.1129348 C43.6963,23.3487826 41.0953,26.0145 37.9023,26.0145" id="Fill-1" fill="#FEFEFE" mask="url(#mask-2)"></path>
                    </g>
                    <path d="M31,6.13043478 L31,7.50422025 C33.5658687,7.50422025 35.655444,9.63922108 35.655444,12.2608696 L37,12.2608696 C37,8.87705892 34.310888,6.13043478 31,6.13043478" id="Fill-4" fill="#FEFEFE"></path>
                    <path d="M35,36.7306285 C35,38.4509434 36.344364,39.8478261 38,39.8478261 C39.655636,39.8478261 41,38.4509434 41,36.7306285 C41,35.2198461 38,31.673913 38,31.673913 C38,31.673913 35,35.2198461 35,36.7306285 M38,38.2897646 C37.1768356,38.2897646 36.5005171,37.5956213 36.5005171,36.7306285 C36.5005171,36.236347 37.204757,35.0769343 38,34.041092 C38.7962771,35.0769343 39.5005171,36.236347 39.5005171,36.7306285 C39.5005171,37.5859506 38.8231644,38.2897646 38,38.2897646" id="Fill-6" fill="#FEFEFE"></path>
                    <path d="M22,36.7306285 C22,38.4509434 23.344364,39.8478261 25,39.8478261 C26.655636,39.8478261 28,38.4509434 28,36.7306285 C28,35.2198461 25,31.673913 25,31.673913 C25,31.673913 22,35.2198461 22,36.7306285 M25,38.2897646 C24.1768356,38.2897646 23.5005171,37.5956213 23.5005171,36.7306285 C23.5005171,36.236347 24.204757,35.0769343 25,34.041092 C25.7962771,35.0769343 26.5005171,36.236347 26.5005171,36.7306285 C26.5005171,37.5859506 25.8231644,38.2897646 25,38.2897646" id="Fill-8" fill="#FEFEFE"></path>
                    <path d="M10,36.7306285 C10,38.4509434 11.344364,39.8478261 13,39.8478261 C14.655636,39.8478261 16,38.4509434 16,36.7306285 C16,35.2198461 13,31.673913 13,31.673913 C13,31.673913 10,35.2198461 10,36.7306285 M13,38.2897646 C12.1768356,38.2897646 11.5005171,37.5956213 11.5005171,36.7306285 C11.5005171,36.236347 12.204757,35.0769343 13,34.041092 C13.7962771,35.0769343 14.5005171,36.236347 14.5005171,36.7306285 C14.5005171,37.5859506 13.8231644,38.2897646 13,38.2897646" id="Fill-10" fill="#FEFEFE"></path>
                    <path d="M29,43.8828025 C29,45.6031173 30.344364,47 32,47 C33.655636,47 35,45.6031173 35,43.8828025 C35,42.3720201 32,38.826087 32,38.826087 C32,38.826087 29,42.3720201 29,43.8828025 M31.9906929,45.4419385 C31.1675284,45.4419385 30.4912099,44.7477952 30.4912099,43.8828025 C30.4912099,43.3885209 31.1954498,42.2291082 31.9906929,41.1932659 C32.78697,42.2291082 33.4912099,43.3885209 33.4912099,43.8828025 C33.4912099,44.7477952 32.8231644,45.4419385 31.9906929,45.4419385" id="Fill-12" fill="#FEFEFE"></path>
                    <path d="M16,43.8828025 C16,45.6031173 17.344364,47 19,47 C20.655636,47 22,45.6031173 22,43.8828025 C22,42.3720201 19,38.826087 19,38.826087 C19,38.826087 16,42.3720201 16,43.8828025 M18.9906929,45.4419385 C18.1675284,45.4419385 17.4912099,44.7477952 17.4912099,43.8828025 C17.4912099,43.3885209 18.1954498,42.2291082 18.9906929,41.1932659 C19.78697,42.2291082 20.4912099,43.3885209 20.4912099,43.8828025 C20.4912099,44.7477952 19.8231644,45.4419385 18.9906929,45.4419385" id="Fill-14" fill="#FEFEFE"></path>
                </g>
            </g>
        </g>
    </g>
</svg>