<?xml version="1.0" encoding="UTF-8"?>
<svg width="51px" height="53px" viewBox="0 0 51 53" version="1.1" xmlns="http://www.w3.org/2000/svg" xmlns:xlink="http://www.w3.org/1999/xlink">
    <!-- Generator: Sketch 49 (51002) - http://www.bohemiancoding.com/sketch -->
    <title>Lightning Icon</title>
    <desc>Created with Sketch.</desc>
    <defs></defs>
    <g id="GEICO-Weather-Package" stroke="none" stroke-width="1" fill="none" fill-rule="evenodd">
        <g id="Desktop-HD" transform="translate(-326.000000, -2011.000000)">
            <g id="Weather-Icons" transform="translate(323.000000, 1610.000000)">
                <g id="Lightning-Icon" transform="translate(5.000000, 403.000000)">
                    <g id="Group-10">
                        <path d="M9.91304348,34.375 C4.45217391,34.375 0,29.9305556 0,24.4791667 C0,19.0277778 4.45217391,14.5833333 9.91304348,14.5833333 C11.9652174,14.5833333 13.8782609,15.2083333 15.4434783,16.2847222" id="Shape" stroke="#FFFFFF" stroke-width="2.45" stroke-linecap="round"></path>
                        <path d="M35.5478261,23.1597222 C36.8,21.7361111 38.6434783,20.8333333 40.6956522,20.8333333 C44.4869565,20.8333333 47.5826087,23.8888889 47.5826087,27.7083333 C47.5826087,31.5277778 44.5217391,34.5833333 40.6956522,34.5833333 L32,34.5833333" id="Shape" stroke="#FFFFFF" stroke-width="2.45" stroke-linecap="round"></path>
                        <path d="M8.20869565,14.7916667 C7.40869565,13.3680556 6.95652174,11.7361111 6.95652174,9.96527778 C6.95652174,4.47916667 11.4086957,0 16.9391304,0 C21.3913043,0 25.1826087,2.91666667 26.4347826,6.94444444" id="Shape" stroke="#FFFFFF" stroke-width="2.45" stroke-linecap="round"></path>
                        <path d="M21.5652174,10.5902778 C23.826087,7.91666667 27.1652174,6.25 30.9217391,6.25 C37.6695652,6.25 43.1652174,11.7013889 43.1652174,18.4722222 C43.1652174,19.3055556 43.0956522,20.1388889 42.9217391,20.9375" id="Shape" stroke="#FFFFFF" stroke-width="2.45" stroke-linecap="round"></path>
                        <path d="M31.3043478,38.8888889 L29.9130435,42.8125" id="Shape" stroke="#FFFFFF" stroke-width="2.45" stroke-linecap="round"></path>
                        <path d="M38.2608696,38.8888889 L36.8695652,42.8125" id="Shape" stroke="#FFFFFF" stroke-width="2.45" stroke-linecap="round"></path>
                        <path d="M26.4347826,45.8333333 L25.0434783,49.7569444" id="Shape" stroke="#FFFFFF" stroke-width="2.45" stroke-linecap="round"></path>
                        <path d="M33.3913043,45.8333333 L32,49.7569444" id="Shape" stroke="#FFFFFF" stroke-width="2.45" stroke-linecap="round"></path>
                        <path d="M28.8154572,33.5069444 L25.3024137,33.5069444 C24.8154572,33.5069444 24.5024137,33.0555556 24.6415441,32.6041667 L26.693718,26.1805556 C26.7632833,25.9375 26.5893702,25.6944444 26.345892,25.6944444 L17.6154572,25.6944444 C17.3371963,25.6944444 17.0589354,25.8680556 16.9545876,26.1458333 L13.2328485,37.7430556 C13.1632833,37.9861111 13.3371963,38.2291667 13.5806746,38.2291667 L17.6502398,38.2291667 C17.9980659,38.2291667 18.2415441,38.5763889 18.1371963,38.9236111 L14.8676311,49.1666667 C14.7632833,49.5138889 15.1806746,49.7569444 15.4241528,49.4791667 L29.093718,34.0972222 C29.3024137,33.8541667 29.1285007,33.5069444 28.8154572,33.5069444 Z" id="Shape" fill="#FFFFFF" fill-rule="nonzero"></path>
                    </g>
                </g>
            </g>
        </g>
    </g>
</svg>