<?xml version="1.0" encoding="UTF-8"?>
<svg width="223px" height="39px" viewBox="0 0 223 39" version="1.1" xmlns="http://www.w3.org/2000/svg" xmlns:xlink="http://www.w3.org/1999/xlink">
    <!-- Generator: Sketch 49 (51002) - http://www.bohemiancoding.com/sketch -->
    <title>GEICO-black Copy 2</title>
    <desc>Created with Sketch.</desc>
    <defs>
        <polygon id="path-1" points="24.7487342 0.466741935 0.0379746835 0.466741935 0.0379746835 39 24.7487342 39 49.4594937 39 49.4594937 0.466741935"></polygon>
    </defs>
    <g id="GEICO-Weather-Package" stroke="none" stroke-width="1" fill="none" fill-rule="evenodd">
        <g id="Desktop-HD" transform="translate(-609.000000, -3587.000000)">
            <g id="Footer/CTA" transform="translate(148.000000, 3587.000000)">
                <g id="GEICO-black-Copy-2" transform="translate(461.000000, 0.000000)">
                    <g id="Group-3">
                        <mask id="mask-2" fill="white">
                            <use xlink:href="#path-1"></use>
                        </mask>
                        <g id="Clip-2"></g>
                        <path d="M0,14.1098226 C0,3.07093548 6.23607595,0.466741935 16.7139241,0.466741935 L34.2132911,0.466741935 C47.4164557,0.466741935 49.25,5.20524194 49.25,12.5479355 L49.25,13.7449839 L37.828481,13.7449839 C37.828481,9.99658065 35.6803797,9.52732258 31.9607595,9.52732258 L19.3335443,9.52732258 C13.4651899,9.52732258 11.9468354,10.9332097 11.9468354,17.3902258 L11.9468354,22.0765161 C11.9468354,28.5335323 13.4651899,29.9406774 19.3335443,29.9406774 L31.7506329,29.9406774 C34.7892405,29.9406774 37.828481,29.4714194 37.828481,25.8261774 L37.828481,24.7322903 L23.3683544,24.7322903 L23.3683544,16.9222258 L49.4594937,16.9222258 L49.4594937,27.6478548 C49.4594937,38.4804194 43.8018987,39 30.7025316,39 L16.7139241,39 C6.23607595,39 0,36.3964355 0,25.3575484 L0,14.1098226" id="Fill-1" fill="#1A1919" mask="url(#mask-2)"></path>
                    </g>
                    <polyline id="Fill-4" fill="#1A1919" points="52 1 93.3218386 1 93.3218386 9.81809991 63.5829469 9.81809991 63.5829469 15.9073314 91.7562689 15.9073314 91.7562689 23.7794574 63.5829469 23.7794574 63.5829469 29.8686889 94 29.8686889 94 39 52 39 52 1"></polyline>
                    <polygon id="Fill-5" fill="#1A1919" points="97 39 109 39 109 1 97 1"></polygon>
                    <path d="M112,14.4542754 C112,3.56815436 118.302387,1 128.896794,1 L142.721095,1 C159.456651,1 161.630815,4.4924418 161.523962,15.0187731 L149.765692,15.0187731 L149.765692,13.992752 C149.765692,11.3216233 147.752127,10.551177 144.256702,10.551177 L131.438864,10.551177 C125.24141,10.551177 124.075629,13.3761468 124.075629,17.9969637 L124.075629,22.0030363 C124.075629,27.3942995 125.24141,29.4494433 130.804146,29.4494433 L143.355813,29.4494433 C148.653017,29.4494433 150.24301,28.9351921 150.24301,24.3131346 L162,24.3131346 L162,27.8049561 C162,34.0715009 159.669077,39 147.85834,39 L128.896794,39 C118.302387,39 112,36.432466 112,25.546345 L112,14.4542754" id="Fill-6" fill="#1A1919"></path>
                    <path d="M175.697145,22.0030363 C175.697145,27.3942995 176.826388,29.4494433 182.213533,29.4494433 L196.785847,29.4494433 C202.171133,29.4494433 203.301615,27.3942995 203.301615,22.0030363 L203.301615,17.9969637 C203.301615,13.3761468 202.171133,10.551177 196.169164,10.551177 L182.828357,10.551177 C176.826388,10.551177 175.697145,13.3761468 175.697145,17.9969637 L175.697145,22.0030363 Z M164,14.4542754 C164,3.56815436 170.106092,1 180.365963,1 L198.632797,1 C208.893288,1 215,3.56815436 215,14.4542754 L215,25.546345 C215,36.432466 208.893288,39 198.632797,39 L180.365963,39 C170.106092,39 164,36.432466 164,25.546345 L164,14.4542754 Z" id="Fill-7" fill="#1A1919"></path>
                    <path d="M219.419455,34.2707965 C219.96527,34.2707965 220.819691,34.3622419 220.819691,33.5646018 C220.819691,32.9610619 220.288038,32.8873156 219.800641,32.8873156 L218.684818,32.8873156 L218.684818,34.2707965 L219.419455,34.2707965 Z M221.250443,36.4513274 L220.682205,36.4513274 L219.564613,34.6466077 L218.684818,34.6466077 L218.684818,36.4513274 L218.206862,36.4513274 L218.206862,32.539233 L219.912754,32.539233 C220.242013,32.539233 220.573042,32.5563422 220.865717,32.7327434 C221.158392,32.8973451 221.305909,33.2442478 221.305909,33.5752212 C221.305909,34.3439528 220.765405,34.6283186 220.069122,34.6466077 L221.250443,36.4513274 Z M222.57928,34.4908555 C222.57928,32.7952802 221.204417,31.4212389 219.509146,31.4212389 C217.804434,31.4212389 216.430751,32.7952802 216.430751,34.4908555 C216.430751,36.2047198 217.804434,37.5781711 219.509146,37.5781711 C221.204417,37.5781711 222.57928,36.2047198 222.57928,34.4908555 Z M216,34.4908555 C216,32.5669617 217.566046,31 219.509146,31 C221.441625,31 223,32.5669617 223,34.4908555 C223,36.4330383 221.441625,38 219.509146,38 C217.566046,38 216,36.4330383 216,34.4908555 Z" id="Fill-8" fill="#1A1919"></path>
                </g>
            </g>
        </g>
    </g>
</svg>