<?xml version="1.0" encoding="UTF-8"?>
<svg width="19px" height="22px" viewBox="0 0 19 22" version="1.1" xmlns="http://www.w3.org/2000/svg" xmlns:xlink="http://www.w3.org/1999/xlink">
    <!-- Generator: Sketch 49 (51002) - http://www.bohemiancoding.com/sketch -->
    <title>Fill 4</title>
    <desc>Created with Sketch.</desc>
    <defs></defs>
    <g id="GEICO-Weather-Package" stroke="none" stroke-width="1" fill="none" fill-rule="evenodd">
        <g id="Desktop-HD" transform="translate(-113.000000, -1305.000000)" fill="#000000">
            <g id="Winter-Prep-CTA" transform="translate(31.000000, 1131.000000)">
                <g id="Group-11" transform="translate(67.000000, 162.000000)">
                    <g id="Page-1-Copy-2" transform="translate(15.000000, 12.000000)">
                        <path d="M3.0422605,22 C1.19382823,22 0,20.5895878 0,18.4082534 L0,3.59174657 C0,1.41041217 1.19382823,0 3.0422605,0 C3.83343661,0 4.66817449,0.266178021 5.52174991,0.788593805 L16.8713595,7.74787891 C18.2429669,8.58838295 18.9988227,9.74255736 19,10.9994478 C19,12.2552337 18.2429669,13.411617 16.8713595,14.2532256 L5.52292725,21.2114062 C4.66817449,21.7349265 3.83343661,22 3.0422605,22 M3.0422605,1.51865053 C1.75895402,1.51865053 1.61884992,2.96882374 1.61884992,3.59174657 L1.61884992,18.4082534 C1.61884992,19.0311763 1.75777668,20.4813495 3.0422605,20.4813495 C3.50731193,20.4813495 4.05713223,20.293589 4.63638617,19.9401576 L15.9859958,12.9808725 C16.8843103,12.428636 17.3799727,11.7261911 17.3799727,10.9994478 C17.3799727,10.2727045 16.8854877,9.56915508 15.9859958,9.01802299 L4.63638617,2.05984236 C4.05830958,1.70641096 3.50731193,1.51865053 3.0422605,1.51865053" id="Fill-4"></path>
                    </g>
                </g>
            </g>
        </g>
    </g>
</svg>