<?xml version="1.0" encoding="UTF-8"?>
<svg width="72px" height="76px" viewBox="0 0 72 76" version="1.1" xmlns="http://www.w3.org/2000/svg" xmlns:xlink="http://www.w3.org/1999/xlink">
    <!-- Generator: Sketch 49 (51002) - http://www.bohemiancoding.com/sketch -->
    <title>Rain Icon</title>
    <desc>Created with Sketch.</desc>
    <defs></defs>
    <g id="GEICO-Weather-Package" stroke="none" stroke-width="1" fill="none" fill-rule="evenodd" stroke-linecap="round">
        <g id="Desktop-HD" transform="translate(-325.000000, -1591.000000)" stroke="#FFFFFF" stroke-width="3.5">
            <g id="Weather-Icons" transform="translate(322.000000, 1593.000000)">
                <g id="Rain-Icon" transform="translate(5.000000, 0.000000)">
                    <g id="Group-2">
                        <path d="M50.45,34.05 C52.25,32 54.9,30.7 57.85,30.7 C63.3,30.7 67.75,35.1 67.75,40.6 C67.75,46.1 63.35,50.5 57.85,50.5 L14.25,50.5 C6.4,50.5 0,44.1 0,36.25 C0,28.4 6.4,22 14.25,22 C17.2,22 19.95,22.9 22.2,24.45" id="Shape-Copy"></path>
                        <path d="M10.8,21.3 C9.65,19.25 9,16.9 9,14.35 C9,6.45 15.4,0 23.35,0 C29.75,0 35.2,4.2 37,10" id="Shape-Copy-2"></path>
                        <path d="M30,15.25 C33.25,11.4 38.05,9 43.45,9 C53.15,9 61.05,16.85 61.05,26.6 C61.05,27.8 60.95,29 60.7,30.15" id="Shape-Copy-3"></path>
                        <path d="M24,56 L22,61.7" id="Shape-Copy-4"></path>
                        <path d="M34,56 L32,61.7" id="Shape-Copy-5"></path>
                        <path d="M44,56 L42,61.7" id="Shape-Copy-6"></path>
                        <path d="M54,56 L52,61.7" id="Shape-Copy-7"></path>
                        <path d="M27,66 L25,71.7" id="Shape-Copy-8"></path>
                        <path d="M37,66 L35,71.7" id="Shape-Copy-9"></path>
                        <path d="M47,66 L45,71.7" id="Shape-Copy-10"></path>
                    </g>
                </g>
            </g>
        </g>
    </g>
</svg>