<?xml version="1.0" encoding="UTF-8"?>
<svg width="45px" height="46px" viewBox="0 0 45 46" version="1.1" xmlns="http://www.w3.org/2000/svg" xmlns:xlink="http://www.w3.org/1999/xlink">
    <!-- Generator: Sketch 49 (51002) - http://www.bohemiancoding.com/sketch -->
    <title>Group 6</title>
    <desc>Created with Sketch.</desc>
    <defs>
        <polygon id="path-1" points="0.0337944664 0.729253333 43.918323 0.729253333 43.918323 28.19032 0.0337944664 28.19032"></polygon>
        <polygon id="path-3" points="0.680829099 0.6362 18.6491818 0.6362 18.6491818 22 0.680829099 22"></polygon>
    </defs>
    <g id="GEICO-Weather-Package" stroke="none" stroke-width="1" fill="none" fill-rule="evenodd">
        <g id="Mobile-" transform="translate(-69.000000, -1253.000000)">
            <g id="THUNDERBOLT" transform="translate(38.000000, 1253.000000)">
                <g id="Group-6" transform="translate(31.000000, 0.000000)">
                    <g id="Group-3" transform="translate(0.584416, 0.000000)">
                        <mask id="mask-2" fill="white">
                            <use xlink:href="#path-1"></use>
                        </mask>
                        <g id="Clip-2"></g>
                        <path d="M13.216533,28.19032 C13.7089667,28.19032 14.1077414,27.7910867 14.1077414,27.2980867 C14.1077414,26.8060533 13.7089667,26.40682 13.216533,26.40682 L7.79783173,26.40682 C4.49949181,26.40682 1.81621118,23.7204533 1.81621118,20.41832 C1.81621118,17.11522 4.49949181,14.4288533 7.79783173,14.4288533 C8.30281762,14.4288533 8.8232524,14.49942 9.34465274,14.63862 C9.60535291,14.70822 9.88246753,14.6569867 10.0987521,14.4984533 C10.3160023,14.3408867 10.4502146,14.0924533 10.4646979,13.82372 C10.7958837,7.48142 16.0301637,2.51275333 22.3806268,2.51275333 C27.1282665,2.51275333 31.4220949,5.33058667 33.3213439,9.69122 C33.4613495,10.01312 33.7780519,10.2228867 34.1295144,10.2257867 C38.5450028,10.2673533 42.1368718,13.89622 42.1368718,18.3148533 C42.1368718,22.7769867 38.5112084,26.40682 34.0532355,26.40682 L28.8797854,26.40682 C28.3883173,26.40682 27.9895426,26.8060533 27.9895426,27.2980867 C27.9895426,27.7910867 28.3883173,28.19032 28.8797854,28.19032 L34.0532355,28.19032 C39.493179,28.19032 43.9192885,23.7600867 43.9192885,18.3148533 C43.9192885,13.1141867 39.8417448,8.80962 34.7185037,8.46452 C32.4301355,3.74718667 27.6477357,0.729253333 22.3806268,0.729253333 C15.4266911,0.729253333 9.63721626,5.91445333 8.77594015,12.71012 C8.44765104,12.66662 8.12129305,12.6453533 7.79783173,12.6453533 C3.51752117,12.6453533 0.0337944664,16.13212 0.0337944664,20.41832 C0.0337944664,24.7035533 3.51752117,28.19032 7.79783173,28.19032 L13.216533,28.19032 Z" id="Fill-1" fill="#FEFEFE" mask="url(#mask-2)"></path>
                    </g>
                    <g id="Fill-4" transform="translate(12.000000, 5.000000)">
                        <path d="M27.2109285,14.0728942 C27.2109285,14.5851629 27.6230375,15 28.1319372,15 C28.6398391,15 29.0519481,14.5851629 29.0519481,14.0728942 C29.0519481,10.7552016 26.3697473,8.03013345 23.0718776,8 L23.0638949,8 C22.5589865,8 22.1478754,8.40881045 22.1428862,8.91806572 C22.1388948,9.42932989 22.5470124,9.84818482 23.0549143,9.85320706 C25.3469586,9.87430047 27.2109285,11.7676855 27.2109285,14.0728942" fill="#FEFEFE"></path>
                        <path d="M17.4712913,6.47043561 C17.6173612,6.80213027 17.9452931,7 18.28967,7 C18.4086541,7 18.5295729,6.97610269 18.645655,6.92639629 C19.0974078,6.73139424 19.3044208,6.21234467 19.1070813,5.76594292 C17.5622222,2.26355319 14.0681516,0 10.204553,0 C9.71217149,0 9.31168831,0.394783559 9.31168831,0.88228868 C9.31168831,1.36883791 9.71217149,1.76457736 10.204553,1.76457736 C13.3571488,1.76457736 16.209866,3.61136146 17.4712913,6.47043561" id="Fill-6" fill="#FEFEFE"></path>
                        <g id="Group-10" stroke-width="1" transform="translate(0.428571, 19.000000)">
                            <mask id="mask-4" fill="white">
                                <use xlink:href="#path-3"></use>
                            </mask>
                            <g id="Clip-9"></g>
                            <path d="M6.01327792,21.8522 C6.16527792,21.9522 6.33603117,22.0002 6.50678442,22.0002 C6.76340779,22.0002 7.01608312,21.8912 7.19473247,21.6822 L18.4259532,8.5842 C18.6598753,8.3112 18.7151481,7.9252 18.5670961,7.5962 C18.4200312,7.2672 18.0953039,7.0562 17.7389922,7.0562 L11.3836156,7.0562 L14.8036156,2.0882 C14.9970701,1.8072 15.0207584,1.4392 14.8638234,1.1342 C14.7068883,0.8292 14.3959792,0.6382 14.0564468,0.6382 L9.3404987,0.6362 L9.33951169,0.6362 C9.06314805,0.6362 8.80158961,0.7632 8.62886234,0.9812 L0.88081039,10.7732 C0.661693506,11.0502 0.619251948,11.4292 0.770264935,11.7492 C0.921277922,12.0692 1.24107013,12.2732 1.59145974,12.2732 L9.50631688,12.2732 L5.68065455,20.6922 C5.49016104,21.1082 5.63229091,21.6032 6.01327792,21.8522 Z M3.4884987,10.4282 L9.77675844,2.4812 L12.3114078,2.4822 L8.89042078,7.4512 C8.69696623,7.7332 8.67327792,8.1012 8.83021299,8.4062 C8.98714805,8.7102 9.29805714,8.9012 9.63758961,8.9012 L15.7412779,8.9012 L10.0008104,15.5962 L11.7547325,11.7362 C11.8850182,11.4502 11.8623169,11.1182 11.6945247,10.8532 C11.5267325,10.5882 11.2385247,10.4282 10.9276156,10.4282 L3.4884987,10.4282 Z" id="Fill-8" fill="#FEFEFE" mask="url(#mask-4)"></path>
                        </g>
                    </g>
                </g>
            </g>
        </g>
    </g>
</svg>