<?xml version="1.0" encoding="UTF-8"?>
<svg width="45px" height="46px" viewBox="0 0 45 46" version="1.1" xmlns="http://www.w3.org/2000/svg" xmlns:xlink="http://www.w3.org/1999/xlink">
    <!-- Generator: Sketch 49 (51002) - http://www.bohemiancoding.com/sketch -->
    <title>SNOW</title>
    <desc>Created with Sketch.</desc>
    <defs>
        <polygon id="path-1" points="0.0193295455 0.647321429 44.5121591 0.647321429 44.5121591 28.5836429 0.0193295455 28.5836429"></polygon>
    </defs>
    <g id="GEICO-Weather-Package" stroke="none" stroke-width="1" fill="none" fill-rule="evenodd" opacity="0.900000036">
        <g id="Mobile-" transform="translate(-72.000000, -3324.000000)">
            <g id="SNOW-2" transform="translate(39.000000, 3324.000000)">
                <g id="SNOW" transform="translate(33.000000, 0.000000)">
                    <g id="Group-12">
                        <g id="Group-5">
                            <mask id="mask-2" fill="white">
                                <use xlink:href="#path-1"></use>
                            </mask>
                            <g id="Clip-4"></g>
                            <path d="M20.4861477,28.5836429 L8.91807955,28.5836429 C4.01103409,28.5836429 0.0193295455,24.54125 0.0193295455,19.5718929 C0.0193295455,15.11625 3.16523864,11.40425 7.435125,10.6875357 C8.357625,7.44367857 11.3173977,5.15267857 14.7016023,5.15267857 C14.871375,5.15267857 15.0431932,5.15992857 15.2283068,5.17442857 C17.841375,2.29203571 21.5150114,0.647321429 25.3809205,0.647321429 C31.645125,0.647321429 37.1811477,5.02528571 38.732625,11.1297857 C42.2119432,12.441 44.5130795,15.7697857 44.5130795,19.5718929 L42.7325114,19.5718929 C42.7325114,16.3901786 40.7177386,13.6217143 37.7180795,12.6833571 L37.2220568,12.528 L37.1116023,12.0142857 C35.9191023,6.47114286 30.9844432,2.44946429 25.3809205,2.44946429 C21.8770568,2.44946429 18.5542159,4.00096429 16.2633068,6.70728571 L15.9493295,7.07910714 L15.4706932,7.01489286 C15.2180795,6.97967857 14.9634205,6.95585714 14.7016023,6.95585714 C11.946375,6.95585714 9.561375,8.94028571 9.02853409,11.6735357 L8.89967045,12.3332857 L8.23898864,12.3964643 C4.56739773,12.7486071 1.798875,15.8329643 1.798875,19.5718929 C1.798875,23.5469643 4.99285227,26.7815 8.91807955,26.7815 L20.4861477,26.7815 L20.4861477,28.5836429 Z" id="Fill-3" fill="#000000" mask="url(#mask-2)"></path>
                        </g>
                        <path d="M12.0812727,13.1114179 C11.0933182,12.6153107 10.0296818,12.3625964 8.91797727,12.3625964 L8.91797727,10.5604536 C10.3068409,10.5604536 11.6374091,10.8753107 12.8728636,11.497775 L12.0812727,13.1114179 Z" id="Fill-6" fill="#000000"></path>
                        <path d="M38.2435568,12.8698893 C36.851625,12.3085321 35.2807159,12.2122107 33.8284432,12.5902464 L33.3835568,10.8450679 C35.2019659,10.369675 37.1594659,10.492925 38.9021932,11.1941036 L38.2435568,12.8698893 Z" id="Fill-8" fill="#000000"></path>
                        <path d="M18.4126705,8.51812857 C17.3408523,7.51037857 16.036875,6.95523571 14.2573295,6.95523571 L14.2573295,5.15309286 C16.9266477,5.15309286 18.1099432,5.87912857 19.5121023,7.19759286 L18.4126705,8.51812857 Z" id="Fill-10" fill="#000000"></path>
                    </g>
                    <polygon id="Fill-13" fill="#000000" points="35 35 37 35 37 20 35 20"></polygon>
                    <polygon id="Fill-14" fill="#000000" points="29.9103067 23 43 29.5335263 42.0896933 31 29 24.4674385"></polygon>
                    <polygon id="Fill-15" fill="#000000" points="42.0896234 23 43 24.4664737 29.9103766 31 29 29.5335263"></polygon>
                    <polygon id="Fill-16" fill="#000000" points="17 39 19 39 19 30 17 30"></polygon>
                    <polygon id="Fill-17" fill="#000000" points="14.8010415 32 22 36.4147401 21.1980116 38 14 33.5852599"></polygon>
                    <polygon id="Fill-18" fill="#000000" points="21.1989585 32 22 33.5852599 14.8019884 38 14 36.4147401"></polygon>
                    <polygon id="Fill-19" fill="#000000" points="27 46 29 46 29 39 27 39"></polygon>
                    <polygon id="Fill-20" fill="#000000" points="24.8547921 40 31 43.4508765 30.1441975 45 24 41.5491235"></polygon>
                    <polygon id="Fill-21" fill="#000000" points="30.1452079 40 31 41.5491235 24.8558025 45 24 43.4508765"></polygon>
                </g>
            </g>
        </g>
    </g>
</svg>