<?xml version="1.0" standalone="no"?>
<!DOCTYPE svg PUBLIC "-//W3C//DTD SVG 1.1//EN" "http://www.w3.org/Graphics/SVG/1.1/DTD/svg11.dtd">
<svg xmlns="http://www.w3.org/2000/svg"><metadata>This SVG WebFont was generated by YouWorkForThem.
© 2017 Connary Fagen</metadata><defs><font horiz-adv-x="843" id="ywftsvg"><font-face ascent="1638" bbox="-348 -640 2662 1971" cap-height="1570" descent="-410" font-family="" font-stretch="normal" font-weight="700" panose-1="0 0 8 0 0 0 0 0 0 0" underline-position="0" underline-thickness="0" unicode-range="U+0020-25CA" units-per-em="2048" x-height="1570"/><missing-glyph d="M749 1570v-1826h-578v1826h578zM608 1447h-301v-59h118v-69h-120v-59h303v59h-120v69h120v59zM488 1212h-183v-190h303v62h-120v128zM425 1150v-66h-60v66h60zM608 973h-303v-60h120v-68h-120v-60h183v128h120v60zM608 864h-60v-122h-243v-61h303v183zM608 640h-183v-102 h63v42h60v-85h-183v145h-60v-207h303v207zM608 324h-303v-206h303v206zM548 265v-86h-183v86h183zM608 77h-303v-62h128l-128 -85v-60h303v60h-186l128 85h58v62z" horiz-adv-x="913"/><glyph d="M749 1570v-1826h-578v1826h578zM608 1447h-301v-59h118v-69h-120v-59h303v59h-120v69h120v59zM488 1212h-183v-190h303v62h-120v128zM425 1150v-66h-60v66h60zM608 973h-303v-60h120v-68h-120v-60h183v128h120v60zM608 864h-60v-122h-243v-61h303v183zM608 640h-183v-102 h63v42h60v-85h-183v145h-60v-207h303v207zM608 324h-303v-206h303v206zM548 265v-86h-183v86h183zM608 77h-303v-62h128l-128 -85v-60h303v60h-186l128 85h58v62z" glyph-name=".notdef" horiz-adv-x="913"/><glyph glyph-name="glyph1" horiz-adv-x="0"/><glyph glyph-name="glyph2" horiz-adv-x="682"/><glyph glyph-name="space" horiz-adv-x="273" unicode=" "/><glyph d="M96 430l-47 1140h315l-47 -1140h-221zM206.5 -27q-68.5 0 -116 47.5t-47.5 114t47.5 114.5t116 48t116 -48t47.5 -114.5t-47.5 -114t-116 -47.5z" glyph-name="exclam" horiz-adv-x="413" unicode="!"/><glyph d="M108 819l-23 751h290l-22 -751h-245zM488 819l-22 751h290l-22 -751h-246z" glyph-name="quotedbl" horiz-adv-x="841" unicode="&quot;"/><glyph d="M998 998h-119v-426h119v-273h-119v-299h-290v299h-137v-299h-290v299h-119v273h119v426h-119v273h119v299h290v-299h137v299h290v-299h119v-273zM589 572v426h-137v-426h137z" glyph-name="numbersign" horiz-adv-x="1041" unicode="#"/><glyph d="M357 1022q0 -51 44 -86t107.5 -61.5t126.5 -60.5t107.5 -105.5t44.5 -177.5v-65q0 -261 -244 -307v-159h-239v159q-244 46 -244 324v123h297v-121q0 -82 66 -82q65 0 65 82v61q0 51 -44.5 86t-107.5 61.5t-125.5 60.5t-106.5 106t-44 178v65q0 259 244 307v160h239v-160 q241 -49 240 -325v-122h-297v121q0 82 -64.5 82t-64.5 -82v-62z" glyph-name="dollar" horiz-adv-x="837" unicode="$"/><glyph d="M401 1592q169 0 259.5 -81t90.5 -270v-294q0 -189 -90.5 -270t-259.5 -81t-259.5 81t-90.5 270v294q0 189 90.5 270t259.5 81zM471 0l686 1570h290l-686 -1570h-290zM466 1253q0 84 -65 83.5t-65 -83.5v-318q0 -84 65 -83.5t65 83.5v318zM1517 -22q-169 0 -259.5 81 t-90.5 270v294q0 189 90.5 270.5t259.5 81.5t259.5 -81.5t90.5 -270.5v-294q0 -189 -90.5 -270t-259.5 -81zM1452 317q0 -84 65 -83.5t65 83.5v318q0 84 -65 84t-65 -84v-318z" glyph-name="percent" horiz-adv-x="1918" unicode="%"/><glyph d="M797 905v-589q0 -179 -94 -257t-271 -78q-372 0 -372 335v216q0 174 135 243v13q-121 68 -122 222v258q0 169 92.5 243t266.5 74t266 -74t92 -243v-229h-293v215q0 75 -65 75t-65 -75v-274q0 -77 65 -77zM498 312v345h-66q-67 0 -67 -77v-268q0 -75 66.5 -75t66.5 75z " glyph-name="ampersand" horiz-adv-x="848" unicode="&amp;"/><glyph d="M108 819l-23 751h290l-22 -751h-245z" glyph-name="quotesingle" horiz-adv-x="460" unicode="'"/><glyph d="M643 -179q-92 0 -168.5 17t-134 43.5t-102.5 73.5t-75 94t-51.5 118.5t-33 133t-17.5 152t-8 160.5t-2 172t2 172t8 160.5t17.5 151t33 132.5t51.5 119.5t75 94.5t102.5 73.5t134 43.5t168.5 17v-256q-65 0 -112.5 -20.5t-79 -66.5t-51 -99.5t-29 -142.5t-13 -171.5 t-3.5 -207.5q0 -106 1.5 -180t8.5 -153.5t20 -132.5t34 -102.5t52 -77.5t73.5 -45t98.5 -17v-256z" glyph-name="parenleft" horiz-adv-x="677" unicode="("/><glyph d="M34 -179v256q56 0 99 17t73.5 45t52 77.5t34 102.5t19.5 132.5t9 153.5t2 180q0 125 -3.5 207.5t-13 171.5t-29 142.5t-51 99.5t-79.5 66.5t-113 20.5v256q92 0 169 -17t134 -43.5t102.5 -73.5t75 -94.5t51 -119.5t33.5 -132.5t18 -151t7.5 -160.5t1.5 -172t-1.5 -172 t-7.5 -160.5t-18 -152t-33.5 -133t-51 -118.5t-75 -94t-102.5 -73.5t-134 -43.5t-169 -17z" glyph-name="parenright" horiz-adv-x="677" unicode=")"/><glyph d="M969 1260l-285 -146l285 -145l-95 -165l-268 174l17 -319h-191l17 319l-268 -174l-96 165l285 145l-285 146l96 165l268 -174l-17 319h191l-17 -319l268 174z" glyph-name="asterisk" horiz-adv-x="1054" unicode="*"/><glyph d="M1015 930v-290h-315v-316h-307v316h-316v290h316v316h307v-316h315z" glyph-name="plus" horiz-adv-x="1092" unicode="+"/><glyph d="M118 -338q44 167 41 338h-99v256h341v-96q0 -341 -96 -498h-187z" glyph-name="comma" horiz-adv-x="460" unicode=","/><glyph d="M51 649v273h478v-273h-478z" glyph-name="hyphen" horiz-adv-x="580" unicode="-"/><glyph d="M215 -27q-68 0 -116 47.5t-48 114t48 114.5t116 48t116 -48t48 -114.5t-48 -114t-116 -47.5z" glyph-name="period" horiz-adv-x="430" unicode="."/><glyph d="M68 0l156 1570h295l-169 -1570h-282z" glyph-name="slash" horiz-adv-x="587" unicode="/"/><glyph d="M421.5 1585q177.5 0 274 -77.5t96.5 -258.5v-928q0 -181 -96.5 -258.5t-274 -77.5t-274 77.5t-96.5 258.5v928q0 181 96.5 258.5t274 77.5zM486 1248q0 82 -64.5 81.5t-64.5 -81.5v-925q0 -82 64.5 -82t64.5 82v925z" glyph-name="zero" unicode="0"/><glyph d="M230 1570h306v-1570h-306v1231q-63 -87 -187 -88v289q53 0 104.5 35t82.5 103z" glyph-name="one" horiz-adv-x="587" unicode="1"/><glyph d="M802 988q0 -85 -33 -157t-82.5 -116t-107.5 -90t-107.5 -83t-83 -89t-33.5 -112v-85h439v-256h-734v364q0 106 45 189.5t109 137t128 100.5t109.5 104t45.5 124v229q0 82 -65 81.5t-65 -81.5v-260h-304v263q0 179 95.5 256.5t273.5 77.5q179 0 274.5 -77.5t95.5 -256.5 v-263z" glyph-name="two" horiz-adv-x="853" unicode="2"/><glyph d="M799 1017q0 -157 -135 -225v-14q135 -68 135 -225v-234q0 -179 -95.5 -256.5t-275 -77.5t-274 77.5t-94.5 256.5v217h304v-213q0 -82 64.5 -82t64.5 82v232q0 61 -27 85t-85 24h-76v242h76q58 0 85 24t27 85v233q0 82 -64.5 81.5t-64.5 -81.5v-214h-304v217 q0 179 94.5 256.5t274 77.5t275 -77.5t95.5 -256.5v-234z" glyph-name="three" horiz-adv-x="849" unicode="3"/><glyph d="M905 591v-256h-115v-335h-305v335h-442v256l237 979h510v-979h115zM314 591h171v694h-22z" glyph-name="four" horiz-adv-x="955" unicode="4"/><glyph d="M497 1075q131 0 212 -77.5t81 -251.5v-423q0 -179 -95.5 -257t-274.5 -78t-274 77.5t-95 257.5v208h304v-202q0 -85 65 -85t65 85v401q0 85 -65 85.5t-65 -85.5v-81h-304v921h707v-256h-403v-290q52 51 142 51z" glyph-name="five" horiz-adv-x="841" unicode="5"/><glyph d="M421.5 -15q-179.5 0 -275 77.5t-95.5 256.5v946q0 179 95 256.5t274 77.5q177 0 268.5 -77.5t91.5 -256.5v-224h-297v220q0 82 -63 82q-65 0 -65 -82l2 -356q55 55 148 54q121 0 202 -71t81 -241v-328q0 -179 -93.5 -256.5t-273 -77.5zM420 241q65 0 65 82v295 q0 82 -65 82t-65 -82v-295q0 -82 65 -82z" glyph-name="six" horiz-adv-x="839" unicode="6"/><glyph d="M43 1570h699v-256l-315 -1314h-301l326 1314h-409v256z" glyph-name="seven" horiz-adv-x="785" unicode="7"/><glyph d="M423 -15q-181 0 -276.5 77.5t-95.5 256.5v242q0 171 135 243v13q-121 73 -121 226v225q0 169 92 243t266 74t266.5 -74t92.5 -243v-225q0 -152 -122 -226v-13q135 -72 135 -243v-242q0 -179 -95.5 -256.5t-276.5 -77.5zM423 922q65 0 65 83v243q0 82 -65 81.5t-65 -81.5 v-243q0 -83 65 -83zM423.5 241q66.5 0 66.5 82v295q0 82 -66.5 82t-66.5 -82v-295q0 -82 66.5 -82z" glyph-name="eight" horiz-adv-x="846" unicode="8"/><glyph d="M418 1585q179 0 274.5 -77.5t95.5 -256.5v-946q0 -179 -94.5 -256.5t-273.5 -77.5q-177 0 -268.5 77.5t-91.5 256.5v224h297v-220q0 -82 63 -82q65 0 65 82l-2 357q-55 -55 -148 -55q-121 0 -202.5 71t-81.5 241v328q0 179 94 256.5t273 77.5zM420 1329q-65 0 -65 -81 v-296q0 -82 65 -82t65 82v296q0 81 -65 81z" glyph-name="nine" horiz-adv-x="839" unicode="9"/><glyph d="M215 1022q-68 0 -116 48t-48 114.5t48 114.5t116 48t116 -48t48 -114.5t-48 -114.5t-116 -48zM215 224q-68 0 -116 47.5t-48 114t48 114.5t116 48t116 -48t48 -114.5t-48 -114t-116 -47.5z" glyph-name="colon" horiz-adv-x="430" unicode=":"/><glyph d="M244 1022q-68 0 -116 48t-48 114.5t48 114.5t116 48t116 -48t48 -114.5t-48 -114.5t-116 -48zM109 -85q44 167 41 338h-99v256h342v-96q0 -341 -96 -498h-188z" glyph-name="semicolon" horiz-adv-x="459" unicode=";"/><glyph d="M529 224l-461 392v338l461 393v-308l-266 -242v-24l266 -242v-307z" glyph-name="less" horiz-adv-x="597" unicode="&lt;"/><glyph d="M51 788v291h912v-291h-912zM51 353v290h912v-290h-912z" glyph-name="equal" horiz-adv-x="1013" unicode="="/><glyph d="M68 224v307l267 242v24l-267 242v308l461 -393v-338z" glyph-name="greater" horiz-adv-x="597" unicode=">"/><glyph d="M60 1004v245q0 181 96.5 258.5t274 77.5t273.5 -77.5t96 -258.5v-210q0 -101 -24.5 -170t-59.5 -102t-70 -58.5t-60 -64t-25 -94.5v-120h-298v154q0 96 24 159t58 92t68 52t58 59.5t24 92.5v209q0 82 -65 81.5t-65 -81.5v-244h-305zM411.5 -27q-68.5 0 -116.5 47.5 t-48 114t48 114.5t116.5 48t116 -48t47.5 -114.5t-47.5 -114t-116 -47.5z" glyph-name="question" horiz-adv-x="851" unicode="?"/><glyph d="M570 1585q207 0 300.5 -100.5t93.5 -315.5v-662q0 -106 -54.5 -153t-160.5 -47h-135q-104 0 -150 45.5t-46 154.5v302q0 109 46 154.5t150 45.5h111v160q0 177 -155 178h-90q-155 0 -156 -178v-689q0 -131 55.5 -193.5t190.5 -62.5h97v-239h-150q-237 0 -351.5 104 t-114.5 329v751q0 416 429 416h90zM688 521q38 0 37 42v232h-54q-39 0 -40 -42v-190q0 -43 38 -42h19z" glyph-name="at" horiz-adv-x="1015" unicode="@"/><glyph d="M579 0l-24 270h-202l-24 -270h-295l155 1570h530l155 -1570h-295zM374 526h160l-66 768h-28z" glyph-name="A" horiz-adv-x="907" unicode="A"/><glyph d="M669 800q125 -63 125 -230v-234q0 -189 -61 -262.5t-245 -73.5h-437v1570h434q177 0 237 -73.5t60 -262.5v-207q0 -79 -25 -129t-88 -81v-17zM410 1314h-53v-415h53q43 0 59 18t16 66v248q0 48 -16 65.5t-59 17.5zM488 341v273q0 48 -16 66t-59 18h-56v-440h56 q43 0 59 17.5t16 65.5z" glyph-name="B" horiz-adv-x="844" unicode="B"/><glyph d="M792 567v-250q0 -181 -96.5 -258.5t-274 -77.5t-274 78t-96.5 258v932q0 181 96.5 258.5t274 77.5t274 -77.5t96.5 -258.5v-245h-306v244q0 82 -64.5 81.5t-64.5 -81.5v-929q0 -82 64.5 -82t64.5 82v248h306z" glyph-name="C" unicode="C"/><glyph d="M483 1570q186 0 247.5 -73.5t61.5 -262.5v-898q0 -189 -61.5 -262.5t-247.5 -73.5h-432v1570h432zM486 340v891q0 48 -16 65.5t-59 17.5h-54v-1058h54q43 0 59 18t16 66z" glyph-name="D" unicode="D"/><glyph d="M589 1314h-232v-399h227v-253h-227v-406h232v-256h-538v1570h538v-256z" glyph-name="E" horiz-adv-x="640" unicode="E"/><glyph d="M589 1314h-231v-413h231v-252h-231v-649h-307v1570h538v-256z" glyph-name="F" horiz-adv-x="640" unicode="F"/><glyph d="M792 1027h-304v221q0 82 -66.5 81.5t-66.5 -81.5v-925q0 -46 18 -64t55 -18q75 0 75 82v334h-81v246h370v-582q0 -181 -96.5 -258.5t-274 -77.5t-274 77.5t-96.5 258.5v928q0 181 96.5 258.5t274 77.5t274 -77.5t96.5 -258.5v-222z" glyph-name="G" unicode="G"/><glyph d="M488 1570h306v-1570h-306v640h-131v-640h-306v1570h306v-674h131v674z" glyph-name="H" horiz-adv-x="844" unicode="H"/><glyph d="M51 0v1570h306v-1570h-306z" glyph-name="I" horiz-adv-x="407" unicode="I"/><glyph d="M357 560v-237q0 -82 64.5 -82t64.5 82v1247h306v-1249q0 -181 -96.5 -258.5t-274 -77.5t-274 77.5t-96.5 258.5v239h306z" glyph-name="J" unicode="J"/><glyph d="M575 0l-153 647l-67 -222v-425h-304v1570h304v-640h14l177 640h304l-203 -732l218 -838h-290z" glyph-name="K" horiz-adv-x="890" unicode="K"/><glyph d="M357 256h257v-256h-563v1570h306v-1314z" glyph-name="L" horiz-adv-x="665" unicode="L"/><glyph d="M51 0v1570h463l104 -1162h19l104 1162h462v-1570h-281v1154h-24l-108 -1154h-326l-107 1154h-24v-1154h-282z" glyph-name="M" horiz-adv-x="1254" unicode="M"/><glyph d="M51 0v1570h388l181 -1067h18l-8 209v858h281v-1570h-387l-181 1067h-19l9 -209v-858h-282z" glyph-name="N" horiz-adv-x="962" unicode="N"/><glyph d="M421.5 1585q177.5 0 274 -77.5t96.5 -258.5v-928q0 -181 -96.5 -258.5t-274 -77.5t-274 77.5t-96.5 258.5v928q0 181 96.5 258.5t274 77.5zM486 1248q0 82 -64.5 81.5t-64.5 -81.5v-925q0 -82 64.5 -82t64.5 82v925z" glyph-name="O" unicode="O"/><glyph d="M485 1570q181 0 241.5 -73.5t60.5 -262.5v-568q0 -189 -60.5 -263t-241.5 -74h-128v-329h-306v1570h434zM488 667v565q0 48 -16 66t-59 18h-56v-732h56q43 0 59 17.5t16 65.5z" glyph-name="P" horiz-adv-x="846" unicode="P"/><glyph d="M845 34l-167 -171l-139 132q-55 -10 -117 -10q-177 0 -274 77.5t-97 258.5v928q0 181 96.5 258.5t274 77.5t274 -77.5t96.5 -258.5v-928q0 -113 -41 -190zM357 323q0 -82 64.5 -82t64.5 82v925q0 82 -64.5 81.5t-64.5 -81.5v-925z" glyph-name="Q" horiz-adv-x="896" unicode="Q"/><glyph d="M819 0h-275l-109 459h-78v-459h-306v1570h434q181 0 241.5 -73.5t60.5 -262.5v-457q0 -166 -103 -246zM357 1316v-623l76 2q31 2 43 21.5t12 60.5v455q0 48 -16 66t-59 18h-56z" glyph-name="R" horiz-adv-x="836" unicode="R"/><glyph d="M782 1024h-294v225q0 82 -65 82t-65 -82v-193q0 -48 32 -85t79.5 -59.5t103 -54t103.5 -67.5t79.5 -102.5t31.5 -156.5v-212q0 -179 -94 -256.5t-270 -77.5t-269 77.5t-93 256.5v227h294v-225q0 -82 67 -82q65 0 64 82v193q0 48 -31.5 85.5t-79 59.5t-102.5 53.5 t-102.5 67.5t-79 102.5t-31.5 156.5v212q0 179 93.5 256.5t268 77.5t267.5 -77.5t93 -256.5v-227z" glyph-name="S" horiz-adv-x="837" unicode="S"/><glyph d="M751 1570v-256h-201v-1314h-306v1314h-201v256h708z" glyph-name="T" horiz-adv-x="793" unicode="T"/><glyph d="M792 1570v-1249q0 -181 -96.5 -258.5t-274 -77.5t-274 77.5t-96.5 258.5v1249h306v-1247q0 -82 64.5 -82t64.5 82v1247h306z" glyph-name="U" unicode="U"/><glyph d="M34 1570h295l111 -1294h28l111 1294h295l-155 -1570h-530z" glyph-name="V" horiz-adv-x="907" unicode="V"/><glyph d="M1128 1570h297l-125 -1570h-474l-84 1241h-17l-83 -1241h-475l-124 1570h297l71 -1242h17l91 1242h430l90 -1242h17z" glyph-name="W" horiz-adv-x="1467" unicode="W"/><glyph d="M867 0h-300l-103 560h-19l-102 -560h-300l182 797l-176 773h301l95 -537h19l96 537h300l-176 -773z" glyph-name="X" horiz-adv-x="909" unicode="X"/><glyph d="M585 1570h292l-271 -1012v-558h-301v558l-271 1012h292l121 -573h17z" glyph-name="Y" horiz-adv-x="911" unicode="Y"/><glyph d="M51 0v256l365 1036v22h-349v256h643v-256l-375 -1036v-22h366v-256h-650z" glyph-name="Z" horiz-adv-x="761" unicode="Z"/><glyph d="M51 -179v1928h538v-256h-239v-1416h239v-256h-538z" glyph-name="bracketleft" horiz-adv-x="640" unicode="["/><glyph d="M519 0h-282l-169 1570h296z" glyph-name="backslash" horiz-adv-x="587" unicode="\"/><glyph d="M589 -179h-538v256h239v1416h-239v256h538v-1928z" glyph-name="bracketright" horiz-adv-x="640" unicode="]"/><glyph d="M85 1048l393 461h338l392 -461h-307l-242 266h-24l-242 -266h-308z" glyph-name="asciicircum" horiz-adv-x="1293" unicode="^"/><glyph d="M60 -273v273h955v-273h-955z" glyph-name="underscore" horiz-adv-x="1075" unicode="_"/><glyph d="M358 1161h-268l-90 273h268z" glyph-name="grave" horiz-adv-x="358" unicode="`"/><glyph d="M579 0l-24 270h-202l-24 -270h-295l155 1570h530l155 -1570h-295zM374 526h160l-66 768h-28z" glyph-name="a" horiz-adv-x="907" unicode="a"/><glyph d="M669 800q125 -63 125 -230v-234q0 -189 -61 -262.5t-245 -73.5h-437v1570h434q177 0 237 -73.5t60 -262.5v-207q0 -79 -25 -129t-88 -81v-17zM410 1314h-53v-415h53q43 0 59 18t16 66v248q0 48 -16 65.5t-59 17.5zM488 341v273q0 48 -16 66t-59 18h-56v-440h56 q43 0 59 17.5t16 65.5z" glyph-name="b" horiz-adv-x="844" unicode="b"/><glyph d="M792 567v-250q0 -181 -96.5 -258.5t-274 -77.5t-274 78t-96.5 258v932q0 181 96.5 258.5t274 77.5t274 -77.5t96.5 -258.5v-245h-306v244q0 82 -64.5 81.5t-64.5 -81.5v-929q0 -82 64.5 -82t64.5 82v248h306z" glyph-name="c" unicode="c"/><glyph d="M483 1570q186 0 247.5 -73.5t61.5 -262.5v-898q0 -189 -61.5 -262.5t-247.5 -73.5h-432v1570h432zM486 340v891q0 48 -16 65.5t-59 17.5h-54v-1058h54q43 0 59 18t16 66z" glyph-name="d" unicode="d"/><glyph d="M589 1314h-232v-399h227v-253h-227v-406h232v-256h-538v1570h538v-256z" glyph-name="e" horiz-adv-x="640" unicode="e"/><glyph d="M589 1314h-231v-413h231v-252h-231v-649h-307v1570h538v-256z" glyph-name="f" horiz-adv-x="640" unicode="f"/><glyph d="M792 1027h-304v221q0 82 -66.5 81.5t-66.5 -81.5v-925q0 -46 18 -64t55 -18q75 0 75 82v334h-81v246h370v-582q0 -181 -96.5 -258.5t-274 -77.5t-274 77.5t-96.5 258.5v928q0 181 96.5 258.5t274 77.5t274 -77.5t96.5 -258.5v-222z" glyph-name="g" unicode="g"/><glyph d="M488 1570h306v-1570h-306v640h-131v-640h-306v1570h306v-674h131v674z" glyph-name="h" horiz-adv-x="844" unicode="h"/><glyph d="M51 0v1570h306v-1570h-306z" glyph-name="i" horiz-adv-x="407" unicode="i"/><glyph d="M357 560v-237q0 -82 64.5 -82t64.5 82v1247h306v-1249q0 -181 -96.5 -258.5t-274 -77.5t-274 77.5t-96.5 258.5v239h306z" glyph-name="j" unicode="j"/><glyph d="M575 0l-153 647l-67 -222v-425h-304v1570h304v-640h14l177 640h304l-203 -732l218 -838h-290z" glyph-name="k" horiz-adv-x="890" unicode="k"/><glyph d="M357 256h257v-256h-563v1570h306v-1314z" glyph-name="l" horiz-adv-x="665" unicode="l"/><glyph d="M51 0v1570h463l104 -1162h19l104 1162h462v-1570h-281v1154h-24l-108 -1154h-326l-107 1154h-24v-1154h-282z" glyph-name="m" horiz-adv-x="1254" unicode="m"/><glyph d="M51 0v1570h388l181 -1067h18l-8 209v858h281v-1570h-387l-181 1067h-19l9 -209v-858h-282z" glyph-name="n" horiz-adv-x="962" unicode="n"/><glyph d="M421.5 1585q177.5 0 274 -77.5t96.5 -258.5v-928q0 -181 -96.5 -258.5t-274 -77.5t-274 77.5t-96.5 258.5v928q0 181 96.5 258.5t274 77.5zM486 1248q0 82 -64.5 81.5t-64.5 -81.5v-925q0 -82 64.5 -82t64.5 82v925z" glyph-name="o" unicode="o"/><glyph d="M485 1570q181 0 241.5 -73.5t60.5 -262.5v-568q0 -189 -60.5 -263t-241.5 -74h-128v-329h-306v1570h434zM488 667v565q0 48 -16 66t-59 18h-56v-732h56q43 0 59 17.5t16 65.5z" glyph-name="p" horiz-adv-x="846" unicode="p"/><glyph d="M845 34l-167 -171l-139 132q-55 -10 -117 -10q-177 0 -274 77.5t-97 258.5v928q0 181 96.5 258.5t274 77.5t274 -77.5t96.5 -258.5v-928q0 -113 -41 -190zM357 323q0 -82 64.5 -82t64.5 82v925q0 82 -64.5 81.5t-64.5 -81.5v-925z" glyph-name="q" horiz-adv-x="896" unicode="q"/><glyph d="M819 0h-275l-109 459h-78v-459h-306v1570h434q181 0 241.5 -73.5t60.5 -262.5v-457q0 -166 -103 -246zM357 1316v-623l76 2q31 2 43 21.5t12 60.5v455q0 48 -16 66t-59 18h-56z" glyph-name="r" horiz-adv-x="836" unicode="r"/><glyph d="M782 1024h-294v225q0 82 -65 82t-65 -82v-193q0 -48 32 -85t79.5 -59.5t103 -54t103.5 -67.5t79.5 -102.5t31.5 -156.5v-212q0 -179 -94 -256.5t-270 -77.5t-269 77.5t-93 256.5v227h294v-225q0 -82 67 -82q65 0 64 82v193q0 48 -31.5 85.5t-79 59.5t-102.5 53.5 t-102.5 67.5t-79 102.5t-31.5 156.5v212q0 179 93.5 256.5t268 77.5t267.5 -77.5t93 -256.5v-227z" glyph-name="s" horiz-adv-x="837" unicode="s"/><glyph d="M751 1570v-256h-201v-1314h-306v1314h-201v256h708z" glyph-name="t" horiz-adv-x="793" unicode="t"/><glyph d="M792 1570v-1249q0 -181 -96.5 -258.5t-274 -77.5t-274 77.5t-96.5 258.5v1249h306v-1247q0 -82 64.5 -82t64.5 82v1247h306z" glyph-name="u" unicode="u"/><glyph d="M34 1570h295l111 -1294h28l111 1294h295l-155 -1570h-530z" glyph-name="v" horiz-adv-x="907" unicode="v"/><glyph d="M1128 1570h297l-125 -1570h-474l-84 1241h-17l-83 -1241h-475l-124 1570h297l71 -1242h17l91 1242h430l90 -1242h17z" glyph-name="w" horiz-adv-x="1467" unicode="w"/><glyph d="M867 0h-300l-103 560h-19l-102 -560h-300l182 797l-176 773h301l95 -537h19l96 537h300l-176 -773z" glyph-name="x" horiz-adv-x="909" unicode="x"/><glyph d="M585 1570h292l-271 -1012v-558h-301v558l-271 1012h292l121 -573h17z" glyph-name="y" horiz-adv-x="911" unicode="y"/><glyph d="M51 0v256l365 1036v22h-349v256h643v-256l-375 -1036v-22h366v-256h-650z" glyph-name="z" horiz-adv-x="761" unicode="z"/><glyph d="M480 -179q-87 0 -140 45t-53 141v515l-210 246v34l210 246v515q0 94 53.5 140t139.5 46h308v-256h-134q-70 0 -70 -65v-395l-191 -231v-34l191 -230v-396q0 -65 70 -65h134v-256h-308z" glyph-name="braceleft" horiz-adv-x="865" unicode="{"/><glyph d="M51 -143v1851h307v-1851h-307z" glyph-name="bar" horiz-adv-x="409" unicode="|"/><glyph d="M386 -179h-309v256h135q70 0 70 65v396l191 230v34l-191 231v395q0 65 -70 65h-135v256h309q85 0 139 -46t54 -140v-515l209 -246v-34l-209 -246v-515q0 -96 -53 -141t-140 -45z" glyph-name="braceright" horiz-adv-x="865" unicode="}"/><glyph d="M543 647q-70 0 -114.5 29t-77 58t-71.5 29q-38 0 -62.5 -20.5t-26.5 -56.5h-131q-2 119 53.5 178t156.5 59q70 0 114 -29t76.5 -58t71.5 -29q38 0 63 20.5t26 56.5h132q2 -119 -53.5 -178t-156.5 -59z" glyph-name="asciitilde" horiz-adv-x="803" unicode="~"/><glyph d="M206.5 1092q68.5 0 116 -47.5t47.5 -114t-47.5 -114.5t-116 -48t-116 48t-47.5 114.5t47.5 114t116 47.5zM96 635h221l47 -1140h-315z" glyph-name="exclamdown" horiz-adv-x="413" unicode="¡"/><glyph d="M792 899h-306v183q0 82 -64.5 82t-64.5 -82v-594q0 -82 64.5 -82t64.5 82v183h306v-168q0 -295 -251 -343v-160h-239v160q-251 48 -251 343v564q0 295 251 343v160h239v-160q251 -48 251 -343v-168z" glyph-name="cent" unicode="¢"/><glyph d="M471 256h459v-256h-887v256h123v346h-123v256h123v388q0 181 96 258.5t273.5 77.5t274 -77.5t96.5 -258.5v-242h-305v240q0 82 -65 82t-65 -82v-386h239v-256h-239v-346z" glyph-name="sterling" horiz-adv-x="981" unicode="£"/><glyph d="M1043 1111q0 -123 -62 -227l91 -90l-145 -144l-84 84q-119 -82 -264.5 -82t-264.5 82l-84 -84l-145 144l91 90q-61 104 -62 227q0 126 65 232l-94 94l145 143l89 -88q116 79 259.5 78.5t259.5 -78.5l89 88l145 -143l-94 -94q65 -106 65 -232zM579 840q128 0 203 87 t75 184t-75 185t-203 88t-203.5 -88t-75.5 -185t75.5 -184t203.5 -87z" glyph-name="currency" horiz-adv-x="1157" unicode="¤"/><glyph d="M606 558v-5h211v-90h-211v-72h211v-91h-211v-300h-301v300h-209v91h209v72h-209v90h209v5l-271 1012h292l121 -573h17l121 573h292z" glyph-name="yen" horiz-adv-x="911" unicode="¥"/><glyph d="M51 847v861h307v-861h-307zM358 719v-862h-307v862h307z" glyph-name="brokenbar" horiz-adv-x="409" unicode="¦"/><glyph d="M357 1193q0 -56 47 -84.5t114 -40.5t134.5 -32.5t114.5 -81.5t47 -167v-475q0 -179 -96.5 -255.5t-280.5 -76.5t-280.5 76.5t-96.5 255.5v89h297v-73q0 -85 80 -86q79 0 78 86v49q0 56 -46.5 84.5t-114 40.5t-134 32.5t-113.5 82t-47 166.5v475q0 179 96.5 256t279 77 t278 -77t95.5 -256v-89h-297v73q0 85 -77 86q-79 0 -78 -86v-49zM357 800q0 -56 39 -80.5t119 -41.5v92q0 56 -39 81t-119 42v-93z" glyph-name="section" horiz-adv-x="865" unicode="§"/><glyph d="M124.5 1181q-52.5 0 -88.5 36.5t-36 89.5t36 90t88.5 37t88.5 -37t36 -90t-36 -89.5t-88.5 -36.5zM473 1181q-53 0 -89 36.5t-36 89.5t36 90t89 37t88.5 -37t35.5 -90t-35.5 -89.5t-88.5 -36.5z" glyph-name="dieresis" horiz-adv-x="597" unicode="¨"/><glyph d="M418 852q-160 0 -263.5 105t-103.5 263q0 160 103.5 265.5t263.5 105.5q162 0 265.5 -105t103.5 -265.5t-103.5 -264.5t-265.5 -104zM423 1000q70 0 126.5 35t75.5 107h-84q-36 -68 -119 -69q-61 0 -101.5 39.5t-40.5 108t40 108.5t102 40q82 0 119 -69h84 q-19 72 -75.5 108t-126.5 36q-97 0 -161 -63t-64 -161q0 -96 64 -158t161 -62z" glyph-name="copyright" horiz-adv-x="837" unicode="©"/><glyph d="M473 693l-14 111h-133l-14 -111h-278l120 741h477l120 -741h-278zM350 983h85l-27 212h-31z" glyph-name="ordfeminine" horiz-adv-x="785" unicode="ª"/><glyph d="M725 239h-309l-331 478l331 478h309l-331 -478zM1166 239h-309l-331 478l331 478h309l-331 -478z" glyph-name="guillemotleft" horiz-adv-x="1250" unicode="«"/><glyph d="M794 930v-438h-308v165h-443v273h751z" glyph-name="logicalnot" horiz-adv-x="836" unicode="¬"/><glyph d="M51 649v273h478v-273h-478z" glyph-name="uni00AD" horiz-adv-x="580" unicode="­"/><glyph d="M418 852q-160 0 -263.5 105t-103.5 263q0 160 103.5 265.5t263.5 105.5q162 0 265.5 -105t103.5 -265.5t-103.5 -264.5t-265.5 -104zM244 1002h84v133h140l76 -133h91l-89 150q79 38 79 128q0 70 -47 109t-134 39h-200v-426zM328 1207v148h117q90 0 91 -75q0 -73 -91 -73 h-117z" glyph-name="registered" horiz-adv-x="837" unicode="®"/><glyph d="M0 1179v246h543v-246h-543z" glyph-name="macron" horiz-adv-x="542" unicode="¯"/><glyph d="M389 1592q162 0 250 -81t88 -270v-294q0 -189 -88 -270t-250 -81t-250 81t-88 270v294q0 189 88 270t250 81zM454 1253q0 84 -65 83.5t-65 -83.5v-318q0 -84 65 -83.5t65 83.5v318z" glyph-name="degree" horiz-adv-x="778" unicode="°"/><glyph d="M700 1133h315v-290h-315v-316h-307v316h-316v290h316v316h307v-316zM51 48v290h912v-290h-912z" glyph-name="plusminus" horiz-adv-x="1066" unicode="±"/><glyph d="M0 1161l90 273h268l-90 -273h-268z" glyph-name="acute" horiz-adv-x="358" unicode="´"/><glyph d="M486 1570h306v-1249q0 -181 -96.5 -258.5t-273.5 -77.5q-38 0 -55 1v-242h-307v480q-9 48 -9 97v1249h316v-1300q17 -29 55 -29q65 0 64 82v1247z" glyph-name="uni00B5" unicode="µ"/><glyph d="M817 1570v-1570h-307v329h-152q-186 0 -246.5 73.5t-60.5 263.5v568q0 189 60.5 262.5t246.5 73.5h459zM879 1570h307v-1570h-307v1570zM433 602h77v695h-77q-43 0 -59 -19.5t-16 -67.5v-521q0 -48 16 -67.5t59 -19.5z" glyph-name="paragraph" horiz-adv-x="1237" unicode="¶"/><glyph d="M266.5 623q-68.5 0 -116.5 48t-48 114.5t48 114t116.5 47.5t116 -47.5t47.5 -114t-47.5 -114.5t-116 -48z" glyph-name="periodcentered" horiz-adv-x="532" unicode="·"/><glyph d="M166 -72q63 -10 110.5 -51t47.5 -116q0 -67 -21 -109.5t-63 -62t-81.5 -26.5t-95.5 -7h-63v139h63q75 0 75 66q0 65 -75 65h-63v99l87 75h162z" glyph-name="cedilla" horiz-adv-x="324" unicode="¸"/><glyph d="M423.5 698q-158.5 0 -265.5 106.5t-107 265.5t107 266.5t265.5 107.5t265 -107.5t106.5 -266.5t-106.5 -265.5t-265 -106.5zM423.5 952q49.5 0 83.5 34.5t34 84t-34 84.5t-83.5 35t-84 -35t-34.5 -84.5t34.5 -84t84 -34.5z" glyph-name="ordmasculine" horiz-adv-x="846" unicode="º"/><glyph d="M85 239l331 478l-331 478h309l331 -478l-331 -478h-309zM526 239l331 478l-331 478h309l331 -478l-331 -478h-309z" glyph-name="guillemotright" horiz-adv-x="1250" unicode="»"/><glyph d="M449 1092q68 0 116 -47.5t48 -114t-48 -114.5t-116 -48t-116 48t-48 114.5t48 114t116 47.5zM800 61v-245q0 -181 -96 -259t-273.5 -78t-274 78t-96.5 259v210q0 101 24.5 170t59.5 102t70 58.5t60 64t25 94.5v120h298v-154q0 -96 -23.5 -159t-58 -92t-68.5 -52 t-58 -59.5t-24 -92.5v-209q0 -82 65 -82t65 82v244h305z" glyph-name="questiondown" horiz-adv-x="851" unicode="¿"/><glyph d="M589 1655h-268l-91 274h268zM579 0l-24 270h-202l-24 -270h-295l155 1570h530l155 -1570h-295zM374 526h160l-66 768h-28z" glyph-name="Agrave" horiz-adv-x="907" unicode="À"/><glyph d="M678 1929l-91 -274h-268l91 274h268zM579 0l-24 270h-202l-24 -270h-295l155 1570h530l155 -1570h-295zM374 526h160l-66 768h-28z" glyph-name="Aacute" horiz-adv-x="907" unicode="Á"/><glyph d="M440 1775l-47 -120h-221l110 274h341l109 -274h-220l-48 120h-24zM579 0l-24 270h-202l-24 -270h-295l155 1570h530l155 -1570h-295zM374 526h160l-66 768h-28z" glyph-name="Acircumflex" horiz-adv-x="907" unicode="Â"/><glyph d="M237 1690h-131q-2 119 53.5 178t156.5 59q70 0 114 -29t76.5 -58t72.5 -29q38 0 62.5 20.5t25.5 56.5h132q2 -119 -54 -178.5t-156 -59.5q-70 0 -114.5 29t-77 58t-71.5 29q-38 0 -62.5 -20t-26.5 -56zM579 0l-24 270h-202l-24 -270h-295l155 1570h530l155 -1570h-295z M374 526h160l-66 768h-28z" glyph-name="Atilde" horiz-adv-x="907" unicode="Ã"/><glyph d="M278 1676q-53 0 -88.5 36.5t-35.5 89.5t35.5 90t88.5 37t89 -37t36 -90t-36 -89.5t-89 -36.5zM626 1676q-53 0 -88.5 36.5t-35.5 89.5t35.5 90t88.5 37t89 -37t36 -90t-36 -89.5t-89 -36.5zM579 0l-24 270h-202l-24 -270h-295l155 1570h530l155 -1570h-295zM374 526h160 l-66 768h-28z" glyph-name="Adieresis" horiz-adv-x="907" unicode="Ä"/><glyph d="M452 1580q-87 0 -142.5 56.5t-55.5 140t55.5 139t142.5 55.5t142.5 -55.5t55.5 -139t-55.5 -140t-142.5 -56.5zM452 1833q-24 0 -40 -15.5t-16 -41t15.5 -41.5t41 -16t41 16t15.5 41.5t-16.5 41t-40.5 15.5zM579 0l-24 270h-202l-24 -270h-295l155 1570h530l155 -1570 h-295zM374 526h160l-66 768h-28z" glyph-name="Aring" horiz-adv-x="907" unicode="Å"/><glyph d="M1126 1314h-232v-399h227v-253h-227v-406h232v-256h-537v275h-210l-50 -275h-295l292 1570h800v-256zM425 539h164v758h-29z" glyph-name="AE" horiz-adv-x="1177" unicode="Æ"/><glyph d="M792 1004h-306v244q0 82 -64.5 81.5t-64.5 -81.5v-929q0 -82 64.5 -82t64.5 82v248h306v-250q0 -294 -275 -329l-68 -60q63 -10 111 -51t48 -116q0 -67 -21.5 -109.5t-63.5 -62t-81 -26.5t-96 -7h-63v139h63q75 0 76 66q0 65 -76 65h-63v99l69 60q-300 27 -301 332v932 q0 181 96.5 258.5t274 77.5t274 -77.5t96.5 -258.5v-245z" glyph-name="Ccedilla" unicode="Ç"/><glyph d="M468 1655h-268l-91 274h268zM589 1314h-232v-399h227v-253h-227v-406h232v-256h-538v1570h538v-256z" glyph-name="Egrave" horiz-adv-x="640" unicode="È"/><glyph d="M556 1929l-90 -274h-268l90 274h268zM589 1314h-232v-399h227v-253h-227v-406h232v-256h-538v1570h538v-256z" glyph-name="Eacute" horiz-adv-x="640" unicode="É"/><glyph d="M319 1775l-48 -120h-220l109 274h342l109 -274h-220l-48 120h-24zM589 1570v-256h-232v-399h227v-253h-227v-406h232v-256h-538v1570h538z" glyph-name="Ecircumflex" horiz-adv-x="640" unicode="Ê"/><glyph d="M157 1676q-53 0 -89 36.5t-36 89.5t36 90t89 37t89 -37t36 -90t-36 -89.5t-89 -36.5zM505 1929q53 0 89 -37t36 -90t-36 -89.5t-89 -36.5t-88.5 36.5t-35.5 89.5t35.5 90t88.5 37zM589 1570v-256h-232v-399h227v-253h-227v-406h232v-256h-538v1570h538z" glyph-name="Edieresis" horiz-adv-x="640" unicode="Ë"/><glyph d="M341 1655h-268l-90 274h268zM51 0v1570h306v-1570h-306z" glyph-name="Igrave" horiz-adv-x="407" unicode="Ì"/><glyph d="M72 1655l90 274h268l-90 -274h-268zM51 0v1570h306v-1570h-306z" glyph-name="Iacute" horiz-adv-x="407" unicode="Í"/><glyph d="M-75 1655l109 274h341l110 -274h-220l-48 120h-24l-48 -120h-220zM51 0v1570h306v-1570h-306z" glyph-name="Icircumflex" horiz-adv-x="407" unicode="Î"/><glyph d="M31 1676q-53 0 -89 36.5t-36 89.5t36 90t89 37t88.5 -37t35.5 -90t-35.5 -89.5t-88.5 -36.5zM379 1676q-53 0 -89 36.5t-36 89.5t36 90t89 37t88.5 -37t35.5 -90t-35.5 -89.5t-88.5 -36.5zM51 0v1570h306v-1570h-306z" glyph-name="Idieresis" horiz-adv-x="407" unicode="Ï"/><glyph d="M529 1570q186 0 247.5 -73.5t61.5 -262.5v-898q0 -189 -61.5 -262.5t-247.5 -73.5h-432v649h-46v273h46v648h432zM532 340v891q0 48 -16 65.5t-59 17.5h-54v-392h77v-273h-77v-393h54q43 0 59 18t16 66z" glyph-name="Eth" horiz-adv-x="889" unicode="Ð"/><glyph d="M618 1650q-70 0 -114.5 29t-77 58t-71.5 29q-38 0 -62.5 -20.5t-26.5 -55.5h-131q-2 119 53.5 178t156.5 59q70 0 114 -29t76.5 -58t72.5 -29q38 0 62.5 20.5t25.5 56.5h132q2 -119 -53.5 -178.5t-156.5 -59.5zM51 0v1570h388l181 -1067h18l-8 209v858h281v-1570h-387 l-181 1067h-19l9 -209v-858h-282z" glyph-name="Ntilde" horiz-adv-x="962" unicode="Ñ"/><glyph d="M558 1655h-268l-90 274h268zM421.5 1585q177.5 0 274 -77.5t96.5 -258.5v-928q0 -181 -96.5 -258.5t-274 -77.5t-274 77.5t-96.5 258.5v928q0 181 96.5 258.5t274 77.5zM486 1248q0 82 -64.5 81.5t-64.5 -81.5v-925q0 -82 64.5 -82t64.5 82v925z" glyph-name="Ograve" unicode="Ò"/><glyph d="M288 1655l91 274h268l-91 -274h-268zM421.5 1585q177.5 0 274 -77.5t96.5 -258.5v-928q0 -181 -96.5 -258.5t-274 -77.5t-274 77.5t-96.5 258.5v928q0 181 96.5 258.5t274 77.5zM486 1248q0 82 -64.5 81.5t-64.5 -81.5v-925q0 -82 64.5 -82t64.5 82v925z" glyph-name="Oacute" unicode="Ó"/><glyph d="M142 1655l109 274h341l109 -274h-220l-48 120h-23l-48 -120h-220zM421.5 1585q177.5 0 274 -77.5t96.5 -258.5v-928q0 -181 -96.5 -258.5t-274 -77.5t-274 77.5t-96.5 258.5v928q0 181 96.5 258.5t274 77.5zM486 1248q0 82 -64.5 81.5t-64.5 -81.5v-925q0 -82 64.5 -82 t64.5 82v925z" glyph-name="Ocircumflex" unicode="Ô"/><glyph d="M558 1650q-70 0 -114.5 29t-76.5 58t-72 29q-38 0 -62.5 -20.5t-25.5 -55.5h-132q-2 119 53.5 178t156.5 59q70 0 114.5 -29t77 -58t71.5 -29q38 0 62.5 20.5t26.5 56.5h131q2 -119 -53.5 -178.5t-156.5 -59.5zM421.5 1585q177.5 0 274 -77.5t96.5 -258.5v-928 q0 -181 -96.5 -258.5t-274 -77.5t-274 77.5t-96.5 258.5v928q0 181 96.5 258.5t274 77.5zM486 1248q0 82 -64.5 81.5t-64.5 -81.5v-925q0 -82 64.5 -82t64.5 82v925z" glyph-name="Otilde" unicode="Õ"/><glyph d="M247.5 1676q-52.5 0 -88.5 36.5t-36 89.5t36 90t88.5 37t88.5 -37t36 -90t-36 -89.5t-88.5 -36.5zM596 1676q-53 0 -89 36.5t-36 89.5t36 90t89 37t88.5 -37t35.5 -90t-35.5 -89.5t-88.5 -36.5zM421.5 1585q177.5 0 274 -77.5t96.5 -258.5v-928q0 -181 -96.5 -258.5 t-274 -77.5t-274 77.5t-96.5 258.5v928q0 181 96.5 258.5t274 77.5zM486 1248q0 82 -64.5 81.5t-64.5 -81.5v-925q0 -82 64.5 -82t64.5 82v925z" glyph-name="Odieresis" unicode="Ö"/><glyph d="M945 998l-221 -221l221 -224l-204 -207l-224 224l-223 -224l-217 219l223 223l-223 222l205 207l223 -224l224 224z" glyph-name="multiply" horiz-adv-x="1022" unicode="×"/><glyph d="M799 1591l-53 -137q49 -79 49 -205v-928q0 -181 -96.5 -258.5t-273.5 -77.5q-148 0 -236 51l-22 -56h-116l53 136q-49 79 -49 205v928q0 181 96 258.5t274 77.5q148 0 235 -51l23 57h116zM360 1248v-480l130 331v149q0 82 -65 82t-65 -82zM490 323v479l-130 -331v-148 q0 -82 65 -82t65 82z" glyph-name="Oslash" horiz-adv-x="849" unicode="Ø"/><glyph d="M558 1655h-268l-90 274h268zM792 1570v-1249q0 -181 -96.5 -258.5t-274 -77.5t-274 77.5t-96.5 258.5v1249h306v-1247q0 -82 64.5 -82t64.5 82v1247h306z" glyph-name="Ugrave" unicode="Ù"/><glyph d="M288 1655l91 274h268l-91 -274h-268zM792 1570v-1249q0 -181 -96.5 -258.5t-274 -77.5t-274 77.5t-96.5 258.5v1249h306v-1247q0 -82 64.5 -82t64.5 82v1247h306z" glyph-name="Uacute" unicode="Ú"/><glyph d="M142 1655l109 274h341l109 -274h-220l-48 120h-23l-48 -120h-220zM792 1570v-1249q0 -181 -96.5 -258.5t-274 -77.5t-274 77.5t-96.5 258.5v1249h306v-1247q0 -82 64.5 -82t64.5 82v1247h306z" glyph-name="Ucircumflex" unicode="Û"/><glyph d="M247.5 1676q-52.5 0 -88.5 36.5t-36 89.5t36 90t88.5 37t88.5 -37t36 -90t-36 -89.5t-88.5 -36.5zM596 1676q-53 0 -89 36.5t-36 89.5t36 90t89 37t88.5 -37t35.5 -90t-35.5 -89.5t-88.5 -36.5zM792 1570v-1249q0 -181 -96.5 -258.5t-274 -77.5t-274 77.5t-96.5 258.5 v1249h306v-1247q0 -82 64.5 -82t64.5 82v1247h306z" glyph-name="Udieresis" unicode="Ü"/><glyph d="M681 1929l-90 -274h-268l90 274h268zM585 1570h292l-271 -1012v-558h-301v558l-271 1012h292l121 -573h17z" glyph-name="Yacute" horiz-adv-x="911" unicode="Ý"/><glyph d="M454 1406q201 0 266 -72.5t65 -263.5v-568q0 -191 -65 -263.5t-266 -72.5h-96v-166h-307v1570h307v-164h96zM478 526v520q0 48 -16.5 67.5t-58.5 19.5h-45v-694h45q43 0 59 19.5t16 67.5z" glyph-name="Thorn" horiz-adv-x="836" unicode="Þ"/><glyph d="M800 1051q0 -92 -29.5 -149t-103.5 -96v-14q73 -39 105 -96.5t32 -149.5v-244q0 -177 -91.5 -239.5t-280.5 -62.5h-31v239h27q39 0 58 18.5t19 66.5v267q0 89 -77 88h-27v239h27q75 0 75 91v239q0 82 -78 81q-68 0 -68 -81v-1248h-306v1249q0 336 374 336 q181 0 278 -77.5t97 -258.5v-198z" glyph-name="germandbls" horiz-adv-x="855" unicode="ß"/><glyph d="M589 1655h-268l-91 274h268zM579 0l-24 270h-202l-24 -270h-295l155 1570h530l155 -1570h-295zM374 526h160l-66 768h-28z" glyph-name="agrave" horiz-adv-x="907" unicode="à"/><glyph d="M678 1929l-91 -274h-268l91 274h268zM579 0l-24 270h-202l-24 -270h-295l155 1570h530l155 -1570h-295zM374 526h160l-66 768h-28z" glyph-name="aacute" horiz-adv-x="907" unicode="á"/><glyph d="M440 1775l-47 -120h-221l110 274h341l109 -274h-220l-48 120h-24zM579 0l-24 270h-202l-24 -270h-295l155 1570h530l155 -1570h-295zM374 526h160l-66 768h-28z" glyph-name="acircumflex" horiz-adv-x="907" unicode="â"/><glyph d="M237 1690h-131q-2 119 53.5 178t156.5 59q70 0 114 -29t76.5 -58t72.5 -29q38 0 62.5 20.5t25.5 56.5h132q2 -119 -54 -178.5t-156 -59.5q-70 0 -114.5 29t-77 58t-71.5 29q-38 0 -62.5 -20t-26.5 -56zM579 0l-24 270h-202l-24 -270h-295l155 1570h530l155 -1570h-295z M374 526h160l-66 768h-28z" glyph-name="atilde" horiz-adv-x="907" unicode="ã"/><glyph d="M278 1676q-53 0 -88.5 36.5t-35.5 89.5t35.5 90t88.5 37t89 -37t36 -90t-36 -89.5t-89 -36.5zM626 1676q-53 0 -88.5 36.5t-35.5 89.5t35.5 90t88.5 37t89 -37t36 -90t-36 -89.5t-89 -36.5zM579 0l-24 270h-202l-24 -270h-295l155 1570h530l155 -1570h-295zM374 526h160 l-66 768h-28z" glyph-name="adieresis" horiz-adv-x="907" unicode="ä"/><glyph d="M452 1580q-87 0 -142.5 56.5t-55.5 140t55.5 139t142.5 55.5t142.5 -55.5t55.5 -139t-55.5 -140t-142.5 -56.5zM452 1833q-24 0 -40 -15.5t-16 -41t15.5 -41.5t41 -16t41 16t15.5 41.5t-16.5 41t-40.5 15.5zM579 0l-24 270h-202l-24 -270h-295l155 1570h530l155 -1570 h-295zM374 526h160l-66 768h-28z" glyph-name="aring" horiz-adv-x="907" unicode="å"/><glyph d="M1126 1314h-232v-399h227v-253h-227v-406h232v-256h-537v275h-210l-50 -275h-295l292 1570h800v-256zM425 539h164v758h-29z" glyph-name="ae" horiz-adv-x="1177" unicode="æ"/><glyph d="M792 1004h-306v244q0 82 -64.5 81.5t-64.5 -81.5v-929q0 -82 64.5 -82t64.5 82v248h306v-250q0 -294 -275 -329l-68 -60q63 -10 111 -51t48 -116q0 -67 -21.5 -109.5t-63.5 -62t-81 -26.5t-96 -7h-63v139h63q75 0 76 66q0 65 -76 65h-63v99l69 60q-300 27 -301 332v932 q0 181 96.5 258.5t274 77.5t274 -77.5t96.5 -258.5v-245z" glyph-name="ccedilla" unicode="ç"/><glyph d="M468 1655h-268l-91 274h268zM589 1314h-232v-399h227v-253h-227v-406h232v-256h-538v1570h538v-256z" glyph-name="egrave" horiz-adv-x="640" unicode="è"/><glyph d="M556 1929l-90 -274h-268l90 274h268zM589 1314h-232v-399h227v-253h-227v-406h232v-256h-538v1570h538v-256z" glyph-name="eacute" horiz-adv-x="640" unicode="é"/><glyph d="M319 1775l-48 -120h-220l109 274h342l109 -274h-220l-48 120h-24zM589 1570v-256h-232v-399h227v-253h-227v-406h232v-256h-538v1570h538z" glyph-name="ecircumflex" horiz-adv-x="640" unicode="ê"/><glyph d="M157 1676q-53 0 -89 36.5t-36 89.5t36 90t89 37t89 -37t36 -90t-36 -89.5t-89 -36.5zM505 1929q53 0 89 -37t36 -90t-36 -89.5t-89 -36.5t-88.5 36.5t-35.5 89.5t35.5 90t88.5 37zM589 1570v-256h-232v-399h227v-253h-227v-406h232v-256h-538v1570h538z" glyph-name="edieresis" horiz-adv-x="640" unicode="ë"/><glyph d="M341 1655h-268l-90 274h268zM51 0v1570h306v-1570h-306z" glyph-name="igrave" horiz-adv-x="407" unicode="ì"/><glyph d="M72 1655l90 274h268l-90 -274h-268zM51 0v1570h306v-1570h-306z" glyph-name="iacute" horiz-adv-x="407" unicode="í"/><glyph d="M-75 1655l109 274h341l110 -274h-220l-48 120h-24l-48 -120h-220zM51 0v1570h306v-1570h-306z" glyph-name="icircumflex" horiz-adv-x="407" unicode="î"/><glyph d="M31 1676q-53 0 -89 36.5t-36 89.5t36 90t89 37t88.5 -37t35.5 -90t-35.5 -89.5t-88.5 -36.5zM379 1676q-53 0 -89 36.5t-36 89.5t36 90t89 37t88.5 -37t35.5 -90t-35.5 -89.5t-88.5 -36.5zM51 0v1570h306v-1570h-306z" glyph-name="idieresis" horiz-adv-x="407" unicode="ï"/><glyph d="M529 1570q186 0 247.5 -73.5t61.5 -262.5v-898q0 -189 -61.5 -262.5t-247.5 -73.5h-432v649h-46v273h46v648h432zM532 340v891q0 48 -16 65.5t-59 17.5h-54v-392h77v-273h-77v-393h54q43 0 59 18t16 66z" glyph-name="eth" horiz-adv-x="889" unicode="ð"/><glyph d="M618 1650q-70 0 -114.5 29t-77 58t-71.5 29q-38 0 -62.5 -20.5t-26.5 -55.5h-131q-2 119 53.5 178t156.5 59q70 0 114 -29t76.5 -58t72.5 -29q38 0 62.5 20.5t25.5 56.5h132q2 -119 -53.5 -178.5t-156.5 -59.5zM51 0v1570h388l181 -1067h18l-8 209v858h281v-1570h-387 l-181 1067h-19l9 -209v-858h-282z" glyph-name="ntilde" horiz-adv-x="962" unicode="ñ"/><glyph d="M558 1655h-268l-90 274h268zM421.5 1585q177.5 0 274 -77.5t96.5 -258.5v-928q0 -181 -96.5 -258.5t-274 -77.5t-274 77.5t-96.5 258.5v928q0 181 96.5 258.5t274 77.5zM486 1248q0 82 -64.5 81.5t-64.5 -81.5v-925q0 -82 64.5 -82t64.5 82v925z" glyph-name="ograve" unicode="ò"/><glyph d="M288 1655l91 274h268l-91 -274h-268zM421.5 1585q177.5 0 274 -77.5t96.5 -258.5v-928q0 -181 -96.5 -258.5t-274 -77.5t-274 77.5t-96.5 258.5v928q0 181 96.5 258.5t274 77.5zM486 1248q0 82 -64.5 81.5t-64.5 -81.5v-925q0 -82 64.5 -82t64.5 82v925z" glyph-name="oacute" unicode="ó"/><glyph d="M142 1655l109 274h341l109 -274h-220l-48 120h-23l-48 -120h-220zM421.5 1585q177.5 0 274 -77.5t96.5 -258.5v-928q0 -181 -96.5 -258.5t-274 -77.5t-274 77.5t-96.5 258.5v928q0 181 96.5 258.5t274 77.5zM486 1248q0 82 -64.5 81.5t-64.5 -81.5v-925q0 -82 64.5 -82 t64.5 82v925z" glyph-name="ocircumflex" unicode="ô"/><glyph d="M558 1650q-70 0 -114.5 29t-76.5 58t-72 29q-38 0 -62.5 -20.5t-25.5 -55.5h-132q-2 119 53.5 178t156.5 59q70 0 114.5 -29t77 -58t71.5 -29q38 0 62.5 20.5t26.5 56.5h131q2 -119 -53.5 -178.5t-156.5 -59.5zM421.5 1585q177.5 0 274 -77.5t96.5 -258.5v-928 q0 -181 -96.5 -258.5t-274 -77.5t-274 77.5t-96.5 258.5v928q0 181 96.5 258.5t274 77.5zM486 1248q0 82 -64.5 81.5t-64.5 -81.5v-925q0 -82 64.5 -82t64.5 82v925z" glyph-name="otilde" unicode="õ"/><glyph d="M247.5 1676q-52.5 0 -88.5 36.5t-36 89.5t36 90t88.5 37t88.5 -37t36 -90t-36 -89.5t-88.5 -36.5zM596 1676q-53 0 -89 36.5t-36 89.5t36 90t89 37t88.5 -37t35.5 -90t-35.5 -89.5t-88.5 -36.5zM421.5 1585q177.5 0 274 -77.5t96.5 -258.5v-928q0 -181 -96.5 -258.5 t-274 -77.5t-274 77.5t-96.5 258.5v928q0 181 96.5 258.5t274 77.5zM486 1248q0 82 -64.5 81.5t-64.5 -81.5v-925q0 -82 64.5 -82t64.5 82v925z" glyph-name="odieresis" unicode="ö"/><glyph d="M513.5 1070q-61.5 0 -105 43.5t-43.5 105.5q0 60 43.5 103t105 43t105 -43.5t43.5 -102.5q0 -61 -43.5 -105t-105 -44zM51 640v290h912v-290h-912zM513.5 205q-61.5 0 -105 43.5t-43.5 104.5q0 60 43.5 103.5t105 43.5t105 -43.5t43.5 -103.5q0 -61 -43.5 -104.5 t-105 -43.5z" glyph-name="divide" horiz-adv-x="1013" unicode="÷"/><glyph d="M799 1591l-53 -137q49 -79 49 -205v-928q0 -181 -96.5 -258.5t-273.5 -77.5q-148 0 -236 51l-22 -56h-116l53 136q-49 79 -49 205v928q0 181 96 258.5t274 77.5q148 0 235 -51l23 57h116zM360 1248v-480l130 331v149q0 82 -65 82t-65 -82zM490 323v479l-130 -331v-148 q0 -82 65 -82t65 82z" glyph-name="oslash" horiz-adv-x="849" unicode="ø"/><glyph d="M558 1655h-268l-90 274h268zM792 1570v-1249q0 -181 -96.5 -258.5t-274 -77.5t-274 77.5t-96.5 258.5v1249h306v-1247q0 -82 64.5 -82t64.5 82v1247h306z" glyph-name="ugrave" unicode="ù"/><glyph d="M288 1655l91 274h268l-91 -274h-268zM792 1570v-1249q0 -181 -96.5 -258.5t-274 -77.5t-274 77.5t-96.5 258.5v1249h306v-1247q0 -82 64.5 -82t64.5 82v1247h306z" glyph-name="uacute" unicode="ú"/><glyph d="M142 1655l109 274h341l109 -274h-220l-48 120h-23l-48 -120h-220zM792 1570v-1249q0 -181 -96.5 -258.5t-274 -77.5t-274 77.5t-96.5 258.5v1249h306v-1247q0 -82 64.5 -82t64.5 82v1247h306z" glyph-name="ucircumflex" unicode="û"/><glyph d="M247.5 1676q-52.5 0 -88.5 36.5t-36 89.5t36 90t88.5 37t88.5 -37t36 -90t-36 -89.5t-88.5 -36.5zM596 1676q-53 0 -89 36.5t-36 89.5t36 90t89 37t88.5 -37t35.5 -90t-35.5 -89.5t-88.5 -36.5zM792 1570v-1249q0 -181 -96.5 -258.5t-274 -77.5t-274 77.5t-96.5 258.5 v1249h306v-1247q0 -82 64.5 -82t64.5 82v1247h306z" glyph-name="udieresis" unicode="ü"/><glyph d="M681 1929l-90 -274h-268l90 274h268zM585 1570h292l-271 -1012v-558h-301v558l-271 1012h292l121 -573h17z" glyph-name="yacute" horiz-adv-x="911" unicode="ý"/><glyph d="M454 1406q201 0 266 -72.5t65 -263.5v-568q0 -191 -65 -263.5t-266 -72.5h-96v-166h-307v1570h307v-164h96zM478 526v520q0 48 -16.5 67.5t-58.5 19.5h-45v-694h45q43 0 59 19.5t16 67.5z" glyph-name="thorn" horiz-adv-x="836" unicode="þ"/><glyph d="M282 1676q-53 0 -89 36.5t-36 89.5t36 90t89 37t88.5 -37t35.5 -90t-35.5 -89.5t-88.5 -36.5zM630 1676q-53 0 -89 36.5t-36 89.5t36 90t89 37t88.5 -37t35.5 -90t-35.5 -89.5t-88.5 -36.5zM585 1570h292l-271 -1012v-558h-301v558l-271 1012h292l121 -573h17z" glyph-name="ydieresis" horiz-adv-x="911" unicode="ÿ"/><glyph d="M724 1920v-246h-543v246h543zM579 0l-24 270h-202l-24 -270h-295l155 1570h530l155 -1570h-295zM374 526h160l-66 768h-28z" glyph-name="Amacron" horiz-adv-x="907" unicode="Ā"/><glyph d="M724 1920v-246h-543v246h543zM579 0l-24 270h-202l-24 -270h-295l155 1570h530l155 -1570h-295zM374 526h160l-66 768h-28z" glyph-name="amacron" horiz-adv-x="907" unicode="ā"/><glyph d="M452.5 1655q-158.5 0 -227 43t-68.5 162v69h200v-26q0 -61 95.5 -61.5t95.5 61.5v26h200v-69q0 -119 -68.5 -162t-227 -43zM579 0l-24 270h-202l-24 -270h-295l155 1570h530l155 -1570h-295zM374 526h160l-66 768h-28z" glyph-name="Abreve" horiz-adv-x="907" unicode="Ă"/><glyph d="M452.5 1655q-158.5 0 -227 43t-68.5 162v69h200v-26q0 -61 95.5 -61.5t95.5 61.5v26h200v-69q0 -119 -68.5 -162t-227 -43zM579 0l-24 270h-202l-24 -270h-295l155 1570h530l155 -1570h-295zM374 526h160l-66 768h-28z" glyph-name="abreve" horiz-adv-x="907" unicode="ă"/><glyph d="M759 0q-94 0 -93.5 -83.5t93.5 -83.5h96l-26 -205h-75q-172 0 -264 77t-92 211q0 169 169 227l-12 127h-202l-24 -270h-295l155 1570h530l155 -1570h-115zM374 526h160l-66 768h-28z" glyph-name="Aogonek" horiz-adv-x="907" unicode="Ą"/><glyph d="M759 0q-94 0 -93.5 -83.5t93.5 -83.5h96l-26 -205h-75q-172 0 -264 77t-92 211q0 169 169 227l-12 127h-202l-24 -270h-295l155 1570h530l155 -1570h-115zM374 526h160l-66 768h-28z" glyph-name="aogonek" horiz-adv-x="907" unicode="ą"/><glyph d="M288 1655l91 274h268l-91 -274h-268zM792 567v-250q0 -181 -96.5 -258.5t-274 -77.5t-274 78t-96.5 258v932q0 181 96.5 258.5t274 77.5t274 -77.5t96.5 -258.5v-245h-306v244q0 82 -64.5 81.5t-64.5 -81.5v-929q0 -82 64.5 -82t64.5 82v248h306z" glyph-name="Cacute" unicode="Ć"/><glyph d="M288 1655l91 274h268l-91 -274h-268zM792 567v-250q0 -181 -96.5 -258.5t-274 -77.5t-274 78t-96.5 258v932q0 181 96.5 258.5t274 77.5t274 -77.5t96.5 -258.5v-245h-306v244q0 82 -64.5 81.5t-64.5 -81.5v-929q0 -82 64.5 -82t64.5 82v248h306z" glyph-name="cacute" unicode="ć"/><glyph d="M421.5 1676q-54.5 0 -93 36.5t-38.5 89.5t38.5 90t93 37t93 -37t38.5 -90t-38.5 -89.5t-93 -36.5zM792 567v-250q0 -181 -96.5 -258.5t-274 -77.5t-274 78t-96.5 258v932q0 181 96.5 258.5t274 77.5t274 -77.5t96.5 -258.5v-245h-306v244q0 82 -64.5 81.5t-64.5 -81.5 v-929q0 -82 64.5 -82t64.5 82v248h306z" glyph-name="Cdotaccent" unicode="Ċ"/><glyph d="M421.5 1676q-54.5 0 -93 36.5t-38.5 89.5t38.5 90t93 37t93 -37t38.5 -90t-38.5 -89.5t-93 -36.5zM792 567v-250q0 -181 -96.5 -258.5t-274 -77.5t-274 78t-96.5 258v932q0 181 96.5 258.5t274 77.5t274 -77.5t96.5 -258.5v-245h-306v244q0 82 -64.5 81.5t-64.5 -81.5 v-929q0 -82 64.5 -82t64.5 82v248h306z" glyph-name="cdotaccent" unicode="ċ"/><glyph d="M142 1929h220l48 -120h23l48 120h220l-109 -274h-341zM792 567v-250q0 -181 -96.5 -258.5t-274 -77.5t-274 78t-96.5 258v932q0 181 96.5 258.5t274 77.5t274 -77.5t96.5 -258.5v-245h-306v244q0 82 -64.5 81.5t-64.5 -81.5v-929q0 -82 64.5 -82t64.5 82v248h306z" glyph-name="Ccaron" unicode="Č"/><glyph d="M142 1929h220l48 -120h23l48 120h220l-109 -274h-341zM792 567v-250q0 -181 -96.5 -258.5t-274 -77.5t-274 78t-96.5 258v932q0 181 96.5 258.5t274 77.5t274 -77.5t96.5 -258.5v-245h-306v244q0 82 -64.5 81.5t-64.5 -81.5v-929q0 -82 64.5 -82t64.5 82v248h306z" glyph-name="ccaron" unicode="č"/><glyph d="M592 1655h-341l-109 274h220l48 -120h23l48 120h220zM483 1570q186 0 247.5 -73.5t61.5 -262.5v-898q0 -189 -61.5 -262.5t-247.5 -73.5h-432v1570h432zM486 340v891q0 48 -16 65.5t-59 17.5h-54v-1058h54q43 0 59 18t16 66z" glyph-name="Dcaron" unicode="Ď"/><glyph d="M592 1655h-341l-109 274h220l48 -120h23l48 120h220zM483 1570q186 0 247.5 -73.5t61.5 -262.5v-898q0 -189 -61.5 -262.5t-247.5 -73.5h-432v1570h432zM486 340v891q0 48 -16 65.5t-59 17.5h-54v-1058h54q43 0 59 18t16 66z" glyph-name="dcaron" unicode="ď"/><glyph d="M529 1570q186 0 247.5 -73.5t61.5 -262.5v-898q0 -189 -61.5 -262.5t-247.5 -73.5h-432v649h-46v273h46v648h432zM532 340v891q0 48 -16 65.5t-59 17.5h-54v-392h77v-273h-77v-393h54q43 0 59 18t16 66z" glyph-name="Dcroat" horiz-adv-x="889" unicode="Đ"/><glyph d="M529 1570q186 0 247.5 -73.5t61.5 -262.5v-898q0 -189 -61.5 -262.5t-247.5 -73.5h-432v649h-46v273h46v648h432zM532 340v891q0 48 -16 65.5t-59 17.5h-54v-392h77v-273h-77v-393h54q43 0 59 18t16 66z" glyph-name="dcroat" horiz-adv-x="889" unicode="đ"/><glyph d="M60 1920h542v-246h-542v246zM589 1570v-256h-232v-399h227v-253h-227v-406h232v-256h-538v1570h538z" glyph-name="Emacron" horiz-adv-x="640" unicode="Ē"/><glyph d="M60 1920h542v-246h-542v246zM589 1570v-256h-232v-399h227v-253h-227v-406h232v-256h-538v1570h538z" glyph-name="emacron" horiz-adv-x="640" unicode="ē"/><glyph d="M331 1676q-55 0 -93 36.5t-38 89.5t38 90t93 37t93.5 -37t38.5 -90t-38.5 -89.5t-93.5 -36.5zM589 1314h-232v-399h227v-253h-227v-406h232v-256h-538v1570h538v-256z" glyph-name="Edotaccent" horiz-adv-x="640" unicode="Ė"/><glyph d="M331 1676q-55 0 -93 36.5t-38 89.5t38 90t93 37t93.5 -37t38.5 -90t-38.5 -89.5t-93.5 -36.5zM589 1314h-232v-399h227v-253h-227v-406h232v-256h-538v1570h538v-256z" glyph-name="edotaccent" horiz-adv-x="640" unicode="ė"/><glyph d="M589 1314h-232v-399h227v-253h-227v-406h232v-256h-96q-94 0 -94 -83.5t94 -83.5h96l-26 -205h-75q-172 0 -264.5 77t-92.5 211q0 39 12 84h-92v1570h538v-256z" glyph-name="Eogonek" horiz-adv-x="640" unicode="Ę"/><glyph d="M589 1314h-232v-399h227v-253h-227v-406h232v-256h-96q-94 0 -94 -83.5t94 -83.5h96l-26 -205h-75q-172 0 -264.5 77t-92.5 211q0 39 12 84h-92v1570h538v-256z" glyph-name="eogonek" horiz-adv-x="640" unicode="ę"/><glyph d="M502 1655h-342l-109 274h220l48 -120h24l48 120h220zM589 1570v-256h-232v-399h227v-253h-227v-406h232v-256h-538v1570h538z" glyph-name="Ecaron" horiz-adv-x="640" unicode="Ě"/><glyph d="M502 1655h-342l-109 274h220l48 -120h24l48 120h220zM589 1570v-256h-232v-399h227v-253h-227v-406h232v-256h-538v1570h538z" glyph-name="ecaron" horiz-adv-x="640" unicode="ě"/><glyph d="M421.5 1655q-158.5 0 -227 43t-68.5 162v69h200v-26q0 -61 95.5 -61.5t95.5 61.5v26h200v-69q0 -119 -68.5 -162t-227 -43zM792 1027h-304v221q0 82 -66.5 81.5t-66.5 -81.5v-925q0 -46 18 -64t55 -18q75 0 75 82v334h-81v246h370v-582q0 -181 -96.5 -258.5t-274 -77.5 t-274 77.5t-96.5 258.5v928q0 181 96.5 258.5t274 77.5t274 -77.5t96.5 -258.5v-222z" glyph-name="Gbreve" unicode="Ğ"/><glyph d="M421.5 1655q-158.5 0 -227 43t-68.5 162v69h200v-26q0 -61 95.5 -61.5t95.5 61.5v26h200v-69q0 -119 -68.5 -162t-227 -43zM792 1027h-304v221q0 82 -66.5 81.5t-66.5 -81.5v-925q0 -46 18 -64t55 -18q75 0 75 82v334h-81v246h370v-582q0 -181 -96.5 -258.5t-274 -77.5 t-274 77.5t-96.5 258.5v928q0 181 96.5 258.5t274 77.5t274 -77.5t96.5 -258.5v-222z" glyph-name="gbreve" unicode="ğ"/><glyph d="M421.5 1676q-54.5 0 -93 36.5t-38.5 89.5t38.5 90t93 37t93 -37t38.5 -90t-38.5 -89.5t-93 -36.5zM792 1027h-304v221q0 82 -66.5 81.5t-66.5 -81.5v-925q0 -46 18 -64t55 -18q75 0 75 82v334h-81v246h370v-582q0 -181 -96.5 -258.5t-274 -77.5t-274 77.5t-96.5 258.5 v928q0 181 96.5 258.5t274 77.5t274 -77.5t96.5 -258.5v-222z" glyph-name="Gdotaccent" unicode="Ġ"/><glyph d="M421.5 1676q-54.5 0 -93 36.5t-38.5 89.5t38.5 90t93 37t93 -37t38.5 -90t-38.5 -89.5t-93 -36.5zM792 1027h-304v221q0 82 -66.5 81.5t-66.5 -81.5v-925q0 -46 18 -64t55 -18q75 0 75 82v334h-81v246h370v-582q0 -181 -96.5 -258.5t-274 -77.5t-274 77.5t-96.5 258.5 v928q0 181 96.5 258.5t274 77.5t274 -77.5t96.5 -258.5v-222z" glyph-name="gdotaccent" unicode="ġ"/><glyph d="M792 1027h-304v221q0 82 -66.5 81.5t-66.5 -81.5v-925q0 -46 18 -64t55 -18q75 0 75 82v334h-81v246h370v-582q0 -181 -96.5 -258.5t-274 -77.5t-274 77.5t-96.5 258.5v928q0 181 96.5 258.5t274 77.5t274 -77.5t96.5 -258.5v-222zM297 -640q39 152 36 307h-89v232h309 v-87q0 -311 -87 -452h-169z" glyph-name="Gcommaaccent" unicode="Ģ"/><glyph d="M792 1027h-304v221q0 82 -66.5 81.5t-66.5 -81.5v-925q0 -46 18 -64t55 -18q75 0 75 82v334h-81v246h370v-582q0 -181 -96.5 -258.5t-274 -77.5t-274 77.5t-96.5 258.5v928q0 181 96.5 258.5t274 77.5t274 -77.5t96.5 -258.5v-222zM297 -640q39 152 36 307h-89v232h309 v-87q0 -311 -87 -452h-169z" glyph-name="gcommaaccent" unicode="ģ"/><glyph d="M488 1570h306v-1570h-306v640h-131v-640h-306v1570h306v-259h131v259zM357 896h131v167h-131v-167z" glyph-name="Hbar" horiz-adv-x="844" unicode="Ħ"/><glyph d="M488 1570h306v-1570h-306v640h-131v-640h-306v1570h306v-259h131v259zM357 896h131v167h-131v-167z" glyph-name="hbar" horiz-adv-x="844" unicode="ħ"/><glyph d="M-67 1674v246h543v-246h-543zM51 0v1570h306v-1570h-306z" glyph-name="Imacron" horiz-adv-x="407" unicode="Ī"/><glyph d="M-67 1674v246h543v-246h-543zM51 0v1570h306v-1570h-306z" glyph-name="imacron" horiz-adv-x="407" unicode="ī"/><glyph d="M51 1570h306v-1570h-96q-94 0 -94 -83.5t94 -83.5h96l-26 -205h-75q-172 0 -264.5 77t-92.5 211q0 159 152 222v1432z" glyph-name="Iogonek" horiz-adv-x="407" unicode="Į"/><glyph d="M51 1570h306v-1570h-96q-94 0 -94 -83.5t94 -83.5h96l-26 -205h-75q-172 0 -264.5 77t-92.5 211q0 159 152 222v1432z" glyph-name="iogonek" horiz-adv-x="407" unicode="į"/><glyph d="M204.5 1676q-54.5 0 -93 36.5t-38.5 89.5t38.5 90t93 37t93 -37t38.5 -90t-38.5 -89.5t-93 -36.5zM51 0v1570h306v-1570h-306z" glyph-name="Idotaccent" horiz-adv-x="407" unicode="İ"/><glyph d="M51 0v1570h306v-1570h-306z" glyph-name="dotlessi" horiz-adv-x="407" unicode="ı"/><glyph d="M51 0v1570h306v-1570h-306zM780 560v-237q0 -82 65 -82t65 82v1247h305v-1249q0 -181 -96.5 -258.5t-274 -77.5t-274 77.5t-96.5 258.5v239h306z" glyph-name="IJ" horiz-adv-x="1266" unicode="Ĳ"/><glyph d="M355 425v-425h-304v1570h304v-640h14l177 640h304l-203 -732l218 -838h-290l-153 647zM275 -333v232h309v-87q0 -311 -87 -452h-169q39 152 36 307h-89z" glyph-name="Kcommaaccent" horiz-adv-x="890" unicode="Ķ"/><glyph d="M355 425v-425h-304v1570h304v-640h14l177 640h304l-203 -732l218 -838h-290l-153 647zM275 -333v232h309v-87q0 -311 -87 -452h-169q39 152 36 307h-89z" glyph-name="kcommaaccent" horiz-adv-x="890" unicode="ķ"/><glyph d="M435 1929l-90 -274h-268l90 274h268zM357 256h257v-256h-563v1570h306v-1314z" glyph-name="Lacute" horiz-adv-x="665" unicode="Ĺ"/><glyph d="M435 1929l-90 -274h-268l90 274h268zM357 256h257v-256h-563v1570h306v-1314z" glyph-name="lacute" horiz-adv-x="665" unicode="ĺ"/><glyph d="M357 256h257v-256h-563v1570h306v-1314zM184 -333v232h309v-87q0 -311 -87 -452h-169q39 152 36 307h-89z" glyph-name="Lcommaaccent" horiz-adv-x="665" unicode="Ļ"/><glyph d="M357 256h257v-256h-563v1570h306v-1314zM184 -333v232h309v-87q0 -311 -87 -452h-169q39 152 36 307h-89z" glyph-name="lcommaaccent" horiz-adv-x="665" unicode="ļ"/><glyph d="M357 1570v-1314h257v-256h-563v1570h306zM439 1570h341v-95q0 -341 -96 -499h-187q44 167 41 338h-99v256z" glyph-name="Lcaron" horiz-adv-x="856" unicode="Ľ"/><glyph d="M357 1570v-1314h257v-256h-563v1570h306zM439 1570h341v-95q0 -341 -96 -499h-187q44 167 41 338h-99v256z" glyph-name="lcaron" horiz-adv-x="856" unicode="ľ"/><glyph d="M357 1570v-1314h257v-256h-563v1570h306zM628 1053q68 0 116 -48t48 -114.5t-48 -114t-116 -47.5t-116 47.5t-48 114t48 114.5t116 48z" glyph-name="Ldot" horiz-adv-x="851" unicode="Ŀ"/><glyph d="M398 256h257v-256h-563v422l-92 -77v273l92 77v875h306v-618l216 183v-273l-216 -183v-423z" glyph-name="Lslash" horiz-adv-x="706" unicode="Ł"/><glyph d="M398 256h257v-256h-563v422l-92 -77v273l92 77v875h306v-618l216 183v-273l-216 -183v-423z" glyph-name="lslash" horiz-adv-x="706" unicode="ł"/><glyph d="M348 1655l91 274h268l-91 -274h-268zM51 0v1570h388l181 -1067h18l-8 209v858h281v-1570h-387l-181 1067h-19l9 -209v-858h-282z" glyph-name="Nacute" horiz-adv-x="962" unicode="Ń"/><glyph d="M348 1655l91 274h268l-91 -274h-268zM51 0v1570h388l181 -1067h18l-8 209v858h281v-1570h-387l-181 1067h-19l9 -209v-858h-282z" glyph-name="nacute" horiz-adv-x="962" unicode="ń"/><glyph d="M51 0v1570h388l181 -1067h18l-8 209v858h281v-1570h-387l-181 1067h-19l9 -209v-858h-282zM357 -640q39 152 36 307h-89v232h309v-87q0 -311 -87 -452h-169z" glyph-name="Ncommaaccent" horiz-adv-x="962" unicode="Ņ"/><glyph d="M51 0v1570h388l181 -1067h18l-8 209v858h281v-1570h-387l-181 1067h-19l9 -209v-858h-282zM357 -640q39 152 36 307h-89v232h309v-87q0 -311 -87 -452h-169z" glyph-name="ncommaaccent" horiz-adv-x="962" unicode="ņ"/><glyph d="M201 1929h221l47 -120h24l48 120h220l-109 -274h-341zM51 0v1570h388l181 -1067h18l-8 209v858h281v-1570h-387l-181 1067h-19l9 -209v-858h-282z" glyph-name="Ncaron" horiz-adv-x="962" unicode="Ň"/><glyph d="M201 1929h221l47 -120h24l48 120h220l-109 -274h-341zM51 0v1570h388l181 -1067h18l-8 209v858h281v-1570h-387l-181 1067h-19l9 -209v-858h-282z" glyph-name="ncaron" horiz-adv-x="962" unicode="ň"/><glyph d="M911 109h19v-145q0 -191 -99 -254t-326 -63v234q61 0 89.5 17.5t28.5 67.5v34h-99l-181 1067h-19l9 -209v-858h-282v1570h388l181 -1067h18l-8 209v858h281v-1461z" glyph-name="Eng" horiz-adv-x="981" unicode="Ŋ"/><glyph d="M911 109h19v-145q0 -191 -99 -254t-326 -63v234q61 0 89.5 17.5t28.5 67.5v34h-99l-181 1067h-19l9 -209v-858h-282v1570h388l181 -1067h18l-8 209v858h281v-1461z" glyph-name="eng" horiz-adv-x="981" unicode="ŋ"/><glyph d="M150 1674v246h543v-246h-543zM421.5 1585q177.5 0 274 -77.5t96.5 -258.5v-928q0 -181 -96.5 -258.5t-274 -77.5t-274 77.5t-96.5 258.5v928q0 181 96.5 258.5t274 77.5zM486 1248q0 82 -64.5 81.5t-64.5 -81.5v-925q0 -82 64.5 -82t64.5 82v925z" glyph-name="Omacron" unicode="Ō"/><glyph d="M150 1674v246h543v-246h-543zM421.5 1585q177.5 0 274 -77.5t96.5 -258.5v-928q0 -181 -96.5 -258.5t-274 -77.5t-274 77.5t-96.5 258.5v928q0 181 96.5 258.5t274 77.5zM486 1248q0 82 -64.5 81.5t-64.5 -81.5v-925q0 -82 64.5 -82t64.5 82v925z" glyph-name="omacron" unicode="ō"/><glyph d="M84 1666l90 273h268l-90 -273h-268zM468 1666l90 273h268l-90 -273h-268zM421.5 1585q177.5 0 274 -77.5t96.5 -258.5v-928q0 -181 -96.5 -258.5t-274 -77.5t-274 77.5t-96.5 258.5v928q0 181 96.5 258.5t274 77.5zM486 1248q0 82 -64.5 81.5t-64.5 -81.5v-925 q0 -82 64.5 -82t64.5 82v925z" glyph-name="Ohungarumlaut" unicode="Ő"/><glyph d="M84 1666l90 273h268l-90 -273h-268zM468 1666l90 273h268l-90 -273h-268zM421.5 1585q177.5 0 274 -77.5t96.5 -258.5v-928q0 -181 -96.5 -258.5t-274 -77.5t-274 77.5t-96.5 258.5v928q0 181 96.5 258.5t274 77.5zM486 1248q0 82 -64.5 81.5t-64.5 -81.5v-925 q0 -82 64.5 -82t64.5 82v925z" glyph-name="ohungarumlaut" unicode="ő"/><glyph d="M792 1314v-399h227v-253h-227v-406h232v-256h-457q-67 -15 -145 -15q-177 0 -274 77.5t-97 258.5v928q0 181 96.5 258.5t274.5 77.5q79 0 145 -15h457v-256h-232zM421.5 241q64.5 0 64.5 82v925q0 82 -64.5 81.5t-64.5 -81.5v-925q0 -82 64.5 -82z" glyph-name="OE" horiz-adv-x="1075" unicode="Œ"/><glyph d="M792 1314v-399h227v-253h-227v-406h232v-256h-457q-67 -15 -145 -15q-177 0 -274 77.5t-97 258.5v928q0 181 96.5 258.5t274.5 77.5q79 0 145 -15h457v-256h-232zM421.5 241q64.5 0 64.5 82v925q0 82 -64.5 81.5t-64.5 -81.5v-925q0 -82 64.5 -82z" glyph-name="oe" horiz-adv-x="1075" unicode="œ"/><glyph d="M655 1929l-90 -274h-268l90 274h268zM819 0h-275l-109 459h-78v-459h-306v1570h434q181 0 241.5 -73.5t60.5 -262.5v-457q0 -166 -103 -246zM357 1316v-623l76 2q31 2 43 21.5t12 60.5v455q0 48 -16 66t-59 18h-56z" glyph-name="Racute" horiz-adv-x="836" unicode="Ŕ"/><glyph d="M655 1929l-90 -274h-268l90 274h268zM819 0h-275l-109 459h-78v-459h-306v1570h434q181 0 241.5 -73.5t60.5 -262.5v-457q0 -166 -103 -246zM357 1316v-623l76 2q31 2 43 21.5t12 60.5v455q0 48 -16 66t-59 18h-56z" glyph-name="racute" horiz-adv-x="836" unicode="ŕ"/><glyph d="M357 459v-459h-306v1570h434q181 0 241.5 -73.5t60.5 -262.5v-457q0 -166 -103 -246l135 -531h-275l-109 459h-78zM413 1316h-56v-623l76 2q31 2 43 21.5t12 60.5v455q0 48 -16 66t-59 18zM253 -333v232h308v-87q0 -311 -87 -452h-169q39 152 36 307h-88z" glyph-name="Rcommaaccent" horiz-adv-x="836" unicode="Ŗ"/><glyph d="M357 459v-459h-306v1570h434q181 0 241.5 -73.5t60.5 -262.5v-457q0 -166 -103 -246l135 -531h-275l-109 459h-78zM413 1316h-56v-623l76 2q31 2 43 21.5t12 60.5v455q0 48 -16 66t-59 18zM253 -333v232h308v-87q0 -311 -87 -452h-169q39 152 36 307h-88z" glyph-name="rcommaaccent" horiz-adv-x="836" unicode="ŗ"/><glyph d="M601 1655h-342l-109 274h220l48 -120h24l48 120h220zM819 0h-275l-109 459h-78v-459h-306v1570h434q181 0 241.5 -73.5t60.5 -262.5v-457q0 -166 -103 -246zM357 1316v-623l76 2q31 2 43 21.5t12 60.5v455q0 48 -16 66t-59 18h-56z" glyph-name="Rcaron" horiz-adv-x="836" unicode="Ř"/><glyph d="M601 1655h-342l-109 274h220l48 -120h24l48 120h220zM819 0h-275l-109 459h-78v-459h-306v1570h434q181 0 241.5 -73.5t60.5 -262.5v-457q0 -166 -103 -246zM357 1316v-623l76 2q31 2 43 21.5t12 60.5v455q0 48 -16 66t-59 18h-56z" glyph-name="rcaron" horiz-adv-x="836" unicode="ř"/><glyph d="M290 1655l91 274h268l-91 -274h-268zM782 1024h-294v225q0 82 -65 82t-65 -82v-193q0 -48 32 -85t79.5 -59.5t103 -54t103.5 -67.5t79.5 -102.5t31.5 -156.5v-212q0 -179 -94 -256.5t-270 -77.5t-269 77.5t-93 256.5v227h294v-225q0 -82 67 -82q65 0 64 82v193 q0 48 -31.5 85.5t-79 59.5t-102.5 53.5t-102.5 67.5t-79 102.5t-31.5 156.5v212q0 179 93.5 256.5t268 77.5t267.5 -77.5t93 -256.5v-227z" glyph-name="Sacute" horiz-adv-x="837" unicode="Ś"/><glyph d="M290 1655l91 274h268l-91 -274h-268zM782 1024h-294v225q0 82 -65 82t-65 -82v-193q0 -48 32 -85t79.5 -59.5t103 -54t103.5 -67.5t79.5 -102.5t31.5 -156.5v-212q0 -179 -94 -256.5t-270 -77.5t-269 77.5t-93 256.5v227h294v-225q0 -82 67 -82q65 0 64 82v193 q0 48 -31.5 85.5t-79 59.5t-102.5 53.5t-102.5 67.5t-79 102.5t-31.5 156.5v212q0 179 93.5 256.5t268 77.5t267.5 -77.5t93 -256.5v-227z" glyph-name="sacute" horiz-adv-x="837" unicode="ś"/><glyph d="M358 1056q0 -48 32 -85t79.5 -59.5t103 -54t103.5 -67.5t79.5 -102.5t31.5 -156.5v-212q0 -287 -263 -328l-73 -63q63 -10 110.5 -51t47.5 -116q0 -67 -21 -109.5t-63 -62t-81.5 -26.5t-95.5 -7h-63v139h63q75 0 75 66q0 65 -75 65h-63v99l72 63q-295 26 -296 331v227 h294v-225q0 -82 67 -82q65 0 64 82v193q0 48 -31.5 85.5t-79 59.5t-102.5 53.5t-102.5 67.5t-79 102.5t-31.5 156.5v212q0 179 93.5 256.5t268 77.5t267.5 -77.5t93 -256.5v-227h-294v225q0 82 -65 82t-65 -82v-193z" glyph-name="Scedilla" horiz-adv-x="837" unicode="Ş"/><glyph d="M358 1056q0 -48 32 -85t79.5 -59.5t103 -54t103.5 -67.5t79.5 -102.5t31.5 -156.5v-212q0 -287 -263 -328l-73 -63q63 -10 110.5 -51t47.5 -116q0 -67 -21 -109.5t-63 -62t-81.5 -26.5t-95.5 -7h-63v139h63q75 0 75 66q0 65 -75 65h-63v99l72 63q-295 26 -296 331v227 h294v-225q0 -82 67 -82q65 0 64 82v193q0 48 -31.5 85.5t-79 59.5t-102.5 53.5t-102.5 67.5t-79 102.5t-31.5 156.5v212q0 179 93.5 256.5t268 77.5t267.5 -77.5t93 -256.5v-227h-294v225q0 82 -65 82t-65 -82v-193z" glyph-name="scedilla" horiz-adv-x="837" unicode="ş"/><glyph d="M143 1929h221l47 -120h24l48 120h220l-109 -274h-341zM782 1024h-294v225q0 82 -65 82t-65 -82v-193q0 -48 32 -85t79.5 -59.5t103 -54t103.5 -67.5t79.5 -102.5t31.5 -156.5v-212q0 -179 -94 -256.5t-270 -77.5t-269 77.5t-93 256.5v227h294v-225q0 -82 67 -82 q65 0 64 82v193q0 48 -31.5 85.5t-79 59.5t-102.5 53.5t-102.5 67.5t-79 102.5t-31.5 156.5v212q0 179 93.5 256.5t268 77.5t267.5 -77.5t93 -256.5v-227z" glyph-name="Scaron" horiz-adv-x="837" unicode="Š"/><glyph d="M143 1929h221l47 -120h24l48 120h220l-109 -274h-341zM782 1024h-294v225q0 82 -65 82t-65 -82v-193q0 -48 32 -85t79.5 -59.5t103 -54t103.5 -67.5t79.5 -102.5t31.5 -156.5v-212q0 -179 -94 -256.5t-270 -77.5t-269 77.5t-93 256.5v227h294v-225q0 -82 67 -82 q65 0 64 82v193q0 48 -31.5 85.5t-79 59.5t-102.5 53.5t-102.5 67.5t-79 102.5t-31.5 156.5v212q0 179 93.5 256.5t268 77.5t267.5 -77.5t93 -256.5v-227z" glyph-name="scaron" horiz-adv-x="837" unicode="š"/><glyph d="M507 0l-84 -72q63 -10 111 -51t48 -116q0 -67 -21.5 -109.5t-63 -62t-81 -26.5t-95.5 -7h-63v139h63q75 0 75 66q0 65 -75 65h-63v99l87 75h-101v1314h-201v256h708v-256h-201v-1314h-43z" glyph-name="Tcommaaccent" horiz-adv-x="793" unicode="Ţ"/><glyph d="M507 0l-84 -72q63 -10 111 -51t48 -116q0 -67 -21.5 -109.5t-63 -62t-81 -26.5t-95.5 -7h-63v139h63q75 0 75 66q0 65 -75 65h-63v99l87 75h-101v1314h-201v256h708v-256h-201v-1314h-43z" glyph-name="tcommaaccent" horiz-adv-x="793" unicode="ţ"/><glyph d="M567 1655h-342l-109 274h220l48 -120h24l48 120h220zM751 1570v-256h-201v-1314h-306v1314h-201v256h708z" glyph-name="Tcaron" horiz-adv-x="793" unicode="Ť"/><glyph d="M567 1655h-342l-109 274h220l48 -120h24l48 120h220zM751 1570v-256h-201v-1314h-306v1314h-201v256h708z" glyph-name="tcaron" horiz-adv-x="793" unicode="ť"/><glyph d="M765 997v-256h-215v-741h-306v741h-179v256h179v317h-201v256h708v-256h-201v-317h215z" glyph-name="Tbar" horiz-adv-x="807" unicode="Ŧ"/><glyph d="M765 997v-256h-215v-741h-306v741h-179v256h179v317h-201v256h708v-256h-201v-317h215z" glyph-name="tbar" horiz-adv-x="807" unicode="ŧ"/><glyph d="M150 1674v246h543v-246h-543zM792 1570v-1249q0 -181 -96.5 -258.5t-274 -77.5t-274 77.5t-96.5 258.5v1249h306v-1247q0 -82 64.5 -82t64.5 82v1247h306z" glyph-name="Umacron" unicode="Ū"/><glyph d="M150 1674v246h543v-246h-543zM792 1570v-1249q0 -181 -96.5 -258.5t-274 -77.5t-274 77.5t-96.5 258.5v1249h306v-1247q0 -82 64.5 -82t64.5 82v1247h306z" glyph-name="umacron" unicode="ū"/><glyph d="M421.5 1655q-158.5 0 -227 43t-68.5 162v69h200v-26q0 -61 95.5 -61.5t95.5 61.5v26h200v-69q0 -119 -68.5 -162t-227 -43zM792 1570v-1249q0 -181 -96.5 -258.5t-274 -77.5t-274 77.5t-96.5 258.5v1249h306v-1247q0 -82 64.5 -82t64.5 82v1247h306z" glyph-name="Ubreve" unicode="Ŭ"/><glyph d="M430 1655q-159 0 -227 43t-68 162v69h200v-26q0 -61 95.5 -61.5t95.5 61.5v26h199v-69q0 -119 -68 -162t-227 -43zM792 1570v-1249q0 -181 -96.5 -258.5t-274 -77.5t-274 77.5t-96.5 258.5v1249h306v-1247q0 -82 64.5 -82t64.5 82v1247h306z" glyph-name="ubreve" unicode="ŭ"/><glyph d="M422 1580q-87 0 -142.5 56.5t-55.5 140t55.5 139t142.5 55.5t142.5 -55.5t55.5 -139t-55.5 -140t-142.5 -56.5zM421.5 1719q25.5 0 41 16t15.5 41.5t-16.5 41t-40 15.5t-40 -15.5t-16.5 -41t15.5 -41.5t41 -16zM792 1570v-1249q0 -181 -96.5 -258.5t-274 -77.5t-274 77.5 t-96.5 258.5v1249h306v-1247q0 -82 64.5 -82t64.5 82v1247h306z" glyph-name="Uring" unicode="Ů"/><glyph d="M422 1580q-87 0 -142.5 56.5t-55.5 140t55.5 139t142.5 55.5t142.5 -55.5t55.5 -139t-55.5 -140t-142.5 -56.5zM421.5 1719q25.5 0 41 16t15.5 41.5t-16.5 41t-40 15.5t-40 -15.5t-16.5 -41t15.5 -41.5t41 -16zM792 1570v-1249q0 -181 -96.5 -258.5t-274 -77.5t-274 77.5 t-96.5 258.5v1249h306v-1247q0 -82 64.5 -82t64.5 82v1247h306z" glyph-name="uring" unicode="ů"/><glyph d="M84 1666l90 273h268l-90 -273h-268zM468 1666l90 273h268l-90 -273h-268zM792 1570v-1249q0 -181 -96.5 -258.5t-274 -77.5t-274 77.5t-96.5 258.5v1249h306v-1247q0 -82 64.5 -82t64.5 82v1247h306z" glyph-name="Uhungarumlaut" unicode="Ű"/><glyph d="M84 1666l90 273h268l-90 -273h-268zM468 1666l90 273h268l-90 -273h-268zM792 1570v-1249q0 -181 -96.5 -258.5t-274 -77.5t-274 77.5t-96.5 258.5v1249h306v-1247q0 -82 64.5 -82t64.5 82v1247h306z" glyph-name="uhungarumlaut" unicode="ű"/><glyph d="M486 1570h306v-1249q0 -297 -283 -331q-70 -14 -70 -79q0 -79 90 -78h99l-26 -205h-75q-169 0 -262.5 71.5t-93.5 184.5q0 80 46 136q-166 70 -166 301v1249h306v-1247q0 -82 64.5 -82t64.5 82v1247z" glyph-name="Uogonek" unicode="Ų"/><glyph d="M486 1570h306v-1249q0 -297 -283 -331q-70 -14 -70 -79q0 -79 90 -78h99l-26 -205h-75q-169 0 -262.5 71.5t-93.5 184.5q0 80 46 136q-166 70 -166 301v1249h306v-1247q0 -82 64.5 -82t64.5 82v1247z" glyph-name="uogonek" unicode="ų"/><glyph d="M454 1655l109 274h342l109 -274h-220l-48 120h-24l-48 -120h-220zM1128 1570h297l-125 -1570h-474l-84 1241h-17l-83 -1241h-475l-124 1570h297l71 -1242h17l91 1242h430l90 -1242h17z" glyph-name="Wcircumflex" horiz-adv-x="1467" unicode="Ŵ"/><glyph d="M454 1655l109 274h342l109 -274h-220l-48 120h-24l-48 -120h-220zM1128 1570h297l-125 -1570h-474l-84 1241h-17l-83 -1241h-475l-124 1570h297l71 -1242h17l91 1242h430l90 -1242h17z" glyph-name="wcircumflex" horiz-adv-x="1467" unicode="ŵ"/><glyph d="M444 1775l-48 -120h-220l109 274h341l110 -274h-221l-47 120h-24zM585 1570h292l-271 -1012v-558h-301v558l-271 1012h292l121 -573h17z" glyph-name="Ycircumflex" horiz-adv-x="911" unicode="Ŷ"/><glyph d="M444 1775l-48 -120h-220l109 274h341l110 -274h-221l-47 120h-24zM585 1570h292l-271 -1012v-558h-301v558l-271 1012h292l121 -573h17z" glyph-name="ycircumflex" horiz-adv-x="911" unicode="ŷ"/><glyph d="M282 1676q-53 0 -89 36.5t-36 89.5t36 90t89 37t88.5 -37t35.5 -90t-35.5 -89.5t-88.5 -36.5zM630 1676q-53 0 -89 36.5t-36 89.5t36 90t89 37t88.5 -37t35.5 -90t-35.5 -89.5t-88.5 -36.5zM585 1570h292l-271 -1012v-558h-301v558l-271 1012h292l121 -573h17z" glyph-name="Ydieresis" horiz-adv-x="911" unicode="Ÿ"/><glyph d="M247 1655l91 274h268l-91 -274h-268zM51 0v256l365 1036v22h-349v256h643v-256l-375 -1036v-22h366v-256h-650z" glyph-name="Zacute" horiz-adv-x="761" unicode="Ź"/><glyph d="M247 1655l91 274h268l-91 -274h-268zM51 0v256l365 1036v22h-349v256h643v-256l-375 -1036v-22h366v-256h-650z" glyph-name="zacute" horiz-adv-x="761" unicode="ź"/><glyph d="M380.5 1676q-54.5 0 -93 36.5t-38.5 89.5t38.5 90t93 37t93 -37t38.5 -90t-38.5 -89.5t-93 -36.5zM51 0v256l365 1036v22h-349v256h643v-256l-375 -1036v-22h366v-256h-650z" glyph-name="Zdotaccent" horiz-adv-x="761" unicode="Ż"/><glyph d="M380.5 1676q-54.5 0 -93 36.5t-38.5 89.5t38.5 90t93 37t93 -37t38.5 -90t-38.5 -89.5t-93 -36.5zM51 0v256l365 1036v22h-349v256h643v-256l-375 -1036v-22h366v-256h-650z" glyph-name="zdotaccent" horiz-adv-x="761" unicode="ż"/><glyph d="M101 1929h220l48 -120h24l47 120h220l-109 -274h-341zM51 0v256l365 1036v22h-349v256h643v-256l-375 -1036v-22h366v-256h-650z" glyph-name="Zcaron" horiz-adv-x="761" unicode="Ž"/><glyph d="M101 1929h220l48 -120h24l47 120h220l-109 -274h-341zM51 0v256l365 1036v22h-349v256h643v-256l-375 -1036v-22h366v-256h-650z" glyph-name="zcaron" horiz-adv-x="761" unicode="ž"/><glyph d="M1236 1022h-306v222q0 82 -65 82t-65 -82v-339h224v-239h-224v-345q0 -181 -96 -258.5t-273.5 -77.5t-274 77.5t-96.5 258.5v227h305v-225q0 -82 65 -82t65 82v343h-222v239h222v341q0 181 96.5 258.5t274 77.5t274 -77.5t96.5 -258.5v-224z" glyph-name="florin" horiz-adv-x="1286" unicode="ƒ"/><glyph d="M623 1655h-341l-110 274h221l47 -120h24l48 120h220zM579 0l-24 270h-202l-24 -270h-295l155 1570h530l155 -1570h-295zM374 526h160l-66 768h-28z" glyph-name="uni01CD" horiz-adv-x="907" unicode="Ǎ"/><glyph d="M623 1655h-341l-110 274h221l47 -120h24l48 120h220zM579 0l-24 270h-202l-24 -270h-295l155 1570h530l155 -1570h-295zM374 526h160l-66 768h-28z" glyph-name="uni01CE" horiz-adv-x="907" unicode="ǎ"/><glyph d="M-75 1929h220l48 -120h24l48 120h220l-110 -274h-341zM51 0v1570h306v-1570h-306z" glyph-name="uni01CF" horiz-adv-x="407" unicode="Ǐ"/><glyph d="M-75 1929h220l48 -120h24l48 120h220l-110 -274h-341zM51 0v1570h306v-1570h-306z" glyph-name="uni01D0" horiz-adv-x="407" unicode="ǐ"/><glyph d="M142 1929h220l48 -120h23l48 120h220l-109 -274h-341zM421.5 1585q177.5 0 274 -77.5t96.5 -258.5v-928q0 -181 -96.5 -258.5t-274 -77.5t-274 77.5t-96.5 258.5v928q0 181 96.5 258.5t274 77.5zM486 1248q0 82 -64.5 81.5t-64.5 -81.5v-925q0 -82 64.5 -82t64.5 82v925z " glyph-name="uni01D1" unicode="Ǒ"/><glyph d="M142 1929h220l48 -120h23l48 120h220l-109 -274h-341zM421.5 1585q177.5 0 274 -77.5t96.5 -258.5v-928q0 -181 -96.5 -258.5t-274 -77.5t-274 77.5t-96.5 258.5v928q0 181 96.5 258.5t274 77.5zM486 1248q0 82 -64.5 81.5t-64.5 -81.5v-925q0 -82 64.5 -82t64.5 82v925z " glyph-name="uni01D2" unicode="ǒ"/><glyph d="M142 1929h220l48 -120h23l48 120h220l-109 -274h-341zM792 1570v-1249q0 -181 -96.5 -258.5t-274 -77.5t-274 77.5t-96.5 258.5v1249h306v-1247q0 -82 64.5 -82t64.5 82v1247h306z" glyph-name="uni01D3" unicode="Ǔ"/><glyph d="M142 1929h220l48 -120h23l48 120h220l-109 -274h-341zM792 1570v-1249q0 -181 -96.5 -258.5t-274 -77.5t-274 77.5t-96.5 258.5v1249h306v-1247q0 -82 64.5 -82t64.5 82v1247h306z" glyph-name="uni01D4" unicode="ǔ"/><glyph d="M421.5 1585q177.5 0 274 -77.5t96.5 -258.5v-928q0 -276 -244 -324v-11q-90 -10 -91 -78q0 -75 91 -75h99l-26 -205h-75q-169 0 -263 71.5t-94 181.5q0 79 52 129q-189 67 -190 311v928q0 181 96.5 258.5t274 77.5zM357 1248v-925q0 -82 64.5 -82t64.5 82v925 q0 82 -64.5 82t-64.5 -82z" glyph-name="uni01EA" unicode="Ǫ"/><glyph d="M782 1024h-294v225q0 82 -65 82t-65 -82v-193q0 -48 32 -85t79.5 -59.5t103 -54t103.5 -67.5t79.5 -102.5t31.5 -156.5v-212q0 -179 -94 -256.5t-270 -77.5t-269 77.5t-93 256.5v227h294v-225q0 -82 67 -82q65 0 64 82v193q0 48 -31.5 85.5t-79 59.5t-102.5 53.5 t-102.5 67.5t-79 102.5t-31.5 156.5v212q0 179 93.5 256.5t268 77.5t267.5 -77.5t93 -256.5v-227zM299 -640q39 152 36 307h-89v232h309v-87q0 -311 -87 -452h-169z" glyph-name="Scommaaccent" horiz-adv-x="837" unicode="Ș"/><glyph d="M782 1024h-294v225q0 82 -65 82t-65 -82v-193q0 -48 32 -85t79.5 -59.5t103 -54t103.5 -67.5t79.5 -102.5t31.5 -156.5v-212q0 -179 -94 -256.5t-270 -77.5t-269 77.5t-93 256.5v227h294v-225q0 -82 67 -82q65 0 64 82v193q0 48 -31.5 85.5t-79 59.5t-102.5 53.5 t-102.5 67.5t-79 102.5t-31.5 156.5v212q0 179 93.5 256.5t268 77.5t267.5 -77.5t93 -256.5v-227zM299 -640q39 152 36 307h-89v232h309v-87q0 -311 -87 -452h-169z" glyph-name="scommaaccent" horiz-adv-x="837" unicode="ș"/><glyph d="M751 1570v-256h-201v-1314h-306v1314h-201v256h708zM218 -333v232h309v-87q0 -311 -87 -452h-169q39 152 36 307h-89z" glyph-name="uni021A" horiz-adv-x="793" unicode="Ț"/><glyph d="M751 1570v-256h-201v-1314h-306v1314h-201v256h708zM218 -333v232h309v-87q0 -311 -87 -452h-169q39 152 36 307h-89z" glyph-name="uni021B" horiz-adv-x="793" unicode="ț"/><glyph d="M0 1161l109 273h342l109 -273h-220l-48 119h-24l-48 -119h-220z" glyph-name="circumflex" horiz-adv-x="559" unicode="ˆ"/><glyph d="M0 1434h220l48 -120h24l48 120h220l-109 -273h-342z" glyph-name="caron" horiz-adv-x="559" unicode="ˇ"/><glyph d="M295.5 1161q-158.5 0 -227 42.5t-68.5 161.5v69h200v-26q0 -61 95.5 -61t95.5 61v26h200v-69q0 -119 -68.5 -161.5t-227 -42.5z" glyph-name="breve" horiz-adv-x="590" unicode="˘"/><glyph d="M131.5 1181q-54.5 0 -93 36.5t-38.5 89.5t38.5 90t93 37t93 -37t38.5 -90t-38.5 -89.5t-93 -36.5z" glyph-name="dotaccent" horiz-adv-x="262" unicode="˙"/><glyph d="M198 1085q-87 0 -142.5 56.5t-55.5 140t55.5 139t142.5 55.5t142.5 -55.5t55.5 -139t-55.5 -140t-142.5 -56.5zM198 1224q24 0 40 16t16 41.5t-16 41t-40 15.5t-40 -15.5t-16 -41t16 -41.5t40 -16z" glyph-name="ring" horiz-adv-x="395" unicode="˚"/><glyph d="M457 0h-95q-94 0 -94 -83.5t94 -83.5h95l-25 -205h-75q-172 0 -264.5 77t-92.5 211q0 128 94 191.5t263 63.5h100v-171z" glyph-name="ogonek" horiz-adv-x="457" unicode="˛"/><glyph d="M483 1155q-70 0 -114.5 29t-77 58t-71.5 29q-38 0 -62.5 -20t-26.5 -56h-131q-2 119 53.5 178t156.5 59q70 0 114.5 -29t76.5 -58t72 -29q38 0 62.5 20.5t25.5 56.5h132q2 -119 -53.5 -178.5t-156.5 -59.5z" glyph-name="tilde" horiz-adv-x="692" unicode="˜"/><glyph d="M0 1161l90 273h268l-90 -273h-268zM384 1161l90 273h268l-90 -273h-268z" glyph-name="hungarumlaut" horiz-adv-x="742" unicode="˝"/><glyph d="M-295 -640q39 152 36 307h-89v232h309v-87q0 -311 -87 -452h-169z" glyph-name="uni0326" horiz-adv-x="0" unicode="̦"/><glyph d="M719 1570l155 -1570h-840l155 1570h530zM353 273h202l-87 1021h-28z" glyph-name="Delta" horiz-adv-x="907" unicode="Δ"/><glyph d="M949 273h142v-273h-449v1237q0 85 -75 85.5t-75 -85.5v-1237h-449v273h141v966q0 193 97.5 272.5t285 79.5t285 -79.5t97.5 -272.5v-966z" glyph-name="Omega" horiz-adv-x="1133" unicode="Ω"/><glyph d="M486 1570h306v-1249q0 -181 -96.5 -258.5t-273.5 -77.5q-38 0 -55 1v-242h-307v480q-9 48 -9 97v1249h316v-1300q17 -29 55 -29q65 0 64 82v1247z" glyph-name="mu" unicode="μ"/><glyph d="M1201 1297h-170v-904q0 -137 145 -137l-51 -268q-201 0 -301 79.5t-100 272.5v957h-195v-1297h-307v1297h-171v273h1150v-273z" glyph-name="pi" horiz-adv-x="1252" unicode="π"/><glyph d="M870 1655h-268l-90 274h268zM1128 1570h297l-125 -1570h-474l-84 1241h-17l-83 -1241h-475l-124 1570h297l71 -1242h17l91 1242h430l90 -1242h17z" glyph-name="Wgrave" horiz-adv-x="1467" unicode="Ẁ"/><glyph d="M870 1655h-268l-90 274h268zM1128 1570h297l-125 -1570h-474l-84 1241h-17l-83 -1241h-475l-124 1570h297l71 -1242h17l91 1242h430l90 -1242h17z" glyph-name="wgrave" horiz-adv-x="1467" unicode="ẁ"/><glyph d="M601 1655l90 274h268l-90 -274h-268zM1128 1570h297l-125 -1570h-474l-84 1241h-17l-83 -1241h-475l-124 1570h297l71 -1242h17l91 1242h430l90 -1242h17z" glyph-name="Wacute" horiz-adv-x="1467" unicode="Ẃ"/><glyph d="M601 1655l90 274h268l-90 -274h-268zM1128 1570h297l-125 -1570h-474l-84 1241h-17l-83 -1241h-475l-124 1570h297l71 -1242h17l91 1242h430l90 -1242h17z" glyph-name="wacute" horiz-adv-x="1467" unicode="ẃ"/><glyph d="M560 1676q-53 0 -89 36.5t-36 89.5t36 90t89 37t88.5 -37t35.5 -90t-35.5 -89.5t-88.5 -36.5zM908 1676q-53 0 -89 36.5t-36 89.5t36 90t89 37t89 -37t36 -90t-36 -89.5t-89 -36.5zM1128 1570h297l-125 -1570h-474l-84 1241h-17l-83 -1241h-475l-124 1570h297l71 -1242 h17l91 1242h430l90 -1242h17z" glyph-name="Wdieresis" horiz-adv-x="1467" unicode="Ẅ"/><glyph d="M560 1676q-53 0 -89 36.5t-36 89.5t36 90t89 37t88.5 -37t35.5 -90t-35.5 -89.5t-88.5 -36.5zM908 1676q-53 0 -89 36.5t-36 89.5t36 90t89 37t89 -37t36 -90t-36 -89.5t-89 -36.5zM1128 1570h297l-125 -1570h-474l-84 1241h-17l-83 -1241h-475l-124 1570h297l71 -1242 h17l91 1242h430l90 -1242h17z" glyph-name="wdieresis" horiz-adv-x="1467" unicode="ẅ"/><glyph d="M689 923q157 -56 158 -285v-339q0 -172 -66 -235.5t-238 -63.5h-142v239h50q48 0 69 24.5t21 86.5v241q0 61 -21.5 87.5t-68.5 26.5h-50v239l114 387h-158v-1331h-306v1570h833z" glyph-name="uni1E9E" horiz-adv-x="935" unicode="ẞ"/><glyph d="M592 1655h-268l-90 274h268zM585 1570h292l-271 -1012v-558h-301v558l-271 1012h292l121 -573h17z" glyph-name="Ygrave" horiz-adv-x="911" unicode="Ỳ"/><glyph d="M592 1655h-268l-90 274h268zM585 1570h292l-271 -1012v-558h-301v558l-271 1012h292l121 -573h17z" glyph-name="ygrave" horiz-adv-x="911" unicode="ỳ"/><glyph d="M51 649v273h1255v-273h-1255z" glyph-name="endash" horiz-adv-x="1356" unicode="–"/><glyph d="M51 649v273h1400v-273h-1400z" glyph-name="emdash" horiz-adv-x="1501" unicode="—"/><glyph d="M331 1570q-48 -294 -36 -485h106v-262h-341v78q0 389 99 669h172z" glyph-name="quoteleft" horiz-adv-x="460" unicode="‘"/><glyph d="M130 823q48 294 36 484h-106v263h341v-78q0 -389 -99 -669h-172z" glyph-name="quoteright" horiz-adv-x="460" unicode="’"/><glyph d="M118 -338q44 167 41 338h-99v256h341v-96q0 -341 -96 -498h-187z" glyph-name="quotesinglbase" horiz-adv-x="460" unicode="‚"/><glyph d="M331 1570q-48 -294 -36 -485h106v-262h-341v78q0 389 99 669h172zM724 1570q-48 -294 -36 -485h106v-262h-342v78q0 389 99 669h173z" glyph-name="quotedblleft" horiz-adv-x="853" unicode="“"/><glyph d="M130 823q48 294 36 484h-106v263h341v-78q0 -389 -99 -669h-172zM522 823q48 294 36 484h-106v263h342v-78q0 -389 -99 -669h-173z" glyph-name="quotedblright" horiz-adv-x="853" unicode="”"/><glyph d="M130 -375q48 294 36 484h-106v263h341v-78q0 -389 -99 -669h-172zM522 -375q48 294 36 484h-106v263h342v-78q0 -389 -99 -669h-173z" glyph-name="quotedblbase" horiz-adv-x="853" unicode="„"/><glyph d="M1015 1393v-290h-315v-316h-307v316h-316v290h316v315h307v-315h315z" glyph-name="dagger" horiz-adv-x="1092" unicode="†"/><glyph d="M700 1393h315v-290h-315v-316h-307v316h-316v290h316v315h307v-315zM700 778v-315h315v-291h-315v-315h-307v315h-316v291h316v315h307z" glyph-name="daggerdbl" horiz-adv-x="1092" unicode="‡"/><glyph d="M393 512q-113 0 -193.5 80t-80.5 193t80.5 193t193.5 80q111 0 191 -80t80 -193t-80 -193t-191 -80z" glyph-name="bullet" horiz-adv-x="783" unicode="•"/><glyph d="M215 -27q-68 0 -116 47.5t-48 114t48 114.5t116 48t116 -48t48 -114.5t-48 -114t-116 -47.5zM681 -27q-68 0 -116 47.5t-48 114t48 114.5t116 48t116 -48t48 -114.5t-48 -114t-116 -47.5zM1147 -27q-68 0 -116 47.5t-48 114t48 114.5t116 48t116 -48t48 -114.5t-48 -114 t-116 -47.5z" glyph-name="ellipsis" horiz-adv-x="1361" unicode="…"/><glyph d="M401 1592q169 0 259.5 -81t90.5 -270v-294q0 -189 -90.5 -270t-259.5 -81t-259.5 81t-90.5 270v294q0 189 90.5 270t259.5 81zM471 0l686 1570h290l-686 -1570h-290zM466 1253q0 84 -65 83.5t-65 -83.5v-318q0 -84 65 -83.5t65 83.5v318zM1517 -22q-169 0 -259.5 81 t-90.5 270v294q0 189 90.5 270.5t259.5 81.5t259.5 -81.5t90.5 -270.5v-294q0 -189 -90.5 -270t-259.5 -81zM2312.5 -22q-168.5 0 -259 81t-90.5 270v294q0 189 90.5 270.5t259 81.5t259 -81.5t90.5 -270.5v-294q0 -189 -90.5 -270t-259 -81zM1452 317q0 -84 65 -83.5 t65 83.5v318q0 84 -65 84t-65 -84v-318zM2248 317q0 -84 64.5 -83.5t64.5 83.5v318q0 84 -64.5 84t-64.5 -84v-318z" glyph-name="perthousand" horiz-adv-x="2713" unicode="‰"/><glyph d="M725 239h-309l-331 478l331 478h309l-331 -478z" glyph-name="guilsinglleft" horiz-adv-x="810" unicode="‹"/><glyph d="M85 239l331 478l-331 478h309l331 -478l-331 -478h-309z" glyph-name="guilsinglright" horiz-adv-x="810" unicode="›"/><glyph d="M886 1004h-306v244q0 82 -64.5 81.5t-64.5 -81.5v-335h286v-90h-286v-79h286v-90h-286v-335q0 -82 64.5 -82t64.5 82v248h306v-250q0 -181 -96.5 -258.5t-274 -77.5t-274 78t-96.5 258v337h-94v90h94v79h-94v90h94v336q0 181 96.5 258.5t274 77.5t274 -77.5t96.5 -258.5 v-245z" glyph-name="Euro" horiz-adv-x="936" unicode="€"/><glyph d="M1302 1582q162 0 240.5 -76t78.5 -257v-370q0 -181 -77.5 -256t-241.5 -75t-241.5 75t-77.5 256v370q0 181 78.5 257t240.5 76zM51 0v1570h398l148 -1067h19l-8 209v858h286v-1570h-380l-166 1067h-19l9 -209v-858h-287zM1353 1249q0 44 -12.5 60.5t-38 16.5t-38.5 -16 t-13 -61v-360q0 -44 13 -60.5t38.5 -16.5t38 16.5t12.5 60.5v360zM983 0v273h638v-273h-638z" glyph-name="afii61352" horiz-adv-x="1672" unicode="№"/><glyph d="M230 1570v-61h-59v-285h-69v285h-59v61h187zM445 1570h118v-346h-65v280h-10l-29 -280h-89l-29 280h-10v-280h-65v346h118l26 -285h10z" glyph-name="trademark" horiz-adv-x="605" unicode="™"/><glyph d="M418 -15q-179 0 -273 77.5t-94 256.5v328q0 171 81 241.5t203 70.5q94 0 148 -54l2 356q0 82 -65 82q-63 0 -63 -82v-220h-297v224q0 179 91 256.5t269 77.5q179 0 273.5 -77.5t94.5 -256.5v-946q0 -179 -95.5 -256.5t-274.5 -77.5zM420 241q65 0 65 82v295q0 82 -65 82 t-65 -82v-295q0 -82 65 -82z" glyph-name="partialdiff" horiz-adv-x="839" unicode="∂"/><glyph d="M816 1570v-1570h-307v1297h-151v-1297h-307v1570h765z" glyph-name="product" horiz-adv-x="866" unicode="∏"/><glyph d="M51 0v273l295 497l-295 527v273h632v-273h-313l282 -505v-44l-282 -475h313v-273h-632z" glyph-name="summation" horiz-adv-x="733" unicode="∑"/><glyph d="M51 640v290h912v-290h-912z" glyph-name="minus" horiz-adv-x="1013" unicode="−"/><glyph d="M637 1570h295l-169 -1570h-522l-70 652h-137v273h393l61 -649h27z" glyph-name="radical" horiz-adv-x="965" unicode="√"/><glyph d="M1027 1068q145 0 220.5 -95.5t75.5 -253.5q0 -162 -75.5 -258t-220.5 -96q-101 0 -175 54.5t-149 159.5q-75 -104 -148.5 -159t-173.5 -55q-147 0 -222 95.5t-75 258.5q0 159 75 254t222 95q101 0 174 -54.5t148 -158.5q75 104 149 158.5t175 54.5zM410 560q49 0 86.5 34 t109.5 125q-49 63 -72.5 88.5t-56.5 47t-67 21.5q-65 0 -95 -44t-30 -113q0 -159 125 -159zM997 560q125 0 124 159q0 70 -29.5 113.5t-94.5 43.5q-49 0 -87 -33.5t-110 -123.5q49 -63 72.5 -90t57 -48t67.5 -21z" glyph-name="infinity" horiz-adv-x="1406" unicode="∞"/><glyph d="M865.5 1582q177.5 0 274 -77.5t96.5 -258.5v-224h-306v222q0 82 -65 82t-65 -82v-923q0 -181 -96 -258.5t-273.5 -77.5t-274 77.5t-96.5 258.5v227h305v-225q0 -82 65 -82t65 82v923q0 181 96.5 258.5t274 77.5z" glyph-name="integral" horiz-adv-x="1286" unicode="∫"/><glyph d="M543 783q-70 0 -114.5 29t-77 58t-71.5 29q-38 0 -62.5 -20.5t-26.5 -55.5h-131q-2 119 53.5 178t156.5 59q70 0 114 -29t76.5 -58t71.5 -29q38 0 63 20.5t26 56.5h132q2 -119 -53.5 -178.5t-156.5 -59.5zM543 394q-70 0 -114.5 29t-77 58t-71.5 29q-38 0 -62.5 -20.5 t-26.5 -56.5h-131q-2 119 53.5 178.5t156.5 59.5q70 0 114 -29t76.5 -58t71.5 -29q38 0 63 20.5t26 55.5h132q2 -119 -53.5 -178t-156.5 -59z" glyph-name="approxequal" horiz-adv-x="803" unicode="≈"/><glyph d="M980 858h-299l-15 -145h314v-290h-345l-46 -423h-282l43 423h-282v290h309l16 145h-325v291h354l41 421h295l-46 -421h268v-291z" glyph-name="notequal" horiz-adv-x="1047" unicode="≠"/><glyph d="M517 411l-461 393v338l461 392v-307l-266 -242v-24l266 -242v-308zM51 48v290h461v-290h-461z" glyph-name="lessequal" horiz-adv-x="568" unicode="≤"/><glyph d="M51 411v308l266 242v24l-266 242v307l461 -392v-338zM517 48h-461v290h461v-290z" glyph-name="greaterequal" horiz-adv-x="568" unicode="≥"/><glyph d="M171 0l-120 785l120 785h522l119 -785l-119 -785h-522zM418 276h27l76 509l-76 509h-27l-75 -509z" glyph-name="lozenge" horiz-adv-x="863" unicode="◊"/><glyph d="M792 1027h-304v221q0 82 -66.5 81.5t-66.5 -81.5v-925q0 -46 18 -64t55 -18q75 0 75 82v291l6 43h-87v246h370v-903h-113l-27 138q-26 -82 -88 -117.5t-170 -35.5q-343 0 -343 336v928q0 181 96.5 258.5t274 77.5t274 -77.5t96.5 -258.5v-222z" glyph-name="G.aalt"/><glyph d="M204.5 1676q-54.5 0 -93 36.5t-38.5 89.5t38.5 90t93 37t93 -37t38.5 -90t-38.5 -89.5t-93 -36.5zM51 0v1570h306v-1570h-306z" glyph-name="i.aalt" horiz-adv-x="407"/><glyph d="M792 1027h-304v221q0 82 -66.5 81.5t-66.5 -81.5v-925q0 -46 18 -64t55 -18q75 0 75 82v291l6 43h-87v246h370v-903h-113l-27 138q-26 -82 -88 -117.5t-170 -35.5q-343 0 -343 336v928q0 181 96.5 258.5t274 77.5t274 -77.5t96.5 -258.5v-222z" glyph-name="g.aalt"/></font>
</defs>
</svg>
