<?xml version="1.0" standalone="no"?>
<!DOCTYPE svg PUBLIC "-//W3C//DTD SVG 1.1//EN" "http://www.w3.org/Graphics/SVG/1.1/DTD/svg11.dtd">
<svg xmlns="http://www.w3.org/2000/svg"><metadata>This SVG WebFont was generated by YouWorkForThem.
© 2017 Connary Fagen</metadata><defs><font horiz-adv-x="802" id="ywftsvg"><font-face ascent="1638" bbox="-294 -613 2471 1956" cap-height="1570" descent="-410" font-family="" font-stretch="normal" font-weight="600" panose-1="0 0 7 0 0 0 0 0 0 0" underline-position="0" underline-thickness="0" unicode-range="U+0020-25CA" units-per-em="2048" x-height="1570"/><missing-glyph d="M749 1570v-1826h-578v1826h578zM608 1447h-301v-59h118v-69h-120v-59h303v59h-120v69h120v59zM488 1212h-183v-190h303v62h-120v128zM425 1150v-66h-60v66h60zM608 973h-303v-60h120v-68h-120v-60h183v128h120v60zM608 864h-60v-122h-243v-61h303v183zM608 640h-183v-102 h63v42h60v-85h-183v145h-60v-207h303v207zM608 324h-303v-206h303v206zM548 265v-86h-183v86h183zM608 77h-303v-62h128l-128 -85v-60h303v60h-186l128 85h58v62z" horiz-adv-x="913"/><glyph d="M749 1570v-1826h-578v1826h578zM608 1447h-301v-59h118v-69h-120v-59h303v59h-120v69h120v59zM488 1212h-183v-190h303v62h-120v128zM425 1150v-66h-60v66h60zM608 973h-303v-60h120v-68h-120v-60h183v128h120v60zM608 864h-60v-122h-243v-61h303v183zM608 640h-183v-102 h63v42h60v-85h-183v145h-60v-207h303v207zM608 324h-303v-206h303v206zM548 265v-86h-183v86h183zM608 77h-303v-62h128l-128 -85v-60h303v60h-186l128 85h58v62z" glyph-name=".notdef" horiz-adv-x="913"/><glyph glyph-name="glyph1" horiz-adv-x="0"/><glyph glyph-name="glyph2" horiz-adv-x="682"/><glyph glyph-name="space" horiz-adv-x="273" unicode=" "/><glyph d="M101 394l-36 1176h258l-38 -1176h-184zM193 -24q-56 0 -96.5 40t-40.5 97q0 55 40.5 94.5t96.5 39.5q58 0 98 -40t40 -94q0 -56 -40 -96.5t-98 -40.5z" glyph-name="exclam" horiz-adv-x="387" unicode="!"/><glyph d="M104 831l-19 739h239l-17 -739h-203zM445 831l-18 739h239l-17 -739h-204z" glyph-name="quotedbl" horiz-adv-x="750" unicode="&quot;"/><glyph d="M944 1041h-120v-512h120v-225h-120v-304h-239v304h-177v-304h-239v304h-118v225h118v512h-118v225h118v304h239v-304h177v304h239v-304h120v-225zM585 529v512h-177v-512h177z" glyph-name="numbersign" horiz-adv-x="994" unicode="#"/><glyph d="M314 1029q0 -46 30.5 -82t77.5 -58t101 -52.5t101 -65.5t77.5 -98.5t30.5 -146.5v-81q0 -253 -232 -291v-154h-198v154q-232 39 -232 305v149h244v-147q0 -106 87 -106q85 0 85 106v78q0 46 -30.5 82t-76.5 58t-100.5 53t-101 66t-77 98t-30.5 147v80q0 253 232 292v155 h198v-155q229 -43 229 -306v-146h-244v145q0 106 -85.5 105.5t-85.5 -105.5v-79z" glyph-name="dollar" horiz-adv-x="793" unicode="$"/><glyph d="M385.5 1592q153.5 0 236.5 -75t83 -252v-318q0 -177 -83.5 -253t-235.5 -76q-154 0 -237.5 76t-83.5 253v318q0 177 83.5 252t237 75zM445 0l664 1570h239l-664 -1570h-239zM471 1273q0 108 -85.5 108t-85.5 -108v-336q0 -108 85.5 -108t85.5 108v336zM1409.5 -22 q-153.5 0 -237 75t-83.5 252v318q0 177 83.5 253t237.5 76q152 0 235.5 -76t83.5 -253v-318q0 -177 -83 -252t-236.5 -75zM1324 297q0 -108 85.5 -108t85.5 108v336q0 108 -85.5 108t-85.5 -108v-336z" glyph-name="percent" horiz-adv-x="1793" unicode="%"/><glyph d="M741 884v-587q0 -169 -86.5 -242.5t-246.5 -73.5q-338 0 -338 316v239q0 172 135 241v11q-123 65 -123 224v273q0 160 84.5 230t241.5 70q159 0 243.5 -69.5t84.5 -230.5v-223h-243v211q0 101 -85 101t-85 -101v-287q0 -104 88 -104zM495 294v385h-84q-90 0 -90 -106 v-279q0 -101 87 -101t87 101z" glyph-name="ampersand" unicode="&amp;"/><glyph d="M104 831l-19 739h239l-17 -739h-203z" glyph-name="quotesingle" horiz-adv-x="409" unicode="'"/><glyph d="M604 -179q-96 0 -172.5 18.5t-131 59.5t-94.5 88t-66 122t-41 141t-23 166.5t-9.5 176.5t-1.5 192q0 102 1.5 170.5t7 160t15.5 152t29.5 133t47 119.5t68.5 94t93 74t122 44t155 17v-211q-65 0 -113.5 -22.5t-80 -72t-51 -107.5t-29 -152.5t-13 -181.5t-3.5 -217 t3.5 -217t13 -181.5t29 -152.5t51 -107.5t80 -72t113.5 -22.5v-211z" glyph-name="parenleft" horiz-adv-x="651" unicode="("/><glyph d="M48 -179v211q65 0 113.5 22.5t80 72t51 107.5t29 152.5t13 181.5t3.5 217t-3.5 217t-13 181.5t-29 152.5t-51 107.5t-80 72t-113.5 22.5v211q85 0 155 -17t122 -44t93 -74t68.5 -94t47 -119.5t29.5 -133t15.5 -152t7 -160t1.5 -170.5q0 -116 -1.5 -192t-9.5 -176.5 t-23 -166.5t-41 -141t-66 -122t-94.5 -88t-131 -59.5t-172.5 -18.5z" glyph-name="parenright" horiz-adv-x="651" unicode=")"/><glyph d="M952 1275l-303 -157l303 -157l-80 -138l-287 184l16 -341h-161l16 341l-287 -184l-80 138l304 157l-304 157l80 138l287 -184l-16 341h161l-16 -341l287 184z" glyph-name="asterisk" horiz-adv-x="1041" unicode="*"/><glyph d="M935 905v-239h-300v-301h-253v301h-300v239h300v300h253v-300h300z" glyph-name="plus" horiz-adv-x="1017" unicode="+"/><glyph d="M113 -331q43 166 39 331h-87v212h287v-84q0 -300 -84 -459h-155z" glyph-name="comma" horiz-adv-x="416" unicode=","/><glyph d="M65 672v226h444v-226h-444z" glyph-name="hyphen" horiz-adv-x="573" unicode="-"/><glyph d="M191 -24q-56 0 -96 40t-40 97q0 55 40 94.5t96 39.5q58 0 98 -40t40 -94q0 -56 -40 -96.5t-98 -40.5z" glyph-name="period" horiz-adv-x="384" unicode="."/><glyph d="M79 0l170 1570h244l-182 -1570h-232z" glyph-name="slash" horiz-adv-x="571" unicode="/"/><glyph d="M401 1585q160 0 248 -72.5t88 -242.5v-970q0 -171 -88 -243t-248 -72q-336 0 -336 315v970q0 315 336 315zM486 1268q0 106 -85 106t-85 -106v-966q0 -106 85 -106t85 106v966z" glyph-name="zero" unicode="0"/><glyph d="M230 1570h251v-1570h-251v1285q-60 -90 -179 -90v237q51 0 100.5 35.5t78.5 102.5z" glyph-name="one" horiz-adv-x="546" unicode="1"/><glyph d="M746 1015q0 -85 -32.5 -157.5t-80.5 -118.5t-104 -94.5t-104 -89t-80.5 -98.5t-32.5 -124v-121h425v-212h-667v350q0 92 31.5 168t78.5 124.5t102.5 98t102.5 89t78.5 94t31.5 115.5v229q0 106 -85.5 106t-85.5 -106v-261h-251v264q0 169 87 241.5t250 72.5 q160 0 248 -72.5t88 -241.5v-256z" glyph-name="two" horiz-adv-x="807" unicode="2"/><glyph d="M742 1024q0 -89 -32 -143.5t-106 -90.5v-10q73 -36 105.5 -90.5t32.5 -143.5v-247q0 -169 -87.5 -241.5t-250 -72.5t-248.5 72.5t-86 241.5v222h249v-219q0 -106 85.5 -106t85.5 106v253q0 130 -126 129h-67v202h67q126 0 126 129v253q0 106 -85.5 106t-85.5 -106v-218 h-249v221q0 169 86 241.5t248.5 72.5t250 -72.5t87.5 -241.5v-247z" glyph-name="three" horiz-adv-x="807" unicode="3"/><glyph d="M840 555v-212h-111v-343h-253v343h-425v212l256 1015h422v-1015h111zM276 555h200v780h-19z" glyph-name="four" horiz-adv-x="904" unicode="4"/><glyph d="M463 1053q121 0 197.5 -73.5t76.5 -237.5v-440q0 -169 -88 -241.5t-250 -72.5q-160 0 -247 72.5t-87 241.5v200h249v-195q0 -108 85.5 -107.5t85.5 107.5v423q0 108 -85.5 108t-85.5 -108v-83h-249v923h643v-211h-394v-367q50 61 149 61z" glyph-name="five" unicode="5"/><glyph d="M401 -15q-160 0 -248 72.5t-88 241.5v983q0 169 87 241.5t247.5 72.5t245 -72.5t84.5 -241.5v-219h-244v217q0 106 -85.5 106t-85.5 -106l2 -381q53 63 153 64q114 0 190.5 -67.5t76.5 -229.5v-367q0 -169 -86.5 -241.5t-248.5 -72.5zM401 196q85 0 85 106v341 q0 106 -85 106q-87 0 -87 -106v-341q0 -106 87 -106z" glyph-name="six" horiz-adv-x="800" unicode="6"/><glyph d="M51 1570h649v-211l-318 -1359h-247l326 1359h-410v211z" glyph-name="seven" horiz-adv-x="750" unicode="7"/><glyph d="M403 -15q-162 0 -250 72.5t-88 241.5v266q0 171 133 241v10q-121 73 -121 227v242q0 160 84.5 230t241.5 70q159 0 243 -69.5t84 -230.5v-242q0 -154 -122 -227v-10q135 -70 134 -241v-266q0 -169 -87.5 -241.5t-251.5 -72.5zM403 903q87 0 87 111v254q0 106 -87 106 q-85 0 -86 -106v-254q1 -111 86 -111zM403 196q89 0 89 106v307q0 109 -89 110q-87 0 -87 -110v-307q0 -106 87 -106z" glyph-name="eight" horiz-adv-x="807" unicode="8"/><glyph d="M399 1585q160 0 248.5 -72.5t88.5 -241.5v-983q0 -169 -87.5 -241.5t-247.5 -72.5t-244.5 72.5t-84.5 241.5v219h244v-217q0 -106 85 -106t85 106l-1 381q-53 -63 -154 -63q-114 0 -190 67t-76 230v366q0 169 86 241.5t248 72.5zM399 1374q-85 0 -85 -106v-341 q0 -106 85 -106q87 0 87 106v341q0 106 -87 106z" glyph-name="nine" horiz-adv-x="800" unicode="9"/><glyph d="M191 1058q-56 0 -96 40t-40 97q0 55 40 94.5t96 39.5q58 0 98 -40t40 -94q0 -56 -40 -96.5t-98 -40.5zM191 241q-56 0 -96 40t-40 96q0 55 40 95t96 40q58 0 98 -40t40 -95q0 -56 -40 -96t-98 -40z" glyph-name="colon" horiz-adv-x="384" unicode=":"/><glyph d="M217 1058q-56 0 -96.5 40t-40.5 97q0 55 40 94.5t97 39.5q58 0 98 -40t40 -94q0 -56 -40 -96.5t-98 -40.5zM102 -61q43 166 40 331h-87v211h286v-83q0 -300 -83 -459h-156z" glyph-name="semicolon" horiz-adv-x="409" unicode=";"/><glyph d="M526 253l-451 394v276l451 395v-255l-289 -268v-20l289 -268v-254z" glyph-name="less" horiz-adv-x="600" unicode="&lt;"/><glyph d="M65 794v239h831v-239h-831zM65 399v239h831v-239h-831z" glyph-name="equal" horiz-adv-x="960" unicode="="/><glyph d="M75 253v254l289 268v20l-289 268v255l451 -395v-276z" glyph-name="greater" horiz-adv-x="600" unicode=">"/><glyph d="M70 1026v244q0 316 336 315q160 0 248 -72.5t88 -242.5v-210q0 -102 -23.5 -172.5t-57 -106t-67.5 -65.5t-58 -72t-24 -103v-147h-246v174q0 92 23 155.5t56.5 95t66.5 59.5t56.5 72.5t23.5 109.5v208q0 106 -85.5 106t-85.5 -106v-242h-251zM387 -24q-56 0 -96 40 t-40 97q0 55 40 94.5t96 39.5q58 0 98.5 -40t40.5 -94q0 -56 -40.5 -96.5t-98.5 -40.5z" glyph-name="question" horiz-adv-x="803" unicode="?"/><glyph d="M532 1585q186 0 273.5 -91t87.5 -289v-736q0 -101 -50.5 -144t-147.5 -43h-110q-96 0 -139 42.5t-43 144.5v306q0 102 43.5 145t138.5 43h110v242q0 183 -163 183h-80q-162 0 -162 -183v-778q0 -125 54.5 -184.5t179.5 -59.5h97v-198h-138q-212 0 -315 94.5t-103 299.5 v826q0 381 387 380h80zM647 459q48 0 48 55v273h-65q-49 0 -50 -57v-216q0 -55 48 -55h19z" glyph-name="at" horiz-adv-x="957" unicode="@"/><glyph d="M575 0l-29 295h-230l-29 -295h-243l168 1570h438l169 -1570h-244zM336 505h190l-82 838h-26z" glyph-name="A" horiz-adv-x="863" unicode="A"/><glyph d="M614 802q123 -58 123 -232v-254q0 -176 -56 -246t-229 -70h-387v1570h384q167 0 222.5 -70t55.5 -246v-223q0 -84 -24.5 -135t-88.5 -80v-14zM389 1359h-73v-475h71q55 0 75.5 24t20.5 87v258q0 61 -19.5 83.5t-74.5 22.5zM486 319v289q0 63 -21 86t-76 23h-73v-505h75 q55 0 75 23t20 84z" glyph-name="B" unicode="B"/><glyph d="M737 546v-249q0 -316 -336 -316t-336 316v973q0 316 336 315q160 0 248 -72.5t88 -242.5v-244h-251v242q0 106 -85 106t-85 -106v-969q0 -106 85 -106t85 106v247h251z" glyph-name="C" unicode="C"/><glyph d="M449 1570q174 0 231 -70t57 -246v-938q0 -176 -57 -246t-231 -70h-384v1570h384zM486 317v936q0 61 -20.5 83.5t-74.5 22.5h-75v-1147h75q55 0 75 22t20 83z" glyph-name="D" unicode="D"/><glyph d="M556 1359h-240v-468h235v-208h-235v-471h240v-212h-491v1570h491v-211z" glyph-name="E" horiz-adv-x="621" unicode="E"/><glyph d="M556 1359h-239v-478h239v-209h-239v-672h-252v1570h491v-211z" glyph-name="F" horiz-adv-x="621" unicode="F"/><glyph d="M737 1044h-249v224q0 106 -87 106t-87 -106v-966q0 -106 92 -106q94 0 94 106v377h-106v203h343v-582q0 -171 -88 -243t-248 -72q-336 0 -336 315v970q0 316 336 315q160 0 248 -72.5t88 -242.5v-226z" glyph-name="G" unicode="G"/><glyph d="M490 1570h251v-1570h-251v666h-174v-666h-251v1570h251v-693h174v693z" glyph-name="H" horiz-adv-x="805" unicode="H"/><glyph d="M65 0v1570h251v-1570h-251z" glyph-name="I" horiz-adv-x="380" unicode="I"/><glyph d="M312 526v-224q0 -106 85.5 -106t85.5 106v1268h251v-1270q0 -171 -88 -243t-248 -72q-336 0 -337 315v226h251z" glyph-name="J" horiz-adv-x="798" unicode="J"/><glyph d="M567 0l-173 686l-80 -253v-433h-249v1570h249v-703h12l215 703h249l-211 -723l227 -847h-239z" glyph-name="K" horiz-adv-x="841" unicode="K"/><glyph d="M316 212h266v-212h-517v1570h251v-1358z" glyph-name="L" horiz-adv-x="643" unicode="L"/><glyph d="M65 0v1570h386l129 -1237h17l130 1237h386v-1570h-232v1231h-21l-133 -1231h-276l-134 1231h-20v-1231h-232z" glyph-name="M" horiz-adv-x="1177" unicode="M"/><glyph d="M65 0v1570h324l215 -1160h16l-7 187v973h232v-1570h-323l-215 1161h-17l7 -188v-973h-232z" glyph-name="N" horiz-adv-x="909" unicode="N"/><glyph d="M401 1585q160 0 248 -72.5t88 -242.5v-970q0 -171 -88 -243t-248 -72q-336 0 -336 315v970q0 315 336 315zM486 1268q0 106 -85 106t-85 -106v-966q0 -106 85 -106t85 106v966z" glyph-name="O" unicode="O"/><glyph d="M449 1570q171 0 227 -70t56 -246v-587q0 -176 -56 -245.5t-227 -69.5h-133v-352h-251v1570h384zM486 667v587q0 61 -20.5 83.5t-74.5 22.5h-75v-799h75q55 0 75 22.5t20 83.5z" glyph-name="P" horiz-adv-x="803" unicode="P"/><glyph d="M782 17l-139 -142l-126 120q-53 -10 -116 -10q-336 0 -336 315v970q0 316 336 315q160 0 248 -72.5t88 -242.5v-970q0 -121 -44 -191zM316 302q0 -106 85 -106t85 106v966q0 106 -85 106t-85 -106v-966z" glyph-name="Q" horiz-adv-x="846" unicode="Q"/><glyph d="M761 0h-227l-112 480h-106v-480h-251v1570h384q171 0 227 -70t56 -246v-474q0 -169 -104 -241zM316 672l100 2q39 3 54.5 27t15.5 79v474q0 61 -20.5 83.5t-74.5 22.5h-75v-688z" glyph-name="R" horiz-adv-x="791" unicode="R"/><glyph d="M727 1043h-241v227q0 106 -85 106t-85 -106v-197q0 -55 30.5 -98t76.5 -68.5t101 -61.5t101 -72.5t76.5 -105t30.5 -157.5v-211q0 -314 -331 -314q-159 0 -244 72.5t-85 241.5v228h240v-227q0 -106 87 -105q85 0 86 105v197q0 55 -31 98t-77 68.5t-99.5 61.5t-100 73 t-77 105t-30.5 157v211q0 314 329 314q159 0 243.5 -72.5t84.5 -241.5v-228z" glyph-name="S" horiz-adv-x="793" unicode="S"/><glyph d="M703 1570v-211h-200v-1359h-252v1359h-200v211h652z" glyph-name="T" horiz-adv-x="754" unicode="T"/><glyph d="M737 1570v-1270q0 -171 -88 -243t-248 -72q-336 0 -336 315v1270h251v-1268q0 -106 85 -106t85 106v1268h251z" glyph-name="U" unicode="U"/><glyph d="M44 1570h243l131 -1343h26l131 1343h244l-169 -1570h-438z" glyph-name="V" horiz-adv-x="863" unicode="V"/><glyph d="M1068 1570h244l-128 -1570h-394l-99 1300h-17l-99 -1300h-394l-128 1570h244l84 -1302h17l105 1302h359l106 -1302h17z" glyph-name="W" horiz-adv-x="1365" unicode="W"/><glyph d="M807 0h-247l-121 596h-16l-123 -596h-247l189 797l-182 773h247l116 -573h16l114 573h247l-182 -773z" glyph-name="X" horiz-adv-x="860" unicode="X"/><glyph d="M572 1570h240l-262 -990v-580h-246v580l-263 990h241l138 -623h13z" glyph-name="Y" horiz-adv-x="853" unicode="Y"/><glyph d="M61 0v212l372 1128v19h-354v211h599v-211l-383 -1129v-18h372v-212h-606z" glyph-name="Z" horiz-adv-x="738" unicode="Z"/><glyph d="M65 -179v1928h485v-211h-239v-1506h239v-211h-485z" glyph-name="bracketleft" horiz-adv-x="614" unicode="["/><glyph d="M493 0h-232l-182 1570h244z" glyph-name="backslash" horiz-adv-x="571" unicode="\"/><glyph d="M550 -179h-485v211h239v1506h-239v211h485v-1928z" glyph-name="bracketright" horiz-adv-x="614" unicode="]"/><glyph d="M85 1051l395 451h276l394 -451h-254l-268 289h-20l-268 -289h-255z" glyph-name="asciicircum" horiz-adv-x="1237" unicode="^"/><glyph d="M72 -225v225h887v-225h-887z" glyph-name="underscore" horiz-adv-x="1030" unicode="_"/><glyph d="M311 1161h-222l-89 267h222z" glyph-name="grave" horiz-adv-x="310" unicode="`"/><glyph d="M575 0l-29 295h-230l-29 -295h-243l168 1570h438l169 -1570h-244zM336 505h190l-82 838h-26z" glyph-name="a" horiz-adv-x="863" unicode="a"/><glyph d="M614 802q123 -58 123 -232v-254q0 -176 -56 -246t-229 -70h-387v1570h384q167 0 222.5 -70t55.5 -246v-223q0 -84 -24.5 -135t-88.5 -80v-14zM389 1359h-73v-475h71q55 0 75.5 24t20.5 87v258q0 61 -19.5 83.5t-74.5 22.5zM486 319v289q0 63 -21 86t-76 23h-73v-505h75 q55 0 75 23t20 84z" glyph-name="b" unicode="b"/><glyph d="M737 546v-249q0 -316 -336 -316t-336 316v973q0 316 336 315q160 0 248 -72.5t88 -242.5v-244h-251v242q0 106 -85 106t-85 -106v-969q0 -106 85 -106t85 106v247h251z" glyph-name="c" unicode="c"/><glyph d="M449 1570q174 0 231 -70t57 -246v-938q0 -176 -57 -246t-231 -70h-384v1570h384zM486 317v936q0 61 -20.5 83.5t-74.5 22.5h-75v-1147h75q55 0 75 22t20 83z" glyph-name="d" unicode="d"/><glyph d="M556 1359h-240v-468h235v-208h-235v-471h240v-212h-491v1570h491v-211z" glyph-name="e" horiz-adv-x="621" unicode="e"/><glyph d="M556 1359h-239v-478h239v-209h-239v-672h-252v1570h491v-211z" glyph-name="f" horiz-adv-x="621" unicode="f"/><glyph d="M737 1044h-249v224q0 106 -87 106t-87 -106v-966q0 -106 92 -106q94 0 94 106v377h-106v203h343v-582q0 -171 -88 -243t-248 -72q-336 0 -336 315v970q0 316 336 315q160 0 248 -72.5t88 -242.5v-226z" glyph-name="g" unicode="g"/><glyph d="M490 1570h251v-1570h-251v666h-174v-666h-251v1570h251v-693h174v693z" glyph-name="h" horiz-adv-x="805" unicode="h"/><glyph d="M65 0v1570h251v-1570h-251z" glyph-name="i" horiz-adv-x="380" unicode="i"/><glyph d="M312 526v-224q0 -106 85.5 -106t85.5 106v1268h251v-1270q0 -171 -88 -243t-248 -72q-336 0 -337 315v226h251z" glyph-name="j" horiz-adv-x="798" unicode="j"/><glyph d="M567 0l-173 686l-80 -253v-433h-249v1570h249v-703h12l215 703h249l-211 -723l227 -847h-239z" glyph-name="k" horiz-adv-x="841" unicode="k"/><glyph d="M316 212h266v-212h-517v1570h251v-1358z" glyph-name="l" horiz-adv-x="643" unicode="l"/><glyph d="M65 0v1570h386l129 -1237h17l130 1237h386v-1570h-232v1231h-21l-133 -1231h-276l-134 1231h-20v-1231h-232z" glyph-name="m" horiz-adv-x="1177" unicode="m"/><glyph d="M65 0v1570h324l215 -1160h16l-7 187v973h232v-1570h-323l-215 1161h-17l7 -188v-973h-232z" glyph-name="n" horiz-adv-x="909" unicode="n"/><glyph d="M401 1585q160 0 248 -72.5t88 -242.5v-970q0 -171 -88 -243t-248 -72q-336 0 -336 315v970q0 315 336 315zM486 1268q0 106 -85 106t-85 -106v-966q0 -106 85 -106t85 106v966z" glyph-name="o" unicode="o"/><glyph d="M449 1570q171 0 227 -70t56 -246v-587q0 -176 -56 -245.5t-227 -69.5h-133v-352h-251v1570h384zM486 667v587q0 61 -20.5 83.5t-74.5 22.5h-75v-799h75q55 0 75 22.5t20 83.5z" glyph-name="p" horiz-adv-x="803" unicode="p"/><glyph d="M782 17l-139 -142l-126 120q-53 -10 -116 -10q-336 0 -336 315v970q0 316 336 315q160 0 248 -72.5t88 -242.5v-970q0 -121 -44 -191zM316 302q0 -106 85 -106t85 106v966q0 106 -85 106t-85 -106v-966z" glyph-name="q" horiz-adv-x="846" unicode="q"/><glyph d="M761 0h-227l-112 480h-106v-480h-251v1570h384q171 0 227 -70t56 -246v-474q0 -169 -104 -241zM316 672l100 2q39 3 54.5 27t15.5 79v474q0 61 -20.5 83.5t-74.5 22.5h-75v-688z" glyph-name="r" horiz-adv-x="791" unicode="r"/><glyph d="M727 1043h-241v227q0 106 -85 106t-85 -106v-197q0 -55 30.5 -98t76.5 -68.5t101 -61.5t101 -72.5t76.5 -105t30.5 -157.5v-211q0 -314 -331 -314q-159 0 -244 72.5t-85 241.5v228h240v-227q0 -106 87 -105q85 0 86 105v197q0 55 -31 98t-77 68.5t-99.5 61.5t-100 73 t-77 105t-30.5 157v211q0 314 329 314q159 0 243.5 -72.5t84.5 -241.5v-228z" glyph-name="s" horiz-adv-x="793" unicode="s"/><glyph d="M703 1570v-211h-200v-1359h-252v1359h-200v211h652z" glyph-name="t" horiz-adv-x="754" unicode="t"/><glyph d="M737 1570v-1270q0 -171 -88 -243t-248 -72q-336 0 -336 315v1270h251v-1268q0 -106 85 -106t85 106v1268h251z" glyph-name="u" unicode="u"/><glyph d="M44 1570h243l131 -1343h26l131 1343h244l-169 -1570h-438z" glyph-name="v" horiz-adv-x="863" unicode="v"/><glyph d="M1068 1570h244l-128 -1570h-394l-99 1300h-17l-99 -1300h-394l-128 1570h244l84 -1302h17l105 1302h359l106 -1302h17z" glyph-name="w" horiz-adv-x="1365" unicode="w"/><glyph d="M807 0h-247l-121 596h-16l-123 -596h-247l189 797l-182 773h247l116 -573h16l114 573h247l-182 -773z" glyph-name="x" horiz-adv-x="860" unicode="x"/><glyph d="M572 1570h240l-262 -990v-580h-246v580l-263 990h241l138 -623h13z" glyph-name="y" horiz-adv-x="853" unicode="y"/><glyph d="M61 0v212l372 1128v19h-354v211h599v-211l-383 -1129v-18h372v-212h-606z" glyph-name="z" horiz-adv-x="738" unicode="z"/><glyph d="M461 -176q-80 0 -128 43t-48 128v531l-208 242v34l208 242v531q0 85 48 128t128 43h281v-212h-143q-70 0 -70 -66v-437l-191 -229v-34l191 -229v-437q0 -67 70 -66h143v-212h-281z" glyph-name="braceleft" horiz-adv-x="819" unicode="{"/><glyph d="M65 -143v1851h252v-1851h-252z" glyph-name="bar" horiz-adv-x="382" unicode="|"/><glyph d="M358 -176h-281v212h143q70 0 70 66v437l191 229v34l-191 229v437q0 67 -70 66h-143v212h281q80 0 128 -42.5t48 -128.5v-531l208 -242v-34l-208 -242v-531q0 -85 -48 -128t-128 -43z" glyph-name="braceright" horiz-adv-x="819" unicode="}"/><glyph d="M521 659q-51 0 -89.5 18.5t-56.5 40t-45.5 40.5t-59.5 19q-38 0 -62 -21.5t-25 -59.5h-113q-2 109 48.5 162t142.5 53q53 0 91.5 -18.5t56.5 -40t45 -40t60 -18.5q38 0 61.5 21t25.5 61h112q3 -217 -192 -217z" glyph-name="asciitilde" horiz-adv-x="774" unicode="~"/><glyph d="M193 1089q58 0 98 -40t40 -97q0 -55 -40 -95t-98 -40q-56 0 -96.5 40.5t-40.5 94.5q0 56 40.5 96.5t96.5 40.5zM101 671h184l38 -1176h-258z" glyph-name="exclamdown" horiz-adv-x="387" unicode="¡"/><glyph d="M737 922h-251v184q0 106 -85 106t-85 -106v-642q0 -106 85 -106t85 106v186h251v-174q0 -280 -237 -322v-154h-198v155q-237 39 -237 321v618q0 282 237 321v155h198v-153q237 -43 237 -323v-172z" glyph-name="cent" unicode="¢"/><glyph d="M432 212h449v-212h-830v212h130v408h-130v209h130v437q0 171 88 243.5t248 72.5q336 0 336 -316v-240h-251v239q0 106 -85 105.5t-85 -105.5v-436h223v-209h-223v-408z" glyph-name="sterling" horiz-adv-x="942" unicode="£"/><glyph d="M1034 1111q0 -135 -71 -246l90 -90l-121 -120l-85 86q-121 -89 -275 -89t-275 89l-85 -86l-122 120l91 90q-72 111 -72 246t74 249l-93 94l122 120l88 -91q123 87 271.5 87t271.5 -87l89 91l121 -120l-92 -94q73 -114 73 -249zM571.5 809q136.5 0 222 94.5t85.5 207.5 t-85.5 208.5t-222 95.5t-221.5 -95.5t-85 -208.5t85 -207.5t221.5 -94.5z" glyph-name="currency" horiz-adv-x="1143" unicode="¤"/><glyph d="M551 580v-1h219v-81h-219v-82h219v-80h-219v-336h-246v336h-215v80h215v82h-215v81h215v1l-262 990h240l139 -623h13l138 623h241z" glyph-name="yen" horiz-adv-x="858" unicode="¥"/><glyph d="M65 847v861h252v-861h-252zM317 719v-862h-252v862h252z" glyph-name="brokenbar" horiz-adv-x="382" unicode="¦"/><glyph d="M314 1212q0 -55 33.5 -89t83 -46t108 -31t108 -42t83 -81.5t33.5 -147.5v-483q0 -167 -89.5 -239.5t-257.5 -72.5q-169 0 -257.5 72.5t-88.5 239.5v90h244v-78q0 -108 102 -108q101 0 101 108v54q0 65 -46 99.5t-111.5 49.5t-131.5 37.5t-112 83.5t-46 167v483 q0 167 89.5 240t255 73t254.5 -72.5t89 -240.5v-90h-244v78q0 108 -99 108q-101 0 -101 -108v-54zM314 809q0 -49 30.5 -82.5t58 -44t97.5 -27.5q12 -3 17 -5v111q0 38 -14.5 64.5t-42 42.5t-56.5 26.5t-69 21.5q-14 3 -21 6v-113z" glyph-name="section" horiz-adv-x="824" unicode="§"/><glyph d="M105.5 1184q-44.5 0 -75 31t-30.5 77q0 44 30.5 75t75 31t75.5 -31t31 -75q0 -46 -31 -77t-75.5 -31zM431.5 1184q-44.5 0 -75 31t-30.5 77q0 44 30.5 75t75 31t75.5 -31t31 -75q0 -46 -31 -77t-75.5 -31z" glyph-name="dieresis" horiz-adv-x="537" unicode="¨"/><glyph d="M430 852q-159 0 -262 105t-103 263.5t103 264.5t262 106q162 0 265.5 -105t103.5 -265.5t-103.5 -264.5t-265.5 -104zM435 998q70 0 126.5 34.5t75.5 104.5h-81q-34 -68 -121 -69q-65 0 -106 41t-41 111t41 112t106 42q85 0 121 -68h81q-19 70 -75.5 105t-126.5 35 q-97 0 -161 -64t-64 -162q0 -96 64 -159t161 -63z" glyph-name="copyright" horiz-adv-x="863" unicode="©"/><glyph d="M451 724l-18 119h-143l-17 -119h-229l120 710h396l119 -710h-228zM312 993h99l-36 243h-27z" glyph-name="ordfeminine" horiz-adv-x="723" unicode="ª"/><glyph d="M679 246h-256l-331 471l331 471h256l-331 -471zM1082 246h-256l-331 471l331 471h256l-331 -471z" glyph-name="guillemotleft" horiz-adv-x="1174" unicode="«"/><glyph d="M748 915v-401h-253v175h-444v226h697z" glyph-name="logicalnot" horiz-adv-x="798" unicode="¬"/><glyph d="M65 672v226h444v-226h-444z" glyph-name="uni00AD" horiz-adv-x="573" unicode="­"/><glyph d="M430 852q-159 0 -262 105t-103 263.5t103 264.5t262 106q162 0 265.5 -105t103.5 -265.5t-103.5 -264.5t-265.5 -104zM258 1002h78v133h149l76 -133h86l-89 150q79 34 79 128q0 68 -48 108t-133 40h-198v-426zM336 1203v154h121q96 0 96 -77t-96 -77h-121z" glyph-name="registered" horiz-adv-x="863" unicode="®"/><glyph d="M0 1178v201h498v-201h-498z" glyph-name="macron" horiz-adv-x="498" unicode="¯"/><glyph d="M375.5 1592q148.5 0 229.5 -75t81 -252v-318q0 -329 -310.5 -329t-310.5 329v318q0 177 81 252t229.5 75zM461 1273q0 108 -85.5 108t-85.5 -108v-336q0 -108 85.5 -108t85.5 108v336z" glyph-name="degree" horiz-adv-x="750" unicode="°"/><glyph d="M638 1079h301v-239h-301v-301h-252v301h-301v239h301v300h252v-300zM65 60v239h831v-239h-831z" glyph-name="plusminus" horiz-adv-x="1003" unicode="±"/><glyph d="M0 1161l89 267h222l-89 -267h-222z" glyph-name="acute" horiz-adv-x="310" unicode="´"/><glyph d="M486 1570h251v-1270q0 -171 -88 -243t-248 -72q-41 0 -77 5v-246h-252v471q-7 34 -7 85v1270h259v-1324q19 -49 77 -50q85 0 85 106v1268z" glyph-name="uni00B5" unicode="µ"/><glyph d="M766 1570v-1570h-252v352h-162q-172 0 -229.5 70t-57.5 245v587q0 176 57 246t230 70h414zM826 1570h253v-1570h-253v1570zM413 575h101v770h-101q-55 0 -75.5 -24t-20.5 -85v-550q0 -63 20.5 -87t75.5 -24z" glyph-name="paragraph" horiz-adv-x="1143" unicode="¶"/><glyph d="M242 649q-56 0 -96 40t-40 96q0 55 40 95t96 40q58 0 98.5 -40t40.5 -95q0 -56 -40.5 -96t-98.5 -40z" glyph-name="periodcentered" horiz-adv-x="486" unicode="·"/><glyph d="M140 -77q65 -9 112.5 -48t47.5 -116q0 -63 -19.5 -104t-56 -59t-74 -24.5t-90.5 -6.5h-60v116h60q85 0 85 78q0 75 -89 75h-56v87l85 79h139z" glyph-name="cedilla" horiz-adv-x="300" unicode="¸"/><glyph d="M422 727q-152 0 -254.5 103.5t-102.5 255t102.5 255t254.5 103.5q154 0 256 -103.5t102 -255t-102 -255t-256 -103.5zM422 937q63 0 105.5 43.5t42.5 105t-42.5 105t-105.5 43.5q-61 0 -104 -43.5t-43 -105t43 -105t104 -43.5z" glyph-name="ordmasculine" horiz-adv-x="844" unicode="º"/><glyph d="M92 246l331 471l-331 471h256l331 -471l-331 -471h-256zM495 246l331 471l-331 471h256l331 -471l-331 -471h-256z" glyph-name="guillemotright" horiz-adv-x="1174" unicode="»"/><glyph d="M425 1089q56 0 96 -40t40 -97q0 -55 -40 -95t-96 -40q-58 0 -98 40.5t-40 94.5q0 56 40 96.5t98 40.5zM742 39v-244q0 -316 -336 -316q-160 0 -248 73t-88 243v210q0 102 24 172t57 106t67.5 66t58 72t23.5 103v147h246v-174q0 -92 -23 -155.5t-56.5 -95t-66.5 -59.5 t-56 -72.5t-23 -109.5v-208q0 -106 85.5 -106t85.5 106v242h250z" glyph-name="questiondown" horiz-adv-x="803" unicode="¿"/><glyph d="M543 1655h-222l-89 268h222zM575 0l-29 295h-230l-29 -295h-243l168 1570h438l169 -1570h-244zM336 505h190l-82 838h-26z" glyph-name="Agrave" horiz-adv-x="863" unicode="À"/><glyph d="M631 1923l-88 -268h-222l89 268h221zM575 0l-29 295h-230l-29 -295h-243l168 1570h438l169 -1570h-244zM336 505h190l-82 838h-26z" glyph-name="Aacute" horiz-adv-x="863" unicode="Á"/><glyph d="M420 1792l-60 -137h-184l114 267h282l112 -267h-182l-62 137h-20zM575 0l-29 295h-230l-29 -295h-243l168 1570h438l169 -1570h-244zM336 505h190l-82 838h-26z" glyph-name="Acircumflex" horiz-adv-x="863" unicode="Â"/><glyph d="M222 1695h-113q-2 109 49.5 162.5t141.5 53.5q53 0 91.5 -18.5t56.5 -40.5t45.5 -41t59.5 -19q38 0 61.5 21.5t25.5 60.5h113q2 -217 -193 -217q-51 0 -89.5 19t-56.5 41t-45.5 41t-59.5 19q-38 0 -61.5 -21.5t-25.5 -60.5zM575 0l-29 295h-230l-29 -295h-243l168 1570 h438l169 -1570h-244zM336 505h190l-82 838h-26z" glyph-name="Atilde" horiz-adv-x="863" unicode="Ã"/><glyph d="M268 1679q-44 0 -75 31t-31 77q0 44 31 75t75 31t75 -31t31 -75q0 -46 -31 -77t-75 -31zM594 1679q-44 0 -75 31t-31 77q0 44 31 75t75 31t75 -31t31 -75q0 -46 -31 -77t-75 -31zM575 0l-29 295h-230l-29 -295h-243l168 1570h438l169 -1570h-244zM336 505h190l-82 838 h-26z" glyph-name="Adieresis" horiz-adv-x="863" unicode="Ä"/><glyph d="M430 1580q-82 0 -135.5 54t-53.5 134t53.5 134t135.5 54q84 0 137 -54t53 -134t-53 -134t-137 -54zM430 1840q-29 0 -49.5 -20.5t-20.5 -51.5t19.5 -51.5t50.5 -20.5t50.5 20t19.5 52q0 31 -19.5 51.5t-50.5 20.5zM575 0l-29 295h-230l-29 -295h-243l168 1570h438 l169 -1570h-244zM336 505h190l-82 838h-26z" glyph-name="Aring" horiz-adv-x="863" unicode="Å"/><glyph d="M1062 1359h-241v-468h235v-208h-235v-471h241v-212h-492v312h-222l-60 -312h-244l308 1570h710v-211zM389 531h181v814h-27z" glyph-name="AE" horiz-adv-x="1126" unicode="Æ"/><glyph d="M737 1026h-251v242q0 106 -85 106t-85 -106v-969q0 -106 85 -106t85 106v247h251v-249q0 -276 -254 -311l-68 -63q65 -9 112.5 -48t47.5 -116q0 -63 -19.5 -104t-56 -59t-74.5 -24.5t-90 -6.5h-60v116h60q85 0 85 78q0 75 -89 75h-56v87l68 62q-278 26 -278 314v973 q0 316 336 315q160 0 248 -72.5t88 -242.5v-244z" glyph-name="Ccedilla" unicode="Ç"/><glyph d="M433 1655h-221l-89 268h222zM556 1359h-240v-468h235v-208h-235v-471h240v-212h-491v1570h491v-211z" glyph-name="Egrave" horiz-adv-x="621" unicode="È"/><glyph d="M522 1923l-89 -268h-221l88 268h222zM556 1359h-240v-468h235v-208h-235v-471h240v-212h-491v1570h491v-211z" glyph-name="Eacute" horiz-adv-x="621" unicode="É"/><glyph d="M311 1792l-60 -137h-184l114 267h282l112 -267h-182l-62 137h-20zM556 1570v-211h-240v-468h235v-208h-235v-471h240v-212h-491v1570h491z" glyph-name="Ecircumflex" horiz-adv-x="621" unicode="Ê"/><glyph d="M158.5 1679q-44.5 0 -75 31t-30.5 77q0 44 30.5 75t75 31t75.5 -31t31 -75q0 -46 -31 -77t-75.5 -31zM484.5 1893q44.5 0 75.5 -31t31 -75q0 -46 -31 -77t-75.5 -31t-75 31t-30.5 77q0 44 30.5 75t75 31zM556 1570v-211h-240v-468h235v-208h-235v-471h240v-212h-491v1570 h491z" glyph-name="Edieresis" horiz-adv-x="621" unicode="Ë"/><glyph d="M304 1655h-222l-89 268h222zM65 0v1570h251v-1570h-251z" glyph-name="Igrave" horiz-adv-x="380" unicode="Ì"/><glyph d="M82 1655l89 268h222l-89 -268h-222zM65 0v1570h251v-1570h-251z" glyph-name="Iacute" horiz-adv-x="380" unicode="Í"/><glyph d="M-63 1655l114 267h282l112 -267h-182l-62 137h-20l-60 -137h-184zM65 0v1570h251v-1570h-251z" glyph-name="Icircumflex" horiz-adv-x="380" unicode="Î"/><glyph d="M29 1679q-44 0 -75 31t-31 77q0 44 31 75t75 31t75 -31t31 -75q0 -46 -31 -77t-75 -31zM355 1679q-44 0 -75 31t-31 77q0 44 31 75t75 31t75 -31t31 -75q0 -46 -31 -77t-75 -31zM65 0v1570h251v-1570h-251z" glyph-name="Idieresis" horiz-adv-x="380" unicode="Ï"/><glyph d="M480 1570q174 0 231 -70t57 -246v-938q0 -176 -57 -246t-231 -70h-384v672h-45v226h45v672h384zM517 317v936q0 61 -20.5 83.5t-74.5 22.5h-76v-461h93v-226h-93v-460h76q55 0 75 22t20 83z" glyph-name="Eth" horiz-adv-x="832" unicode="Ð"/><glyph d="M585 1657q-51 0 -89.5 19t-56 41t-45 41t-59.5 19q-38 0 -62 -21.5t-26 -60.5h-112q-2 109 49.5 162.5t141.5 53.5q53 0 91.5 -18.5t56.5 -40.5t45 -41t60 -19q38 0 61.5 21.5t25.5 60.5h112q2 -217 -193 -217zM65 0v1570h324l215 -1160h16l-7 187v973h232v-1570h-323 l-215 1161h-17l7 -188v-973h-232z" glyph-name="Ntilde" horiz-adv-x="909" unicode="Ñ"/><glyph d="M514 1655h-222l-89 268h222zM401 1585q160 0 248 -72.5t88 -242.5v-970q0 -171 -88 -243t-248 -72q-336 0 -336 315v970q0 315 336 315zM486 1268q0 106 -85 106t-85 -106v-966q0 -106 85 -106t85 106v966z" glyph-name="Ograve" unicode="Ò"/><glyph d="M292 1655l89 268h221l-88 -268h-222zM401 1585q160 0 248 -72.5t88 -242.5v-970q0 -171 -88 -243t-248 -72q-336 0 -336 315v970q0 315 336 315zM486 1268q0 106 -85 106t-85 -106v-966q0 -106 85 -106t85 106v966z" glyph-name="Oacute" unicode="Ó"/><glyph d="M147 1655l114 267h282l112 -267h-182l-62 137h-20l-60 -137h-184zM401 1585q160 0 248 -72.5t88 -242.5v-970q0 -171 -88 -243t-248 -72q-336 0 -336 315v970q0 315 336 315zM486 1268q0 106 -85 106t-85 -106v-966q0 -106 85 -106t85 106v966z" glyph-name="Ocircumflex" unicode="Ô"/><glyph d="M531 1657q-51 0 -89.5 19t-56.5 41t-45.5 41t-59.5 19q-38 0 -61.5 -21.5t-25.5 -60.5h-113q-2 109 49.5 162.5t141.5 53.5q53 0 91.5 -18.5t56.5 -40.5t45.5 -41t59.5 -19q38 0 61.5 21.5t25.5 60.5h113q2 -217 -193 -217zM401 1585q160 0 248 -72.5t88 -242.5v-970 q0 -171 -88 -243t-248 -72q-336 0 -336 315v970q0 315 336 315zM486 1268q0 106 -85 106t-85 -106v-966q0 -106 85 -106t85 106v966z" glyph-name="Otilde" unicode="Õ"/><glyph d="M239 1679q-44 0 -75 31t-31 77q0 44 31 75t75 31t75 -31t31 -75q0 -46 -31 -77t-75 -31zM565 1679q-44 0 -75 31t-31 77q0 44 31 75t75 31t75 -31t31 -75q0 -46 -31 -77t-75 -31zM401 1585q160 0 248 -72.5t88 -242.5v-970q0 -171 -88 -243t-248 -72q-336 0 -336 315v970 q0 315 336 315zM486 1268q0 106 -85 106t-85 -106v-966q0 -106 85 -106t85 106v966z" glyph-name="Odieresis" unicode="Ö"/><glyph d="M853 990l-211 -212l211 -213l-169 -169l-211 213l-214 -213l-177 179l212 212l-212 213l169 169l212 -213l213 213z" glyph-name="multiply" horiz-adv-x="935" unicode="×"/><glyph d="M759 1591l-51 -139q39 -70 40 -182v-970q0 -171 -88 -243t-249 -72q-143 0 -223 54l-22 -59h-101l51 138q-41 68 -41 182v970q0 316 336 315q145 0 226 -54l22 60h100zM326 1268v-580l171 462v118q0 106 -85.5 106t-85.5 -106zM497 302v575l-171 -462v-113 q0 -106 85.5 -106t85.5 106z" glyph-name="Oslash" horiz-adv-x="824" unicode="Ø"/><glyph d="M514 1655h-222l-89 268h222zM737 1570v-1270q0 -171 -88 -243t-248 -72q-336 0 -336 315v1270h251v-1268q0 -106 85 -106t85 106v1268h251z" glyph-name="Ugrave" unicode="Ù"/><glyph d="M292 1655l89 268h221l-88 -268h-222zM737 1570v-1270q0 -171 -88 -243t-248 -72q-336 0 -336 315v1270h251v-1268q0 -106 85 -106t85 106v1268h251z" glyph-name="Uacute" unicode="Ú"/><glyph d="M147 1655l114 267h282l112 -267h-182l-62 137h-20l-60 -137h-184zM737 1570v-1270q0 -171 -88 -243t-248 -72q-336 0 -336 315v1270h251v-1268q0 -106 85 -106t85 106v1268h251z" glyph-name="Ucircumflex" unicode="Û"/><glyph d="M239 1679q-44 0 -75 31t-31 77q0 44 31 75t75 31t75 -31t31 -75q0 -46 -31 -77t-75 -31zM565 1679q-44 0 -75 31t-31 77q0 44 31 75t75 31t75 -31t31 -75q0 -46 -31 -77t-75 -31zM737 1570v-1270q0 -171 -88 -243t-248 -72q-336 0 -336 315v1270h251v-1268 q0 -106 85 -106t85 106v1268h251z" glyph-name="Udieresis" unicode="Ü"/><glyph d="M628 1923l-89 -268h-222l89 268h222zM572 1570h240l-262 -990v-580h-246v580l-263 990h241l138 -623h13z" glyph-name="Yacute" horiz-adv-x="853" unicode="Ý"/><glyph d="M413 1396q188 0 249.5 -70t61.5 -251v-578q0 -181 -61.5 -251t-249.5 -70h-96v-176h-252v1570h252v-174h96zM471 514v544q0 63 -22 88t-77 25h-55v-770h55q55 0 77 25t22 88z" glyph-name="Thorn" horiz-adv-x="788" unicode="Þ"/><glyph d="M744 1051q0 -99 -31.5 -154.5t-104.5 -90.5v-12q73 -38 106.5 -93.5t33.5 -152.5v-260q0 -167 -84.5 -227.5t-257.5 -60.5h-39v198h36q49 0 74 24t25 83v279q0 65 -25.5 91t-77.5 26h-32v197h32q49 0 75 27t26 92v251q0 106 -96 106q-89 0 -88 -106v-1268h-251v1270 q0 316 339 315q162 0 251 -72.5t89 -242.5v-219z" glyph-name="germandbls" horiz-adv-x="812" unicode="ß"/><glyph d="M543 1655h-222l-89 268h222zM575 0l-29 295h-230l-29 -295h-243l168 1570h438l169 -1570h-244zM336 505h190l-82 838h-26z" glyph-name="agrave" horiz-adv-x="863" unicode="à"/><glyph d="M631 1923l-88 -268h-222l89 268h221zM575 0l-29 295h-230l-29 -295h-243l168 1570h438l169 -1570h-244zM336 505h190l-82 838h-26z" glyph-name="aacute" horiz-adv-x="863" unicode="á"/><glyph d="M420 1792l-60 -137h-184l114 267h282l112 -267h-182l-62 137h-20zM575 0l-29 295h-230l-29 -295h-243l168 1570h438l169 -1570h-244zM336 505h190l-82 838h-26z" glyph-name="acircumflex" horiz-adv-x="863" unicode="â"/><glyph d="M222 1695h-113q-2 109 49.5 162.5t141.5 53.5q53 0 91.5 -18.5t56.5 -40.5t45.5 -41t59.5 -19q38 0 61.5 21.5t25.5 60.5h113q2 -217 -193 -217q-51 0 -89.5 19t-56.5 41t-45.5 41t-59.5 19q-38 0 -61.5 -21.5t-25.5 -60.5zM575 0l-29 295h-230l-29 -295h-243l168 1570 h438l169 -1570h-244zM336 505h190l-82 838h-26z" glyph-name="atilde" horiz-adv-x="863" unicode="ã"/><glyph d="M268 1679q-44 0 -75 31t-31 77q0 44 31 75t75 31t75 -31t31 -75q0 -46 -31 -77t-75 -31zM594 1679q-44 0 -75 31t-31 77q0 44 31 75t75 31t75 -31t31 -75q0 -46 -31 -77t-75 -31zM575 0l-29 295h-230l-29 -295h-243l168 1570h438l169 -1570h-244zM336 505h190l-82 838 h-26z" glyph-name="adieresis" horiz-adv-x="863" unicode="ä"/><glyph d="M430 1580q-82 0 -135.5 54t-53.5 134t53.5 134t135.5 54q84 0 137 -54t53 -134t-53 -134t-137 -54zM430 1840q-29 0 -49.5 -20.5t-20.5 -51.5t19.5 -51.5t50.5 -20.5t50.5 20t19.5 52q0 31 -19.5 51.5t-50.5 20.5zM575 0l-29 295h-230l-29 -295h-243l168 1570h438 l169 -1570h-244zM336 505h190l-82 838h-26z" glyph-name="aring" horiz-adv-x="863" unicode="å"/><glyph d="M1062 1359h-241v-468h235v-208h-235v-471h241v-212h-492v312h-222l-60 -312h-244l308 1570h710v-211zM389 531h181v814h-27z" glyph-name="ae" horiz-adv-x="1126" unicode="æ"/><glyph d="M737 1026h-251v242q0 106 -85 106t-85 -106v-969q0 -106 85 -106t85 106v247h251v-249q0 -276 -254 -311l-68 -63q65 -9 112.5 -48t47.5 -116q0 -63 -19.5 -104t-56 -59t-74.5 -24.5t-90 -6.5h-60v116h60q85 0 85 78q0 75 -89 75h-56v87l68 62q-278 26 -278 314v973 q0 316 336 315q160 0 248 -72.5t88 -242.5v-244z" glyph-name="ccedilla" unicode="ç"/><glyph d="M433 1655h-221l-89 268h222zM556 1359h-240v-468h235v-208h-235v-471h240v-212h-491v1570h491v-211z" glyph-name="egrave" horiz-adv-x="621" unicode="è"/><glyph d="M522 1923l-89 -268h-221l88 268h222zM556 1359h-240v-468h235v-208h-235v-471h240v-212h-491v1570h491v-211z" glyph-name="eacute" horiz-adv-x="621" unicode="é"/><glyph d="M311 1792l-60 -137h-184l114 267h282l112 -267h-182l-62 137h-20zM556 1570v-211h-240v-468h235v-208h-235v-471h240v-212h-491v1570h491z" glyph-name="ecircumflex" horiz-adv-x="621" unicode="ê"/><glyph d="M158.5 1679q-44.5 0 -75 31t-30.5 77q0 44 30.5 75t75 31t75.5 -31t31 -75q0 -46 -31 -77t-75.5 -31zM484.5 1893q44.5 0 75.5 -31t31 -75q0 -46 -31 -77t-75.5 -31t-75 31t-30.5 77q0 44 30.5 75t75 31zM556 1570v-211h-240v-468h235v-208h-235v-471h240v-212h-491v1570 h491z" glyph-name="edieresis" horiz-adv-x="621" unicode="ë"/><glyph d="M304 1655h-222l-89 268h222zM65 0v1570h251v-1570h-251z" glyph-name="igrave" horiz-adv-x="380" unicode="ì"/><glyph d="M82 1655l89 268h222l-89 -268h-222zM65 0v1570h251v-1570h-251z" glyph-name="iacute" horiz-adv-x="380" unicode="í"/><glyph d="M-63 1655l114 267h282l112 -267h-182l-62 137h-20l-60 -137h-184zM65 0v1570h251v-1570h-251z" glyph-name="icircumflex" horiz-adv-x="380" unicode="î"/><glyph d="M29 1679q-44 0 -75 31t-31 77q0 44 31 75t75 31t75 -31t31 -75q0 -46 -31 -77t-75 -31zM355 1679q-44 0 -75 31t-31 77q0 44 31 75t75 31t75 -31t31 -75q0 -46 -31 -77t-75 -31zM65 0v1570h251v-1570h-251z" glyph-name="idieresis" horiz-adv-x="380" unicode="ï"/><glyph d="M480 1570q174 0 231 -70t57 -246v-938q0 -176 -57 -246t-231 -70h-384v672h-45v226h45v672h384zM517 317v936q0 61 -20.5 83.5t-74.5 22.5h-76v-461h93v-226h-93v-460h76q55 0 75 22t20 83z" glyph-name="eth" horiz-adv-x="832" unicode="ð"/><glyph d="M585 1657q-51 0 -89.5 19t-56 41t-45 41t-59.5 19q-38 0 -62 -21.5t-26 -60.5h-112q-2 109 49.5 162.5t141.5 53.5q53 0 91.5 -18.5t56.5 -40.5t45 -41t60 -19q38 0 61.5 21.5t25.5 60.5h112q2 -217 -193 -217zM65 0v1570h324l215 -1160h16l-7 187v973h232v-1570h-323 l-215 1161h-17l7 -188v-973h-232z" glyph-name="ntilde" horiz-adv-x="909" unicode="ñ"/><glyph d="M514 1655h-222l-89 268h222zM401 1585q160 0 248 -72.5t88 -242.5v-970q0 -171 -88 -243t-248 -72q-336 0 -336 315v970q0 315 336 315zM486 1268q0 106 -85 106t-85 -106v-966q0 -106 85 -106t85 106v966z" glyph-name="ograve" unicode="ò"/><glyph d="M292 1655l89 268h221l-88 -268h-222zM401 1585q160 0 248 -72.5t88 -242.5v-970q0 -171 -88 -243t-248 -72q-336 0 -336 315v970q0 315 336 315zM486 1268q0 106 -85 106t-85 -106v-966q0 -106 85 -106t85 106v966z" glyph-name="oacute" unicode="ó"/><glyph d="M147 1655l114 267h282l112 -267h-182l-62 137h-20l-60 -137h-184zM401 1585q160 0 248 -72.5t88 -242.5v-970q0 -171 -88 -243t-248 -72q-336 0 -336 315v970q0 315 336 315zM486 1268q0 106 -85 106t-85 -106v-966q0 -106 85 -106t85 106v966z" glyph-name="ocircumflex" unicode="ô"/><glyph d="M531 1657q-51 0 -89.5 19t-56.5 41t-45.5 41t-59.5 19q-38 0 -61.5 -21.5t-25.5 -60.5h-113q-2 109 49.5 162.5t141.5 53.5q53 0 91.5 -18.5t56.5 -40.5t45.5 -41t59.5 -19q38 0 61.5 21.5t25.5 60.5h113q2 -217 -193 -217zM401 1585q160 0 248 -72.5t88 -242.5v-970 q0 -171 -88 -243t-248 -72q-336 0 -336 315v970q0 315 336 315zM486 1268q0 106 -85 106t-85 -106v-966q0 -106 85 -106t85 106v966z" glyph-name="otilde" unicode="õ"/><glyph d="M239 1679q-44 0 -75 31t-31 77q0 44 31 75t75 31t75 -31t31 -75q0 -46 -31 -77t-75 -31zM565 1679q-44 0 -75 31t-31 77q0 44 31 75t75 31t75 -31t31 -75q0 -46 -31 -77t-75 -31zM401 1585q160 0 248 -72.5t88 -242.5v-970q0 -171 -88 -243t-248 -72q-336 0 -336 315v970 q0 315 336 315zM486 1268q0 106 -85 106t-85 -106v-966q0 -106 85 -106t85 106v966z" glyph-name="odieresis" unicode="ö"/><glyph d="M495 1067q-53 0 -89.5 36.5t-36.5 87.5t36.5 88t89.5 37t89.5 -37t36.5 -88t-36.5 -87.5t-89.5 -36.5zM63 666v239h859v-239h-859zM495 256q-53 0 -89.5 36.5t-36.5 88t36.5 88t89.5 36.5t89.5 -36.5t36.5 -88t-36.5 -88t-89.5 -36.5z" glyph-name="divide" horiz-adv-x="976" unicode="÷"/><glyph d="M759 1591l-51 -139q39 -70 40 -182v-970q0 -171 -88 -243t-249 -72q-143 0 -223 54l-22 -59h-101l51 138q-41 68 -41 182v970q0 316 336 315q145 0 226 -54l22 60h100zM326 1268v-580l171 462v118q0 106 -85.5 106t-85.5 -106zM497 302v575l-171 -462v-113 q0 -106 85.5 -106t85.5 106z" glyph-name="oslash" horiz-adv-x="824" unicode="ø"/><glyph d="M514 1655h-222l-89 268h222zM737 1570v-1270q0 -171 -88 -243t-248 -72q-336 0 -336 315v1270h251v-1268q0 -106 85 -106t85 106v1268h251z" glyph-name="ugrave" unicode="ù"/><glyph d="M292 1655l89 268h221l-88 -268h-222zM737 1570v-1270q0 -171 -88 -243t-248 -72q-336 0 -336 315v1270h251v-1268q0 -106 85 -106t85 106v1268h251z" glyph-name="uacute" unicode="ú"/><glyph d="M147 1655l114 267h282l112 -267h-182l-62 137h-20l-60 -137h-184zM737 1570v-1270q0 -171 -88 -243t-248 -72q-336 0 -336 315v1270h251v-1268q0 -106 85 -106t85 106v1268h251z" glyph-name="ucircumflex" unicode="û"/><glyph d="M239 1679q-44 0 -75 31t-31 77q0 44 31 75t75 31t75 -31t31 -75q0 -46 -31 -77t-75 -31zM565 1679q-44 0 -75 31t-31 77q0 44 31 75t75 31t75 -31t31 -75q0 -46 -31 -77t-75 -31zM737 1570v-1270q0 -171 -88 -243t-248 -72q-336 0 -336 315v1270h251v-1268 q0 -106 85 -106t85 106v1268h251z" glyph-name="udieresis" unicode="ü"/><glyph d="M628 1923l-89 -268h-222l89 268h222zM572 1570h240l-262 -990v-580h-246v580l-263 990h241l138 -623h13z" glyph-name="yacute" horiz-adv-x="853" unicode="ý"/><glyph d="M413 1396q188 0 249.5 -70t61.5 -251v-578q0 -181 -61.5 -251t-249.5 -70h-96v-176h-252v1570h252v-174h96zM471 514v544q0 63 -22 88t-77 25h-55v-770h55q55 0 77 25t22 88z" glyph-name="thorn" horiz-adv-x="788" unicode="þ"/><glyph d="M264.5 1679q-44.5 0 -75 31t-30.5 77q0 44 30.5 75t75 31t75 -31t30.5 -75q0 -46 -30.5 -77t-75 -31zM590.5 1679q-44.5 0 -75 31t-30.5 77q0 44 30.5 75t75 31t75 -31t30.5 -75q0 -46 -30.5 -77t-75 -31zM572 1570h240l-262 -990v-580h-246v580l-263 990h241l138 -623 h13z" glyph-name="ydieresis" horiz-adv-x="853" unicode="ÿ"/><glyph d="M679 1874v-201h-498v201h498zM575 0l-29 295h-230l-29 -295h-243l168 1570h438l169 -1570h-244zM336 505h190l-82 838h-26z" glyph-name="Amacron" horiz-adv-x="863" unicode="Ā"/><glyph d="M679 1874v-201h-498v201h498zM575 0l-29 295h-230l-29 -295h-243l168 1570h438l169 -1570h-244zM336 505h190l-82 838h-26z" glyph-name="amacron" horiz-adv-x="863" unicode="ā"/><glyph d="M430 1657q-145 0 -210 42t-65 160v61h166v-26q0 -46 28 -64t81 -18t80.5 18t27.5 64v26h165v-61q0 -118 -65 -160t-208 -42zM575 0l-29 295h-230l-29 -295h-243l168 1570h438l169 -1570h-244zM336 505h190l-82 838h-26z" glyph-name="Abreve" horiz-adv-x="863" unicode="Ă"/><glyph d="M430 1657q-145 0 -210 42t-65 160v61h166v-26q0 -46 28 -64t81 -18t80.5 18t27.5 64v26h165v-61q0 -118 -65 -160t-208 -42zM575 0l-29 295h-230l-29 -295h-243l168 1570h438l169 -1570h-244zM336 505h190l-82 838h-26z" glyph-name="abreve" horiz-adv-x="863" unicode="ă"/><glyph d="M713 0q-53 0 -78.5 -27.5t-25.5 -69.5q0 -99 104 -99h89l-22 -169h-72q-155 0 -238 71.5t-83 196.5q0 171 176 222l-17 170h-230l-29 -295h-243l168 1570h438l169 -1570h-106zM336 505h190l-82 838h-26z" glyph-name="Aogonek" horiz-adv-x="863" unicode="Ą"/><glyph d="M713 0q-53 0 -78.5 -27.5t-25.5 -69.5q0 -99 104 -99h89l-22 -169h-72q-155 0 -238 71.5t-83 196.5q0 171 176 222l-17 170h-230l-29 -295h-243l168 1570h438l169 -1570h-106zM336 505h190l-82 838h-26z" glyph-name="aogonek" horiz-adv-x="863" unicode="ą"/><glyph d="M292 1655l89 268h221l-88 -268h-222zM737 546v-249q0 -316 -336 -316t-336 316v973q0 316 336 315q160 0 248 -72.5t88 -242.5v-244h-251v242q0 106 -85 106t-85 -106v-969q0 -106 85 -106t85 106v247h251z" glyph-name="Cacute" unicode="Ć"/><glyph d="M292 1655l89 268h221l-88 -268h-222zM737 546v-249q0 -316 -336 -316t-336 316v973q0 316 336 315q160 0 248 -72.5t88 -242.5v-244h-251v242q0 106 -85 106t-85 -106v-969q0 -106 85 -106t85 106v247h251z" glyph-name="cacute" unicode="ć"/><glyph d="M401 1679q-46 0 -78.5 31t-32.5 77q0 44 32.5 75t78.5 31t78.5 -31t32.5 -75q0 -46 -32.5 -77t-78.5 -31zM737 546v-249q0 -316 -336 -316t-336 316v973q0 316 336 315q160 0 248 -72.5t88 -242.5v-244h-251v242q0 106 -85 106t-85 -106v-969q0 -106 85 -106t85 106v247 h251z" glyph-name="Cdotaccent" unicode="Ċ"/><glyph d="M401 1679q-46 0 -78.5 31t-32.5 77q0 44 32.5 75t78.5 31t78.5 -31t32.5 -75q0 -46 -32.5 -77t-78.5 -31zM737 546v-249q0 -316 -336 -316t-336 316v973q0 316 336 315q160 0 248 -72.5t88 -242.5v-244h-251v242q0 106 -85 106t-85 -106v-969q0 -106 85 -106t85 106v247 h251z" glyph-name="cdotaccent" unicode="ċ"/><glyph d="M147 1922h184l60 -137h20l62 137h182l-112 -267h-282zM737 546v-249q0 -316 -336 -316t-336 316v973q0 316 336 315q160 0 248 -72.5t88 -242.5v-244h-251v242q0 106 -85 106t-85 -106v-969q0 -106 85 -106t85 106v247h251z" glyph-name="Ccaron" unicode="Č"/><glyph d="M147 1922h184l60 -137h20l62 137h182l-112 -267h-282zM737 546v-249q0 -316 -336 -316t-336 316v973q0 316 336 315q160 0 248 -72.5t88 -242.5v-244h-251v242q0 106 -85 106t-85 -106v-969q0 -106 85 -106t85 106v247h251z" glyph-name="ccaron" unicode="č"/><glyph d="M543 1655h-282l-114 267h184l60 -137h20l62 137h182zM449 1570q174 0 231 -70t57 -246v-938q0 -176 -57 -246t-231 -70h-384v1570h384zM486 317v936q0 61 -20.5 83.5t-74.5 22.5h-75v-1147h75q55 0 75 22t20 83z" glyph-name="Dcaron" unicode="Ď"/><glyph d="M543 1655h-282l-114 267h184l60 -137h20l62 137h182zM449 1570q174 0 231 -70t57 -246v-938q0 -176 -57 -246t-231 -70h-384v1570h384zM486 317v936q0 61 -20.5 83.5t-74.5 22.5h-75v-1147h75q55 0 75 22t20 83z" glyph-name="dcaron" unicode="ď"/><glyph d="M480 1570q174 0 231 -70t57 -246v-938q0 -176 -57 -246t-231 -70h-384v672h-45v226h45v672h384zM517 317v936q0 61 -20.5 83.5t-74.5 22.5h-76v-461h93v-226h-93v-460h76q55 0 75 22t20 83z" glyph-name="Dcroat" horiz-adv-x="832" unicode="Đ"/><glyph d="M480 1570q174 0 231 -70t57 -246v-938q0 -176 -57 -246t-231 -70h-384v672h-45v226h45v672h384zM517 317v936q0 61 -20.5 83.5t-74.5 22.5h-76v-461h93v-226h-93v-460h76q55 0 75 22t20 83z" glyph-name="dcroat" horiz-adv-x="832" unicode="đ"/><glyph d="M72 1874h498v-201h-498v201zM556 1570v-211h-240v-468h235v-208h-235v-471h240v-212h-491v1570h491z" glyph-name="Emacron" horiz-adv-x="621" unicode="Ē"/><glyph d="M72 1874h498v-201h-498v201zM556 1570v-211h-240v-468h235v-208h-235v-471h240v-212h-491v1570h491z" glyph-name="emacron" horiz-adv-x="621" unicode="ē"/><glyph d="M321 1679q-46 0 -78.5 31t-32.5 77q0 44 32.5 75t78.5 31t78.5 -31t32.5 -75q0 -46 -32.5 -77t-78.5 -31zM556 1359h-240v-468h235v-208h-235v-471h240v-212h-491v1570h491v-211z" glyph-name="Edotaccent" horiz-adv-x="621" unicode="Ė"/><glyph d="M321 1679q-46 0 -78.5 31t-32.5 77q0 44 32.5 75t78.5 31t78.5 -31t32.5 -75q0 -46 -32.5 -77t-78.5 -31zM556 1359h-240v-468h235v-208h-235v-471h240v-212h-491v1570h491v-211z" glyph-name="edotaccent" horiz-adv-x="621" unicode="ė"/><glyph d="M556 1359h-240v-468h235v-208h-235v-471h240v-212h-88q-53 0 -78.5 -27.5t-25.5 -69.5q0 -99 104 -99h88l-22 -169h-71q-155 0 -238 71.5t-83 196.5q0 51 18 97h-95v1570h491v-211z" glyph-name="Eogonek" horiz-adv-x="621" unicode="Ę"/><glyph d="M556 1359h-240v-468h235v-208h-235v-471h240v-212h-88q-53 0 -78.5 -27.5t-25.5 -69.5q0 -99 104 -99h88l-22 -169h-71q-155 0 -238 71.5t-83 196.5q0 51 18 97h-95v1570h491v-211z" glyph-name="eogonek" horiz-adv-x="621" unicode="ę"/><glyph d="M463 1655h-282l-114 267h184l60 -137h20l62 137h182zM556 1570v-211h-240v-468h235v-208h-235v-471h240v-212h-491v1570h491z" glyph-name="Ecaron" horiz-adv-x="621" unicode="Ě"/><glyph d="M463 1655h-282l-114 267h184l60 -137h20l62 137h182zM556 1570v-211h-240v-468h235v-208h-235v-471h240v-212h-491v1570h491z" glyph-name="ecaron" horiz-adv-x="621" unicode="ě"/><glyph d="M401 1657q-145 0 -210 42t-65 160v61h166v-26q0 -46 28 -64t81 -18t80.5 18t27.5 64v26h165v-61q0 -118 -65 -160t-208 -42zM737 1044h-249v224q0 106 -87 106t-87 -106v-966q0 -106 92 -106q94 0 94 106v377h-106v203h343v-582q0 -171 -88 -243t-248 -72 q-336 0 -336 315v970q0 316 336 315q160 0 248 -72.5t88 -242.5v-226z" glyph-name="Gbreve" unicode="Ğ"/><glyph d="M401 1657q-145 0 -210 42t-65 160v61h166v-26q0 -46 28 -64t81 -18t80.5 18t27.5 64v26h165v-61q0 -118 -65 -160t-208 -42zM737 1044h-249v224q0 106 -87 106t-87 -106v-966q0 -106 92 -106q94 0 94 106v377h-106v203h343v-582q0 -171 -88 -243t-248 -72 q-336 0 -336 315v970q0 316 336 315q160 0 248 -72.5t88 -242.5v-226z" glyph-name="gbreve" unicode="ğ"/><glyph d="M401 1679q-46 0 -78.5 31t-32.5 77q0 44 32.5 75t78.5 31t78.5 -31t32.5 -75q0 -46 -32.5 -77t-78.5 -31zM737 1044h-249v224q0 106 -87 106t-87 -106v-966q0 -106 92 -106q94 0 94 106v377h-106v203h343v-582q0 -171 -88 -243t-248 -72q-336 0 -336 315v970 q0 316 336 315q160 0 248 -72.5t88 -242.5v-226z" glyph-name="Gdotaccent" unicode="Ġ"/><glyph d="M401 1679q-46 0 -78.5 31t-32.5 77q0 44 32.5 75t78.5 31t78.5 -31t32.5 -75q0 -46 -32.5 -77t-78.5 -31zM737 1044h-249v224q0 106 -87 106t-87 -106v-966q0 -106 92 -106q94 0 94 106v377h-106v203h343v-582q0 -171 -88 -243t-248 -72q-336 0 -336 315v970 q0 316 336 315q160 0 248 -72.5t88 -242.5v-226z" glyph-name="gdotaccent" unicode="ġ"/><glyph d="M737 1044h-249v224q0 106 -87 106t-87 -106v-966q0 -106 92 -106q94 0 94 106v377h-106v203h343v-582q0 -171 -88 -243t-248 -72q-336 0 -336 315v970q0 316 336 315q160 0 248 -72.5t88 -242.5v-226zM294 -613q38 145 37 304h-80v195h263v-77q0 -271 -77 -422h-143z" glyph-name="Gcommaaccent" unicode="Ģ"/><glyph d="M737 1044h-249v224q0 106 -87 106t-87 -106v-966q0 -106 92 -106q94 0 94 106v377h-106v203h343v-582q0 -171 -88 -243t-248 -72q-336 0 -336 315v970q0 316 336 315q160 0 248 -72.5t88 -242.5v-226zM294 -613q38 145 37 304h-80v195h263v-77q0 -271 -77 -422h-143z" glyph-name="gcommaaccent" unicode="ģ"/><glyph d="M490 1570h251v-1570h-251v666h-174v-666h-251v1570h251v-319h174v319zM316 877h174v169h-174v-169z" glyph-name="Hbar" horiz-adv-x="805" unicode="Ħ"/><glyph d="M490 1570h251v-1570h-251v666h-174v-666h-251v1570h251v-319h174v319zM316 877h174v169h-174v-169z" glyph-name="hbar" horiz-adv-x="805" unicode="ħ"/><glyph d="M-58 1673v201h498v-201h-498zM65 0v1570h251v-1570h-251z" glyph-name="Imacron" horiz-adv-x="380" unicode="Ī"/><glyph d="M-58 1673v201h498v-201h-498zM65 0v1570h251v-1570h-251z" glyph-name="imacron" horiz-adv-x="380" unicode="ī"/><glyph d="M65 1570h251v-1570h-89q-53 0 -78.5 -27.5t-25.5 -69.5q0 -99 104 -99h89l-22 -169h-72q-155 0 -238 71.5t-83 196.5q0 164 164 218v1449z" glyph-name="Iogonek" horiz-adv-x="380" unicode="Į"/><glyph d="M65 1570h251v-1570h-89q-53 0 -78.5 -27.5t-25.5 -69.5q0 -99 104 -99h89l-22 -169h-72q-155 0 -238 71.5t-83 196.5q0 164 164 218v1449z" glyph-name="iogonek" horiz-adv-x="380" unicode="į"/><glyph d="M191 1679q-46 0 -78.5 31t-32.5 77q0 44 32.5 75t78.5 31t78.5 -31t32.5 -75q0 -46 -32.5 -77t-78.5 -31zM65 0v1570h251v-1570h-251z" glyph-name="Idotaccent" horiz-adv-x="380" unicode="İ"/><glyph d="M65 0v1570h251v-1570h-251z" glyph-name="dotlessi" horiz-adv-x="380" unicode="ı"/><glyph d="M65 0v1570h251v-1570h-251zM703 526v-224q0 -106 85.5 -106t85.5 106v1268h251v-1270q0 -171 -88 -243t-249 -72q-336 0 -336 315v226h251z" glyph-name="IJ" horiz-adv-x="1189" unicode="Ĳ"/><glyph d="M579 847l227 -847h-239l-173 686l-80 -253v-433h-249v1570h249v-703h12l215 703h249zM278 -309v195h263v-77q0 -271 -77 -422h-143q38 145 37 304h-80z" glyph-name="Kcommaaccent" horiz-adv-x="841" unicode="Ķ"/><glyph d="M579 847l227 -847h-239l-173 686l-80 -253v-433h-249v1570h249v-703h12l215 703h249zM278 -309v195h263v-77q0 -271 -77 -422h-143q38 145 37 304h-80z" glyph-name="kcommaaccent" horiz-adv-x="841" unicode="ķ"/><glyph d="M396 1923l-89 -268h-222l89 268h222zM316 212h266v-212h-517v1570h251v-1358z" glyph-name="Lacute" horiz-adv-x="643" unicode="Ĺ"/><glyph d="M396 1923l-89 -268h-222l89 268h222zM316 212h266v-212h-517v1570h251v-1358z" glyph-name="lacute" horiz-adv-x="643" unicode="ĺ"/><glyph d="M316 212h266v-212h-517v1570h251v-1358zM200 -309v195h263v-77q0 -271 -77 -422h-144q38 145 38 304h-80z" glyph-name="Lcommaaccent" horiz-adv-x="643" unicode="Ļ"/><glyph d="M316 212h266v-212h-517v1570h251v-1358zM200 -309v195h263v-77q0 -271 -77 -422h-144q38 145 38 304h-80z" glyph-name="lcommaaccent" horiz-adv-x="643" unicode="ļ"/><glyph d="M316 1570v-1358h266v-212h-517v1570h251zM403 1570h286v-83q0 -300 -83 -460h-155q43 166 39 332h-87v211z" glyph-name="Lcaron" horiz-adv-x="797" unicode="Ľ"/><glyph d="M316 1570v-1358h266v-212h-517v1570h251zM403 1570h286v-83q0 -300 -83 -460h-155q43 166 39 332h-87v211z" glyph-name="lcaron" horiz-adv-x="797" unicode="ľ"/><glyph d="M316 1570v-1358h266v-212h-517v1570h251zM572 1022q58 0 98 -40t40 -95q0 -56 -40 -96t-98 -40q-56 0 -96.5 40t-40.5 96q0 55 40.5 95t96.5 40z" glyph-name="Ldot" horiz-adv-x="791" unicode="Ŀ"/><glyph d="M353 212h267v-212h-518v447l-102 -87v229l102 87v894h251v-679l220 188v-229l-220 -188v-450z" glyph-name="Lslash" horiz-adv-x="680" unicode="Ł"/><glyph d="M353 212h267v-212h-518v447l-102 -87v229l102 87v894h251v-679l220 188v-229l-220 -188v-450z" glyph-name="lslash" horiz-adv-x="680" unicode="ł"/><glyph d="M346 1655l89 268h222l-89 -268h-222zM65 0v1570h324l215 -1160h16l-7 187v973h232v-1570h-323l-215 1161h-17l7 -188v-973h-232z" glyph-name="Nacute" horiz-adv-x="909" unicode="Ń"/><glyph d="M346 1655l89 268h222l-89 -268h-222zM65 0v1570h324l215 -1160h16l-7 187v973h232v-1570h-323l-215 1161h-17l7 -188v-973h-232z" glyph-name="nacute" horiz-adv-x="909" unicode="ń"/><glyph d="M65 0v1570h324l215 -1160h16l-7 187v973h232v-1570h-323l-215 1161h-17l7 -188v-973h-232zM348 -613q38 145 38 304h-81v195h263v-77q0 -271 -76 -422h-144z" glyph-name="Ncommaaccent" horiz-adv-x="909" unicode="Ņ"/><glyph d="M65 0v1570h324l215 -1160h16l-7 187v973h232v-1570h-323l-215 1161h-17l7 -188v-973h-232zM348 -613q38 145 38 304h-81v195h263v-77q0 -271 -76 -422h-144z" glyph-name="ncommaaccent" horiz-adv-x="909" unicode="ņ"/><glyph d="M201 1922h185l59 -137h21l61 137h183l-113 -267h-281zM65 0v1570h324l215 -1160h16l-7 187v973h232v-1570h-323l-215 1161h-17l7 -188v-973h-232z" glyph-name="Ncaron" horiz-adv-x="909" unicode="Ň"/><glyph d="M201 1922h185l59 -137h21l61 137h183l-113 -267h-281zM65 0v1570h324l215 -1160h16l-7 187v973h232v-1570h-323l-215 1161h-17l7 -188v-973h-232z" glyph-name="ncaron" horiz-adv-x="909" unicode="ň"/><glyph d="M845 87h15v-121q0 -177 -92 -239t-295 -62v195q70 0 102.5 23t32.5 85v32h-86l-215 1161h-17l7 -188v-973h-232v1570h324l215 -1160h16l-7 187v973h232v-1483z" glyph-name="Eng" horiz-adv-x="925" unicode="Ŋ"/><glyph d="M845 87h15v-121q0 -177 -92 -239t-295 -62v195q70 0 102.5 23t32.5 85v32h-86l-215 1161h-17l7 -188v-973h-232v1570h324l215 -1160h16l-7 187v973h232v-1483z" glyph-name="eng" horiz-adv-x="925" unicode="ŋ"/><glyph d="M152 1673v201h498v-201h-498zM401 1585q160 0 248 -72.5t88 -242.5v-970q0 -171 -88 -243t-248 -72q-336 0 -336 315v970q0 315 336 315zM486 1268q0 106 -85 106t-85 -106v-966q0 -106 85 -106t85 106v966z" glyph-name="Omacron" unicode="Ō"/><glyph d="M152 1673v201h498v-201h-498zM401 1585q160 0 248 -72.5t88 -242.5v-970q0 -171 -88 -243t-248 -72q-336 0 -336 315v970q0 315 336 315zM486 1268q0 106 -85 106t-85 -106v-966q0 -106 85 -106t85 106v966z" glyph-name="omacron" unicode="ō"/><glyph d="M109 1666l89 268h222l-89 -268h-222zM445 1666l89 268h222l-89 -268h-222zM401 1585q160 0 248 -72.5t88 -242.5v-970q0 -171 -88 -243t-248 -72q-336 0 -336 315v970q0 315 336 315zM486 1268q0 106 -85 106t-85 -106v-966q0 -106 85 -106t85 106v966z" glyph-name="Ohungarumlaut" unicode="Ő"/><glyph d="M109 1666l89 268h222l-89 -268h-222zM445 1666l89 268h222l-89 -268h-222zM401 1585q160 0 248 -72.5t88 -242.5v-970q0 -171 -88 -243t-248 -72q-336 0 -336 315v970q0 315 336 315zM486 1268q0 106 -85 106t-85 -106v-966q0 -106 85 -106t85 106v966z" glyph-name="ohungarumlaut" unicode="ő"/><glyph d="M737 1359v-468h236v-208h-236v-471h241v-212h-442q-58 -15 -135 -15q-336 0 -336 315v970q0 316 336 315q77 0 135 -15h442v-211h-241zM401 196q85 0 85 106v966q0 106 -85 106t-85 -106v-966q0 -106 85 -106z" glyph-name="OE" horiz-adv-x="1042" unicode="Œ"/><glyph d="M737 1359v-468h236v-208h-236v-471h241v-212h-442q-58 -15 -135 -15q-336 0 -336 315v970q0 316 336 315q77 0 135 -15h442v-211h-241zM401 196q85 0 85 106v966q0 106 -85 106t-85 -106v-966q0 -106 85 -106z" glyph-name="oe" horiz-adv-x="1042" unicode="œ"/><glyph d="M609 1923l-88 -268h-222l88 268h222zM761 0h-227l-112 480h-106v-480h-251v1570h384q171 0 227 -70t56 -246v-474q0 -169 -104 -241zM316 672l100 2q39 3 54.5 27t15.5 79v474q0 61 -20.5 83.5t-74.5 22.5h-75v-688z" glyph-name="Racute" horiz-adv-x="791" unicode="Ŕ"/><glyph d="M609 1923l-88 -268h-222l88 268h222zM761 0h-227l-112 480h-106v-480h-251v1570h384q171 0 227 -70t56 -246v-474q0 -169 -104 -241zM316 672l100 2q39 3 54.5 27t15.5 79v474q0 61 -20.5 83.5t-74.5 22.5h-75v-688z" glyph-name="racute" horiz-adv-x="791" unicode="ŕ"/><glyph d="M628 539l133 -539h-227l-112 480h-106v-480h-251v1570h384q171 0 227 -70t56 -246v-474q0 -169 -104 -241zM316 672l100 2q39 3 54.5 27t15.5 79v474q0 61 -20.5 83.5t-74.5 22.5h-75v-688zM258 -309v195h263v-77q0 -271 -77 -422h-144q38 145 38 304h-80z" glyph-name="Rcommaaccent" horiz-adv-x="791" unicode="Ŗ"/><glyph d="M628 539l133 -539h-227l-112 480h-106v-480h-251v1570h384q171 0 227 -70t56 -246v-474q0 -169 -104 -241zM316 672l100 2q39 3 54.5 27t15.5 79v474q0 61 -20.5 83.5t-74.5 22.5h-75v-688zM258 -309v195h263v-77q0 -271 -77 -422h-144q38 145 38 304h-80z" glyph-name="rcommaaccent" horiz-adv-x="791" unicode="ŗ"/><glyph d="M550 1655h-282l-114 267h184l60 -137h20l62 137h182zM761 0h-227l-112 480h-106v-480h-251v1570h384q171 0 227 -70t56 -246v-474q0 -169 -104 -241zM316 672l100 2q39 3 54.5 27t15.5 79v474q0 61 -20.5 83.5t-74.5 22.5h-75v-688z" glyph-name="Rcaron" horiz-adv-x="791" unicode="Ř"/><glyph d="M550 1655h-282l-114 267h184l60 -137h20l62 137h182zM761 0h-227l-112 480h-106v-480h-251v1570h384q171 0 227 -70t56 -246v-474q0 -169 -104 -241zM316 672l100 2q39 3 54.5 27t15.5 79v474q0 61 -20.5 83.5t-74.5 22.5h-75v-688z" glyph-name="rcaron" horiz-adv-x="791" unicode="ř"/><glyph d="M292 1655l89 268h221l-88 -268h-222zM727 1043h-241v227q0 106 -85 106t-85 -106v-197q0 -55 30.5 -98t76.5 -68.5t101 -61.5t101 -72.5t76.5 -105t30.5 -157.5v-211q0 -314 -331 -314q-159 0 -244 72.5t-85 241.5v228h240v-227q0 -106 87 -105q85 0 86 105v197 q0 55 -31 98t-77 68.5t-99.5 61.5t-100 73t-77 105t-30.5 157v211q0 314 329 314q159 0 243.5 -72.5t84.5 -241.5v-228z" glyph-name="Sacute" horiz-adv-x="793" unicode="Ś"/><glyph d="M292 1655l89 268h221l-88 -268h-222zM727 1043h-241v227q0 106 -85 106t-85 -106v-197q0 -55 30.5 -98t76.5 -68.5t101 -61.5t101 -72.5t76.5 -105t30.5 -157.5v-211q0 -314 -331 -314q-159 0 -244 72.5t-85 241.5v228h240v-227q0 -106 87 -105q85 0 86 105v197 q0 55 -31 98t-77 68.5t-99.5 61.5t-100 73t-77 105t-30.5 157v211q0 314 329 314q159 0 243.5 -72.5t84.5 -241.5v-228z" glyph-name="sacute" horiz-adv-x="793" unicode="ś"/><glyph d="M316 1073q0 -55 30.5 -98t76.5 -68.5t101 -61.5t101 -72.5t76.5 -105t30.5 -157.5v-211q0 -273 -244 -309l-73 -67q65 -9 112.5 -48t47.5 -116q0 -63 -19.5 -104t-56 -59t-74.5 -24.5t-90 -6.5h-60v116h60q85 0 85 78q0 75 -89 75h-56v87l71 65q-133 12 -203.5 85.5 t-70.5 227.5v228h240v-227q0 -106 87 -105q85 0 86 105v197q0 55 -31 98t-77 68.5t-99.5 61.5t-100 73t-77 105t-30.5 157v211q0 314 329 314q159 0 243.5 -72.5t84.5 -241.5v-228h-241v227q0 106 -85 106t-85 -106v-197z" glyph-name="Scedilla" horiz-adv-x="793" unicode="Ş"/><glyph d="M316 1073q0 -55 30.5 -98t76.5 -68.5t101 -61.5t101 -72.5t76.5 -105t30.5 -157.5v-211q0 -273 -244 -309l-73 -67q65 -9 112.5 -48t47.5 -116q0 -63 -19.5 -104t-56 -59t-74.5 -24.5t-90 -6.5h-60v116h60q85 0 85 78q0 75 -89 75h-56v87l71 65q-133 12 -203.5 85.5 t-70.5 227.5v228h240v-227q0 -106 87 -105q85 0 86 105v197q0 55 -31 98t-77 68.5t-99.5 61.5t-100 73t-77 105t-30.5 157v211q0 314 329 314q159 0 243.5 -72.5t84.5 -241.5v-228h-241v227q0 106 -85 106t-85 -106v-197z" glyph-name="scedilla" horiz-adv-x="793" unicode="ş"/><glyph d="M147 1922h184l60 -137h20l62 137h182l-112 -267h-282zM727 1043h-241v227q0 106 -85 106t-85 -106v-197q0 -55 30.5 -98t76.5 -68.5t101 -61.5t101 -72.5t76.5 -105t30.5 -157.5v-211q0 -314 -331 -314q-159 0 -244 72.5t-85 241.5v228h240v-227q0 -106 87 -105 q85 0 86 105v197q0 55 -31 98t-77 68.5t-99.5 61.5t-100 73t-77 105t-30.5 157v211q0 314 329 314q159 0 243.5 -72.5t84.5 -241.5v-228z" glyph-name="Scaron" horiz-adv-x="793" unicode="Š"/><glyph d="M147 1922h184l60 -137h20l62 137h182l-112 -267h-282zM727 1043h-241v227q0 106 -85 106t-85 -106v-197q0 -55 30.5 -98t76.5 -68.5t101 -61.5t101 -72.5t76.5 -105t30.5 -157.5v-211q0 -314 -331 -314q-159 0 -244 72.5t-85 241.5v228h240v-227q0 -106 87 -105 q85 0 86 105v197q0 55 -31 98t-77 68.5t-99.5 61.5t-100 73t-77 105t-30.5 157v211q0 314 329 314q159 0 243.5 -72.5t84.5 -241.5v-228z" glyph-name="scaron" horiz-adv-x="793" unicode="š"/><glyph d="M503 0h-29l-83 -77q65 -9 112.5 -48t47.5 -116q0 -63 -19.5 -104t-56 -59t-74 -24.5t-90.5 -6.5h-60v116h60q85 0 85 78q0 75 -89 75h-56v87l85 79h-85v1359h-200v211h652v-211h-200v-1359z" glyph-name="Tcommaaccent" horiz-adv-x="754" unicode="Ţ"/><glyph d="M503 0h-29l-83 -77q65 -9 112.5 -48t47.5 -116q0 -63 -19.5 -104t-56 -59t-74 -24.5t-90.5 -6.5h-60v116h60q85 0 85 78q0 75 -89 75h-56v87l85 79h-85v1359h-200v211h652v-211h-200v-1359z" glyph-name="tcommaaccent" horiz-adv-x="754" unicode="ţ"/><glyph d="M519 1655h-282l-114 267h184l60 -137h20l62 137h182zM703 1570v-211h-200v-1359h-252v1359h-200v211h652z" glyph-name="Tcaron" horiz-adv-x="754" unicode="Ť"/><glyph d="M519 1655h-282l-114 267h184l60 -137h20l62 137h182zM703 1570v-211h-200v-1359h-252v1359h-200v211h652z" glyph-name="tcaron" horiz-adv-x="754" unicode="ť"/><glyph d="M720 985v-210h-217v-775h-252v775h-178v210h178v374h-200v211h652v-211h-200v-374h217z" glyph-name="Tbar" horiz-adv-x="771" unicode="Ŧ"/><glyph d="M720 985v-210h-217v-775h-252v775h-178v210h178v374h-200v211h652v-211h-200v-374h217z" glyph-name="tbar" horiz-adv-x="771" unicode="ŧ"/><glyph d="M152 1673v201h498v-201h-498zM737 1570v-1270q0 -171 -88 -243t-248 -72q-336 0 -336 315v1270h251v-1268q0 -106 85 -106t85 106v1268h251z" glyph-name="Umacron" unicode="Ū"/><glyph d="M152 1673v201h498v-201h-498zM737 1570v-1270q0 -171 -88 -243t-248 -72q-336 0 -336 315v1270h251v-1268q0 -106 85 -106t85 106v1268h251z" glyph-name="umacron" unicode="ū"/><glyph d="M401 1657q-145 0 -210 42t-65 160v61h166v-26q0 -46 28 -64t81 -18t80.5 18t27.5 64v26h165v-61q0 -118 -65 -160t-208 -42zM737 1570v-1270q0 -171 -88 -243t-248 -72q-336 0 -336 315v1270h251v-1268q0 -106 85 -106t85 106v1268h251z" glyph-name="Ubreve" unicode="Ŭ"/><glyph d="M408 1657q-145 0 -210 42t-65 160v61h166v-26q0 -46 28 -64t81 -18t80 18t27 64v26h166v-61q0 -118 -65 -160t-208 -42zM737 1570v-1270q0 -171 -88 -243t-248 -72q-336 0 -336 315v1270h251v-1268q0 -106 85 -106t85 106v1268h251z" glyph-name="ubreve" unicode="ŭ"/><glyph d="M401 1580q-82 0 -135.5 54t-53.5 134t53.5 134t135.5 54q84 0 137 -54t53 -134t-53 -134t-137 -54zM401 1696q31 0 50.5 20t19.5 52q0 31 -19.5 51.5t-50.5 20.5q-29 0 -49.5 -20.5t-20.5 -51.5t20.5 -51.5t49.5 -20.5zM737 1570v-1270q0 -171 -88 -243t-248 -72 q-336 0 -336 315v1270h251v-1268q0 -106 85 -106t85 106v1268h251z" glyph-name="Uring" unicode="Ů"/><glyph d="M401 1580q-82 0 -135.5 54t-53.5 134t53.5 134t135.5 54q84 0 137 -54t53 -134t-53 -134t-137 -54zM401 1696q31 0 50.5 20t19.5 52q0 31 -19.5 51.5t-50.5 20.5q-29 0 -49.5 -20.5t-20.5 -51.5t20.5 -51.5t49.5 -20.5zM737 1570v-1270q0 -171 -88 -243t-248 -72 q-336 0 -336 315v1270h251v-1268q0 -106 85 -106t85 106v1268h251z" glyph-name="uring" unicode="ů"/><glyph d="M109 1666l89 268h222l-89 -268h-222zM445 1666l89 268h222l-89 -268h-222zM737 1570v-1270q0 -171 -88 -243t-248 -72q-336 0 -336 315v1270h251v-1268q0 -106 85 -106t85 106v1268h251z" glyph-name="Uhungarumlaut" unicode="Ű"/><glyph d="M109 1666l89 268h222l-89 -268h-222zM445 1666l89 268h222l-89 -268h-222zM737 1570v-1270q0 -171 -88 -243t-248 -72q-336 0 -336 315v1270h251v-1268q0 -106 85 -106t85 106v1268h251z" glyph-name="uhungarumlaut" unicode="ű"/><glyph d="M486 1570h251v-1270q0 -275 -251 -310q-96 -9 -95 -94q0 -92 101 -92h92l-23 -169h-71q-152 0 -236.5 67.5t-84.5 171.5q0 80 53 141q-157 67 -157 285v1270h251v-1268q0 -106 85 -106t85 106v1268z" glyph-name="Uogonek" unicode="Ų"/><glyph d="M486 1570h251v-1270q0 -275 -251 -310q-96 -9 -95 -94q0 -92 101 -92h92l-23 -169h-71q-152 0 -236.5 67.5t-84.5 171.5q0 80 53 141q-157 67 -157 285v1270h251v-1268q0 -106 85 -106t85 106v1268z" glyph-name="uogonek" unicode="ų"/><glyph d="M428 1655l115 267h281l113 -267h-183l-61 137h-21l-59 -137h-185zM1068 1570h244l-128 -1570h-394l-99 1300h-17l-99 -1300h-394l-128 1570h244l84 -1302h17l105 1302h359l106 -1302h17z" glyph-name="Wcircumflex" horiz-adv-x="1365" unicode="Ŵ"/><glyph d="M428 1655l115 267h281l113 -267h-183l-61 137h-21l-59 -137h-185zM1068 1570h244l-128 -1570h-394l-99 1300h-17l-99 -1300h-394l-128 1570h244l84 -1302h17l105 1302h359l106 -1302h17z" glyph-name="wcircumflex" horiz-adv-x="1365" unicode="ŵ"/><glyph d="M416 1792l-59 -137h-185l115 267h281l113 -267h-183l-61 137h-21zM572 1570h240l-262 -990v-580h-246v580l-263 990h241l138 -623h13z" glyph-name="Ycircumflex" horiz-adv-x="853" unicode="Ŷ"/><glyph d="M416 1792l-59 -137h-185l115 267h281l113 -267h-183l-61 137h-21zM572 1570h240l-262 -990v-580h-246v580l-263 990h241l138 -623h13z" glyph-name="ycircumflex" horiz-adv-x="853" unicode="ŷ"/><glyph d="M264.5 1679q-44.5 0 -75 31t-30.5 77q0 44 30.5 75t75 31t75 -31t30.5 -75q0 -46 -30.5 -77t-75 -31zM590.5 1679q-44.5 0 -75 31t-30.5 77q0 44 30.5 75t75 31t75 -31t30.5 -75q0 -46 -30.5 -77t-75 -31zM572 1570h240l-262 -990v-580h-246v580l-263 990h241l138 -623 h13z" glyph-name="Ydieresis" horiz-adv-x="853" unicode="Ÿ"/><glyph d="M259 1655l89 268h222l-89 -268h-222zM61 0v212l372 1128v19h-354v211h599v-211l-383 -1129v-18h372v-212h-606z" glyph-name="Zacute" horiz-adv-x="738" unicode="Ź"/><glyph d="M259 1655l89 268h222l-89 -268h-222zM61 0v212l372 1128v19h-354v211h599v-211l-383 -1129v-18h372v-212h-606z" glyph-name="zacute" horiz-adv-x="738" unicode="ź"/><glyph d="M369 1679q-46 0 -78.5 31t-32.5 77q0 44 32.5 75t78.5 31t78.5 -31t32.5 -75q0 -46 -32.5 -77t-78.5 -31zM61 0v212l372 1128v19h-354v211h599v-211l-383 -1129v-18h372v-212h-606z" glyph-name="Zdotaccent" horiz-adv-x="738" unicode="Ż"/><glyph d="M369 1679q-46 0 -78.5 31t-32.5 77q0 44 32.5 75t78.5 31t78.5 -31t32.5 -75q0 -46 -32.5 -77t-78.5 -31zM61 0v212l372 1128v19h-354v211h599v-211l-383 -1129v-18h372v-212h-606z" glyph-name="zdotaccent" horiz-adv-x="738" unicode="ż"/><glyph d="M114 1922h185l59 -137h21l61 137h183l-113 -267h-281zM61 0v212l372 1128v19h-354v211h599v-211l-383 -1129v-18h372v-212h-606z" glyph-name="Zcaron" horiz-adv-x="738" unicode="Ž"/><glyph d="M114 1922h185l59 -137h21l61 137h183l-113 -267h-281zM61 0v212l372 1128v19h-354v211h599v-211l-383 -1129v-18h372v-212h-606z" glyph-name="zcaron" horiz-adv-x="738" unicode="ž"/><glyph d="M1166 1041h-253v224q0 106 -85.5 105.5t-85.5 -105.5v-381h224v-198h-224v-386q0 -316 -336 -315.5t-336 315.5v231h251v-229q0 -106 85.5 -106t85.5 106v384h-222v198h222v382q0 316 336 316q160 0 249 -72.5t89 -243.5v-225z" glyph-name="florin" horiz-adv-x="1227" unicode="ƒ"/><glyph d="M572 1655h-282l-114 267h184l60 -137h20l62 137h182zM575 0l-29 295h-230l-29 -295h-243l168 1570h438l169 -1570h-244zM336 505h190l-82 838h-26z" glyph-name="uni01CD" horiz-adv-x="863" unicode="Ǎ"/><glyph d="M572 1655h-282l-114 267h184l60 -137h20l62 137h182zM575 0l-29 295h-230l-29 -295h-243l168 1570h438l169 -1570h-244zM336 505h190l-82 838h-26z" glyph-name="uni01CE" horiz-adv-x="863" unicode="ǎ"/><glyph d="M-63 1922h184l60 -137h20l62 137h182l-112 -267h-282zM65 0v1570h251v-1570h-251z" glyph-name="uni01CF" horiz-adv-x="380" unicode="Ǐ"/><glyph d="M-63 1922h184l60 -137h20l62 137h182l-112 -267h-282zM65 0v1570h251v-1570h-251z" glyph-name="uni01D0" horiz-adv-x="380" unicode="ǐ"/><glyph d="M147 1922h184l60 -137h20l62 137h182l-112 -267h-282zM401 1585q160 0 248 -72.5t88 -242.5v-970q0 -171 -88 -243t-248 -72q-336 0 -336 315v970q0 315 336 315zM486 1268q0 106 -85 106t-85 -106v-966q0 -106 85 -106t85 106v966z" glyph-name="uni01D1" unicode="Ǒ"/><glyph d="M147 1922h184l60 -137h20l62 137h182l-112 -267h-282zM401 1585q160 0 248 -72.5t88 -242.5v-970q0 -171 -88 -243t-248 -72q-336 0 -336 315v970q0 315 336 315zM486 1268q0 106 -85 106t-85 -106v-966q0 -106 85 -106t85 106v966z" glyph-name="uni01D2" unicode="ǒ"/><glyph d="M147 1922h184l60 -137h20l62 137h182l-112 -267h-282zM737 1570v-1270q0 -171 -88 -243t-248 -72q-336 0 -336 315v1270h251v-1268q0 -106 85 -106t85 106v1268h251z" glyph-name="uni01D3" unicode="Ǔ"/><glyph d="M147 1922h184l60 -137h20l62 137h182l-112 -267h-282zM737 1570v-1270q0 -171 -88 -243t-248 -72q-336 0 -336 315v1270h251v-1268q0 -106 85 -106t85 106v1268h251z" glyph-name="uni01D4" unicode="ǔ"/><glyph d="M401 1585q160 0 248 -72.5t88 -242.5v-970q0 -261 -222 -305v-9q-102 -15 -102 -94q0 -39 25.5 -63.5t75.5 -24.5h94l-24 -169h-72q-152 0 -236.5 66.5t-84.5 168.5q0 82 56 135q-183 58 -182 295v970q0 315 336 315zM316 1268v-966q0 -106 85 -106t85 106v966 q0 106 -85 106t-85 -106z" glyph-name="uni01EA" unicode="Ǫ"/><glyph d="M727 1043h-241v227q0 106 -85 106t-85 -106v-197q0 -55 30.5 -98t76.5 -68.5t101 -61.5t101 -72.5t76.5 -105t30.5 -157.5v-211q0 -314 -331 -314q-159 0 -244 72.5t-85 241.5v228h240v-227q0 -106 87 -105q85 0 86 105v197q0 55 -31 98t-77 68.5t-99.5 61.5t-100 73 t-77 105t-30.5 157v211q0 314 329 314q159 0 243.5 -72.5t84.5 -241.5v-228zM294 -613q38 145 37 304h-80v195h263v-77q0 -271 -77 -422h-143z" glyph-name="Scommaaccent" horiz-adv-x="793" unicode="Ș"/><glyph d="M727 1043h-241v227q0 106 -85 106t-85 -106v-197q0 -55 30.5 -98t76.5 -68.5t101 -61.5t101 -72.5t76.5 -105t30.5 -157.5v-211q0 -314 -331 -314q-159 0 -244 72.5t-85 241.5v228h240v-227q0 -106 87 -105q85 0 86 105v197q0 55 -31 98t-77 68.5t-99.5 61.5t-100 73 t-77 105t-30.5 157v211q0 314 329 314q159 0 243.5 -72.5t84.5 -241.5v-228zM294 -613q38 145 37 304h-80v195h263v-77q0 -271 -77 -422h-143z" glyph-name="scommaaccent" horiz-adv-x="793" unicode="ș"/><glyph d="M703 1570v-211h-200v-1359h-252v1359h-200v211h652zM227 -309v195h263v-77q0 -271 -77 -422h-143q38 145 37 304h-80z" glyph-name="uni021A" horiz-adv-x="754" unicode="Ț"/><glyph d="M703 1570v-211h-200v-1359h-252v1359h-200v211h652zM227 -309v195h263v-77q0 -271 -77 -422h-143q38 145 37 304h-80z" glyph-name="uni021B" horiz-adv-x="754" unicode="ț"/><glyph d="M0 1161l114 266h282l113 -266h-183l-61 136h-21l-60 -136h-184z" glyph-name="circumflex" horiz-adv-x="508" unicode="ˆ"/><glyph d="M0 1427h184l60 -137h21l61 137h183l-113 -266h-282z" glyph-name="caron" horiz-adv-x="508" unicode="ˇ"/><glyph d="M275 1162q-145 0 -210 42t-65 160v61h166v-26q0 -46 28 -63.5t81 -17.5t80 17.5t27 63.5v26h166v-61q0 -118 -65 -160t-208 -42z" glyph-name="breve" horiz-adv-x="547" unicode="˘"/><glyph d="M111 1184q-46 0 -78.5 31t-32.5 77q0 44 32.5 75t78.5 31t78.5 -31t32.5 -75q0 -46 -32.5 -77t-78.5 -31z" glyph-name="dotaccent" horiz-adv-x="221" unicode="˙"/><glyph d="M189 1085q-82 0 -135.5 54t-53.5 134t54 134t135 54q84 0 137 -54t53 -134t-53 -134t-137 -54zM189 1201q31 0 50.5 20t19.5 52q0 31 -19.5 51.5t-50.5 20.5q-29 0 -49.5 -20.5t-20.5 -51.5t20.5 -51.5t49.5 -20.5z" glyph-name="ring" horiz-adv-x="378" unicode="˚"/><glyph d="M415 0h-89q-53 0 -78.5 -27.5t-25.5 -69.5q0 -99 104 -99h89l-22 -169h-72q-155 0 -238 71.5t-83 196.5q0 118 85.5 179t235.5 61h94v-143z" glyph-name="ogonek" horiz-adv-x="414" unicode="˛"/><glyph d="M451 1162q-51 0 -89.5 19t-56.5 41t-45.5 41t-59.5 19q-38 0 -62 -21.5t-25 -60.5h-113q-2 109 49.5 163t141.5 54q53 0 91.5 -19t56.5 -41t45 -41t60 -19q38 0 61.5 21.5t25.5 60.5h112q3 -217 -192 -217z" glyph-name="tilde" horiz-adv-x="643" unicode="˜"/><glyph d="M0 1161l89 267h222l-89 -267h-222zM336 1161l89 267h222l-89 -267h-222z" glyph-name="hungarumlaut" horiz-adv-x="646" unicode="˝"/><glyph d="M-251 -613q38 145 38 304h-81v195h263v-77q0 -271 -77 -422h-143z" glyph-name="uni0326" horiz-adv-x="0" unicode="̦"/><glyph d="M650 1570l169 -1570h-775l168 1570h438zM309 225h244l-109 1118h-26z" glyph-name="Delta" horiz-adv-x="866" unicode="Δ"/><glyph d="M881 225h128v-225h-381v1261q0 109 -97 109q-99 0 -99 -109v-1261h-381v225h128v1038q0 179 90.5 253.5t261 74.5t260.5 -74.5t90 -253.5v-1038z" glyph-name="Omega" horiz-adv-x="1059" unicode="Ω"/><glyph d="M486 1570h251v-1270q0 -171 -88 -243t-248 -72q-41 0 -77 5v-246h-252v471q-7 34 -7 85v1270h259v-1324q19 -49 77 -50q85 0 85 106v1268z" glyph-name="mu" unicode="μ"/><glyph d="M1109 1345h-164v-990q0 -75 35 -110t112 -35l-44 -220q-177 0 -266 71.5t-89 250.5v1033h-212v-1345h-252v1345h-164v225h1044v-225z" glyph-name="pi" horiz-adv-x="1177" unicode="π"/><glyph d="M795 1655h-222l-88 268h222zM1068 1570h244l-128 -1570h-394l-99 1300h-17l-99 -1300h-394l-128 1570h244l84 -1302h17l105 1302h359l106 -1302h17z" glyph-name="Wgrave" horiz-adv-x="1365" unicode="Ẁ"/><glyph d="M795 1655h-222l-88 268h222zM1068 1570h244l-128 -1570h-394l-99 1300h-17l-99 -1300h-394l-128 1570h244l84 -1302h17l105 1302h359l106 -1302h17z" glyph-name="wgrave" horiz-adv-x="1365" unicode="ẁ"/><glyph d="M573 1655l89 268h222l-89 -268h-222zM1068 1570h244l-128 -1570h-394l-99 1300h-17l-99 -1300h-394l-128 1570h244l84 -1302h17l105 1302h359l106 -1302h17z" glyph-name="Wacute" horiz-adv-x="1365" unicode="Ẃ"/><glyph d="M573 1655l89 268h222l-89 -268h-222zM1068 1570h244l-128 -1570h-394l-99 1300h-17l-99 -1300h-394l-128 1570h244l84 -1302h17l105 1302h359l106 -1302h17z" glyph-name="wacute" horiz-adv-x="1365" unicode="ẃ"/><glyph d="M520.5 1679q-44.5 0 -75 31t-30.5 77q0 44 30.5 75t75 31t75 -31t30.5 -75q0 -46 -30.5 -77t-75 -31zM846.5 1679q-44.5 0 -75 31t-30.5 77q0 44 30.5 75t75 31t75 -31t30.5 -75q0 -46 -30.5 -77t-75 -31zM1068 1570h244l-128 -1570h-394l-99 1300h-17l-99 -1300h-394 l-128 1570h244l84 -1302h17l105 1302h359l106 -1302h17z" glyph-name="Wdieresis" horiz-adv-x="1365" unicode="Ẅ"/><glyph d="M520.5 1679q-44.5 0 -75 31t-30.5 77q0 44 30.5 75t75 31t75 -31t30.5 -75q0 -46 -30.5 -77t-75 -31zM846.5 1679q-44.5 0 -75 31t-30.5 77q0 44 30.5 75t75 31t75 -31t30.5 -75q0 -46 -30.5 -77t-75 -31zM1068 1570h244l-128 -1570h-394l-99 1300h-17l-99 -1300h-394 l-128 1570h244l84 -1302h17l105 1302h359l106 -1302h17z" glyph-name="wdieresis" horiz-adv-x="1365" unicode="ẅ"/><glyph d="M608 915q174 -48 174 -290v-340q0 -162 -66 -223.5t-224 -61.5h-123v198h49q58 0 85.5 29t27.5 99v261q0 77 -28.5 111t-87.5 34h-46v196l134 444h-187v-1372h-251v1570h744z" glyph-name="uni1E9E" horiz-adv-x="877" unicode="ẞ"/><glyph d="M539 1655h-222l-88 268h222zM572 1570h240l-262 -990v-580h-246v580l-263 990h241l138 -623h13z" glyph-name="Ygrave" horiz-adv-x="853" unicode="Ỳ"/><glyph d="M539 1655h-222l-88 268h222zM572 1570h240l-262 -990v-580h-246v580l-263 990h241l138 -623h13z" glyph-name="ygrave" horiz-adv-x="853" unicode="ỳ"/><glyph d="M65 672v226h1251v-226h-1251z" glyph-name="endash" horiz-adv-x="1380" unicode="–"/><glyph d="M65 672v226h1399v-226h-1399z" glyph-name="emdash" horiz-adv-x="1529" unicode="—"/><glyph d="M297 1570q-48 -280 -36 -485h92v-216h-288v68q0 365 87 633h145z" glyph-name="quoteleft" horiz-adv-x="418" unicode="‘"/><glyph d="M121 869q48 280 36 484h-92v217h288v-68q0 -365 -87 -633h-145z" glyph-name="quoteright" horiz-adv-x="418" unicode="’"/><glyph d="M113 -331q43 166 39 331h-87v212h287v-84q0 -300 -84 -459h-155z" glyph-name="quotesinglbase" horiz-adv-x="416" unicode="‚"/><glyph d="M297 1570q-48 -280 -36 -485h92v-216h-288v68q0 365 87 633h145zM642 1570q-48 -280 -36 -485h92v-216h-288v68q0 365 87 633h145z" glyph-name="quotedblleft" horiz-adv-x="762" unicode="“"/><glyph d="M121 869q48 280 36 484h-92v217h288v-68q0 -365 -87 -633h-145zM466 869q48 280 36 484h-92v217h288v-68q0 -365 -87 -633h-145z" glyph-name="quotedblright" horiz-adv-x="762" unicode="”"/><glyph d="M121 -348q48 280 36 485h-92v216h288v-68q0 -365 -87 -633h-145zM466 -348q48 280 36 485h-92v216h288v-68q0 -365 -87 -633h-145z" glyph-name="quotedblbase" horiz-adv-x="762" unicode="„"/><glyph d="M935 1408v-239h-300v-300h-253v300h-300v239h300v300h253v-300h300z" glyph-name="dagger" horiz-adv-x="1017" unicode="†"/><glyph d="M635 1408h300v-239h-300v-300h-253v300h-300v239h300v300h253v-300zM635 696v-300h300v-239h-300v-300h-253v300h-300v239h300v300h253z" glyph-name="daggerdbl" horiz-adv-x="1017" unicode="‡"/><glyph d="M356.5 548q-97.5 0 -167.5 69t-70 168t70 168t167.5 69t167.5 -69t70 -168t-70 -168t-167.5 -69z" glyph-name="bullet" horiz-adv-x="713" unicode="•"/><glyph d="M191 -24q-56 0 -96 40t-40 97q0 55 40 94.5t96 39.5q58 0 98 -40t40 -94q0 -56 -40 -96.5t-98 -40.5zM628 -24q-56 0 -96 40t-40 97q0 55 40 94.5t96 39.5q58 0 98 -40t40 -94q0 -56 -40 -96.5t-98 -40.5zM1065 -24q-56 0 -96.5 40t-40.5 97q0 55 40.5 94.5t96.5 39.5 q58 0 98 -40t40 -94q0 -56 -40 -96.5t-98 -40.5z" glyph-name="ellipsis" horiz-adv-x="1256" unicode="…"/><glyph d="M385.5 1592q153.5 0 236.5 -75t83 -252v-318q0 -177 -83.5 -253t-235.5 -76q-154 0 -237.5 76t-83.5 253v318q0 177 83.5 252t237 75zM445 0l664 1570h239l-664 -1570h-239zM471 1273q0 108 -85.5 108t-85.5 -108v-336q0 -108 85.5 -108t85.5 108v336zM1409.5 -22 q-153.5 0 -237 75t-83.5 252v318q0 177 83.5 253t237.5 76q152 0 235.5 -76t83.5 -253v-318q0 -177 -83 -252t-236.5 -75zM2150.5 -22q-153.5 0 -236.5 75t-83 252v318q0 177 84 253t235 76q154 0 237.5 -76t83.5 -253v-318q0 -177 -83.5 -252t-237 -75zM1324 297 q0 -108 85.5 -108t85.5 108v336q0 108 -85.5 108t-85.5 -108v-336zM2065 297q0 -108 85.5 -108t85.5 108v336q0 108 -85.5 108t-85.5 -108v-336z" glyph-name="perthousand" horiz-adv-x="2536" unicode="‰"/><glyph d="M679 246h-256l-331 471l331 471h256l-331 -471z" glyph-name="guilsinglleft" horiz-adv-x="771" unicode="‹"/><glyph d="M92 246l331 471l-331 471h256l331 -471l-331 -471h-256z" glyph-name="guilsinglright" horiz-adv-x="771" unicode="›"/><glyph d="M833 1026h-251v242q0 106 -85.5 106t-85.5 -106v-355h280v-80h-280v-99h280v-79h-280v-356q0 -106 85.5 -106t85.5 106v247h251v-249q0 -316 -336.5 -316t-336.5 316v358h-95v79h95v99h-95v80h95v357q0 316 337 315q160 0 248 -72.5t88 -242.5v-244z" glyph-name="Euro" horiz-adv-x="897" unicode="€"/><glyph d="M1208 1582q145 0 216 -70t71 -239v-392q0 -167 -71 -237.5t-216 -70.5q-147 0 -217.5 70t-70.5 238v392q0 167 71.5 238t216.5 71zM65 0v1570h331l181 -1160h17l-7 187v973h236v-1570h-318l-194 1161h-17l6 -188v-973h-235zM1273 1273q0 55 -16 76t-49 21 q-34 0 -50 -20.5t-16 -76.5v-384q0 -56 16 -76.5t50 -20.5q65 0 65 97v384zM920 0v225h575v-225h-575z" glyph-name="afii61352" horiz-adv-x="1559" unicode="№"/><glyph d="M236 1570v-54h-62v-292h-61v292h-62v54h185zM451 1570h107v-346h-58v286h-10l-33 -286h-83l-33 286h-10v-286h-60v346h108l31 -292h10z" glyph-name="trademark" horiz-adv-x="609" unicode="™"/><glyph d="M399 -15q-162 0 -248 72.5t-86 241.5v367q0 162 76 229.5t190 67.5q101 0 154 -64l1 381q0 106 -85 106t-85 -106v-217h-244v219q0 169 84.5 241.5t244.5 72.5t247.5 -72.5t87.5 -241.5v-983q0 -169 -88.5 -241.5t-248.5 -72.5zM399 196q87 0 87 106v341q0 106 -87 106 q-85 0 -85 -106v-341q0 -106 85 -106z" glyph-name="partialdiff" horiz-adv-x="800" unicode="∂"/><glyph d="M766 1570v-1570h-252v1345h-197v-1345h-252v1570h701z" glyph-name="product" horiz-adv-x="831" unicode="∏"/><glyph d="M65 0v225l300 545l-300 575v225h575v-225h-312l288 -557v-37l-288 -526h312v-225h-575z" glyph-name="summation" horiz-adv-x="704" unicode="∑"/><glyph d="M65 666v239h831v-239h-831z" glyph-name="minus" horiz-adv-x="960" unicode="−"/><glyph d="M626 1570h244l-182 -1570h-434l-78 688h-132v225h340l75 -686h26z" glyph-name="radical" horiz-adv-x="914" unicode="√"/><glyph d="M1017 1051q137 0 207.5 -89.5t70.5 -242.5q0 -157 -70.5 -247t-207.5 -90q-101 0 -173.5 55t-147.5 164q-75 -109 -147.5 -164t-171.5 -55q-138 0 -209 89.5t-71 247.5q0 154 72 243t208 89q99 0 171.5 -54.5t147.5 -161.5q75 108 147.5 162t173.5 54zM399 544 q56 0 98 38t116 137q-73 96 -115 133t-99 37q-68 0 -100.5 -47t-32.5 -123q0 -175 133 -175zM993 544q133 0 133 175q0 77 -32 123.5t-101 46.5q-56 0 -98 -37.5t-115 -132.5q73 -99 115 -137t98 -38z" glyph-name="infinity" horiz-adv-x="1392" unicode="∞"/><glyph d="M828 1582q160 0 249 -72.5t89 -243.5v-225h-253v224q0 106 -85.5 105.5t-85.5 -105.5v-965q0 -316 -336 -315.5t-336 315.5v231h251v-229q0 -106 85.5 -106t85.5 106v964q0 316 336 316z" glyph-name="integral" horiz-adv-x="1227" unicode="∫"/><glyph d="M521 799q-51 0 -89.5 18.5t-56.5 40t-45.5 40t-59.5 18.5q-38 0 -62 -21t-25 -59h-113q-2 109 48.5 162t142.5 53q53 0 91.5 -18.5t56.5 -40t45 -40t60 -18.5q38 0 61.5 21t25.5 60h112q3 -216 -192 -216zM521 418q-51 0 -89.5 19t-56.5 40t-45.5 40t-59.5 19 q-38 0 -62 -21.5t-25 -58.5h-113q-2 109 48.5 162t142.5 53q53 0 91.5 -19t56.5 -40t45 -40t60 -19q38 0 61.5 21.5t25.5 60.5h112q3 -217 -192 -217z" glyph-name="approxequal" horiz-adv-x="774" unicode="≈"/><glyph d="M910 864h-284l-18 -156h302v-239h-330l-54 -469h-232l51 469h-266v239h291l17 156h-308v239h334l51 467h244l-54 -467h256v-239z" glyph-name="notequal" horiz-adv-x="988" unicode="≠"/><glyph d="M517 401l-447 394v277l447 394v-254l-287 -268v-21l287 -268v-254zM61 60v239h466v-239h-466z" glyph-name="lessequal" horiz-adv-x="581" unicode="≤"/><glyph d="M65 401v254l287 268v21l-287 268v254l447 -394v-277zM521 60h-466v239h466v-239z" glyph-name="greaterequal" horiz-adv-x="581" unicode="≥"/><glyph d="M184 0l-119 785l119 785h434l118 -785l-118 -785h-434zM387 227h26l84 558l-84 558h-26l-82 -558z" glyph-name="lozenge" horiz-adv-x="800" unicode="◊"/><glyph d="M737 1044h-249v224q0 106 -87 106t-87 -106v-966q0 -106 92 -106q94 0 94 106v340l5 37h-111v203h343v-882h-97l-20 131q-26 -79 -84 -112.5t-157 -33.5q-314 0 -314 315v970q0 316 336 315q160 0 248 -72.5t88 -242.5v-226z" glyph-name="G.aalt"/><glyph d="M191 1679q-46 0 -78.5 31t-32.5 77q0 44 32.5 75t78.5 31t78.5 -31t32.5 -75q0 -46 -32.5 -77t-78.5 -31zM65 0v1570h251v-1570h-251z" glyph-name="i.aalt" horiz-adv-x="380"/><glyph d="M737 1044h-249v224q0 106 -87 106t-87 -106v-966q0 -106 92 -106q94 0 94 106v340l5 37h-111v203h343v-882h-97l-20 131q-26 -79 -84 -112.5t-157 -33.5q-314 0 -314 315v970q0 316 336 315q160 0 248 -72.5t88 -242.5v-226z" glyph-name="g.aalt"/></font>
</defs>
</svg>
